%TF.GenerationSoftware,KiCad,Pcbnew,8.0.6*%
%TF.CreationDate,2024-11-04T13:33:36+01:00*%
%TF.ProjectId,right,72696768-742e-46b6-9963-61645f706362,v1.0.0*%
%TF.SameCoordinates,Original*%
%TF.FileFunction,Copper,L2,Bot*%
%TF.FilePolarity,Positive*%
%FSLAX46Y46*%
G04 Gerber Fmt 4.6, Leading zero omitted, Abs format (unit mm)*
G04 Created by KiCad (PCBNEW 8.0.6) date 2024-11-04 13:33:36*
%MOMM*%
%LPD*%
G01*
G04 APERTURE LIST*
G04 Aperture macros list*
%AMRotRect*
0 Rectangle, with rotation*
0 The origin of the aperture is its center*
0 $1 length*
0 $2 width*
0 $3 Rotation angle, in degrees counterclockwise*
0 Add horizontal line*
21,1,$1,$2,0,0,$3*%
G04 Aperture macros list end*
%TA.AperFunction,SMDPad,CuDef*%
%ADD10R,0.900000X0.900000*%
%TD*%
%TA.AperFunction,WasherPad*%
%ADD11C,1.000000*%
%TD*%
%TA.AperFunction,SMDPad,CuDef*%
%ADD12R,1.250000X0.900000*%
%TD*%
%TA.AperFunction,SMDPad,CuDef*%
%ADD13R,2.600000X2.600000*%
%TD*%
%TA.AperFunction,ComponentPad*%
%ADD14R,1.778000X1.778000*%
%TD*%
%TA.AperFunction,SMDPad,CuDef*%
%ADD15R,0.900000X1.200000*%
%TD*%
%TA.AperFunction,ComponentPad*%
%ADD16C,1.905000*%
%TD*%
%TA.AperFunction,SMDPad,CuDef*%
%ADD17R,1.000000X1.550000*%
%TD*%
%TA.AperFunction,ComponentPad*%
%ADD18C,1.752600*%
%TD*%
%TA.AperFunction,ComponentPad*%
%ADD19RotRect,1.778000X1.778000X243.000000*%
%TD*%
%TA.AperFunction,SMDPad,CuDef*%
%ADD20RotRect,0.900000X1.200000X243.000000*%
%TD*%
%TA.AperFunction,SMDPad,CuDef*%
%ADD21RotRect,2.600000X2.600000X243.000000*%
%TD*%
%TA.AperFunction,SMDPad,CuDef*%
%ADD22RotRect,2.600000X2.600000X215.000000*%
%TD*%
%TA.AperFunction,SMDPad,CuDef*%
%ADD23R,1.200000X0.900000*%
%TD*%
%TA.AperFunction,ComponentPad*%
%ADD24RotRect,1.778000X1.778000X215.000000*%
%TD*%
%TA.AperFunction,SMDPad,CuDef*%
%ADD25RotRect,0.900000X1.200000X215.000000*%
%TD*%
%TA.AperFunction,ComponentPad*%
%ADD26R,1.700000X1.200000*%
%TD*%
%TA.AperFunction,ComponentPad*%
%ADD27O,1.700000X1.200000*%
%TD*%
%TA.AperFunction,ViaPad*%
%ADD28C,0.800000*%
%TD*%
%TA.AperFunction,Conductor*%
%ADD29C,0.250000*%
%TD*%
G04 APERTURE END LIST*
D10*
%TO.P,T1,*%
%TO.N,*%
X142160000Y-102200000D03*
X144360000Y-102200000D03*
D11*
X143260000Y-100000000D03*
X143260000Y-97000000D03*
D10*
X142160000Y-94800000D03*
X144360000Y-94800000D03*
D12*
%TO.P,T1,1*%
%TO.N,pos*%
X145335000Y-100750000D03*
%TO.P,T1,2*%
%TO.N,RAW*%
X145335000Y-97750000D03*
%TO.P,T1,3*%
%TO.N,N/C*%
X145335000Y-96250000D03*
%TD*%
D13*
%TO.P,S4,1*%
%TO.N,P020*%
X251085000Y-83700000D03*
%TO.P,S4,2*%
%TO.N,mirror_first_num*%
X239535000Y-81500000D03*
%TD*%
D14*
%TO.P,D16,1*%
%TO.N,P031*%
X198370000Y-60750000D03*
D15*
X196210000Y-60750000D03*
%TO.P,D16,2*%
%TO.N,mirror_fourth_num*%
X192910000Y-60750000D03*
D16*
X190750000Y-60750000D03*
%TD*%
D13*
%TO.P,S26,1*%
%TO.N,P017*%
X160010000Y-89225000D03*
%TO.P,S26,2*%
%TO.N,mirror_sixth_top*%
X157810000Y-100775000D03*
%TD*%
%TO.P,S14,1*%
%TO.N,P100*%
X194835000Y-107200000D03*
%TO.P,S14,2*%
%TO.N,mirror_fourth_home*%
X183285000Y-105000000D03*
%TD*%
D14*
%TO.P,D6,1*%
%TO.N,P002*%
X235870000Y-108250000D03*
D15*
X233710000Y-108250000D03*
%TO.P,D6,2*%
%TO.N,mirror_second_home*%
X230410000Y-108250000D03*
D16*
X228250000Y-108250000D03*
%TD*%
D14*
%TO.P,D3,1*%
%TO.N,P029*%
X254620000Y-90500000D03*
D15*
X252460000Y-90500000D03*
%TO.P,D3,2*%
%TO.N,mirror_first_top*%
X249160000Y-90500000D03*
D16*
X247000000Y-90500000D03*
%TD*%
D13*
%TO.P,S3,1*%
%TO.N,P020*%
X251085000Y-101450000D03*
%TO.P,S3,2*%
%TO.N,mirror_first_top*%
X239535000Y-99250000D03*
%TD*%
D17*
%TO.P,B1,1*%
%TO.N,GND*%
X142210000Y-92325000D03*
X142210000Y-87075000D03*
%TO.P,B1,2*%
%TO.N,RST*%
X143910000Y-92325000D03*
X143910000Y-87075000D03*
%TD*%
D13*
%TO.P,S16,1*%
%TO.N,P100*%
X194835000Y-71700000D03*
%TO.P,S16,2*%
%TO.N,mirror_fourth_num*%
X183285000Y-69500000D03*
%TD*%
%TO.P,S19,1*%
%TO.N,P011*%
X176085000Y-95450000D03*
%TO.P,S19,2*%
%TO.N,mirror_fifth_top*%
X164535000Y-93250000D03*
%TD*%
D14*
%TO.P,D20,1*%
%TO.N,P002*%
X160870000Y-105250000D03*
D15*
X158710000Y-105250000D03*
%TO.P,D20,2*%
%TO.N,mirror_sixth_home*%
X155410000Y-105250000D03*
D16*
X153250000Y-105250000D03*
%TD*%
D14*
%TO.P,D5,1*%
%TO.N,P115*%
X235870000Y-126000000D03*
D15*
X233710000Y-126000000D03*
%TO.P,D5,2*%
%TO.N,mirror_second_bottom*%
X230410000Y-126000000D03*
D16*
X228250000Y-126000000D03*
%TD*%
D14*
%TO.P,D10,1*%
%TO.N,P002*%
X217120000Y-101250000D03*
D15*
X214960000Y-101250000D03*
%TO.P,D10,2*%
%TO.N,mirror_third_home*%
X211660000Y-101250000D03*
D16*
X209500000Y-101250000D03*
%TD*%
D13*
%TO.P,S1,1*%
%TO.N,P020*%
X251085000Y-136950000D03*
%TO.P,S1,2*%
%TO.N,mirror_first_bottom*%
X239535000Y-134750000D03*
%TD*%
%TO.P,S7,1*%
%TO.N,P022*%
X232335000Y-101450000D03*
%TO.P,S7,2*%
%TO.N,mirror_second_top*%
X220785000Y-99250000D03*
%TD*%
%TO.P,S15,1*%
%TO.N,P100*%
X194835000Y-89450000D03*
%TO.P,S15,2*%
%TO.N,mirror_fourth_top*%
X183285000Y-87250000D03*
%TD*%
D14*
%TO.P,D14,1*%
%TO.N,P002*%
X198370000Y-96250000D03*
D15*
X196210000Y-96250000D03*
%TO.P,D14,2*%
%TO.N,mirror_fourth_home*%
X192910000Y-96250000D03*
D16*
X190750000Y-96250000D03*
%TD*%
D14*
%TO.P,D1,1*%
%TO.N,P115*%
X254620000Y-126000000D03*
D15*
X252460000Y-126000000D03*
%TO.P,D1,2*%
%TO.N,mirror_first_bottom*%
X249160000Y-126000000D03*
D16*
X247000000Y-126000000D03*
%TD*%
D18*
%TO.P,MCU1,1*%
%TO.N,P006*%
X149090000Y-83870000D03*
%TO.P,MCU1,2*%
%TO.N,P008*%
X151630000Y-83870000D03*
%TO.P,MCU1,3*%
%TO.N,GND*%
X154170000Y-83870000D03*
%TO.P,MCU1,4*%
X156710000Y-83870000D03*
%TO.P,MCU1,5*%
%TO.N,P017*%
X159250000Y-83870000D03*
%TO.P,MCU1,6*%
%TO.N,P020*%
X161790000Y-83870000D03*
%TO.P,MCU1,7*%
%TO.N,P022*%
X164330000Y-83870000D03*
%TO.P,MCU1,8*%
%TO.N,P024*%
X166870000Y-83870000D03*
%TO.P,MCU1,9*%
%TO.N,P100*%
X169410000Y-83870000D03*
%TO.P,MCU1,10*%
%TO.N,P011*%
X171950000Y-83870000D03*
%TO.P,MCU1,11*%
%TO.N,P104*%
X174490000Y-83870000D03*
%TO.P,MCU1,12*%
%TO.N,P106*%
X177030000Y-83870000D03*
%TO.P,MCU1,13*%
%TO.N,P009*%
X177030000Y-68630000D03*
%TO.P,MCU1,14*%
%TO.N,P010*%
X174490000Y-68630000D03*
%TO.P,MCU1,15*%
%TO.N,P111*%
X171950000Y-68630000D03*
%TO.P,MCU1,16*%
%TO.N,P113*%
X169410000Y-68630000D03*
%TO.P,MCU1,17*%
%TO.N,P115*%
X166870000Y-68630000D03*
%TO.P,MCU1,18*%
%TO.N,P002*%
X164330000Y-68630000D03*
%TO.P,MCU1,19*%
%TO.N,P029*%
X161790000Y-68630000D03*
%TO.P,MCU1,20*%
%TO.N,P031*%
X159250000Y-68630000D03*
%TO.P,MCU1,21*%
%TO.N,VCC*%
X156710000Y-68630000D03*
%TO.P,MCU1,22*%
%TO.N,RST*%
X154170000Y-68630000D03*
%TO.P,MCU1,23*%
%TO.N,GND*%
X151630000Y-68630000D03*
%TO.P,MCU1,24*%
%TO.N,RAW*%
X149090000Y-68630000D03*
%TD*%
D13*
%TO.P,S9,1*%
%TO.N,P024*%
X213585000Y-129950000D03*
%TO.P,S9,2*%
%TO.N,mirror_third_bottom*%
X202035000Y-127750000D03*
%TD*%
D14*
%TO.P,D13,1*%
%TO.N,P115*%
X198370000Y-114000000D03*
D15*
X196210000Y-114000000D03*
%TO.P,D13,2*%
%TO.N,mirror_fourth_bottom*%
X192910000Y-114000000D03*
D16*
X190750000Y-114000000D03*
%TD*%
D19*
%TO.P,D22,1*%
%TO.N,P115*%
X132864601Y-162519987D03*
D20*
X131883981Y-164444561D03*
%TO.P,D22,2*%
%TO.N,mirror_far_default*%
X130385813Y-167384883D03*
D16*
X129405193Y-169309457D03*
%TD*%
D13*
%TO.P,S5,1*%
%TO.N,P022*%
X232335000Y-136950000D03*
%TO.P,S5,2*%
%TO.N,mirror_second_bottom*%
X220785000Y-134750000D03*
%TD*%
%TO.P,S21,1*%
%TO.N,P017*%
X157335000Y-133950000D03*
%TO.P,S21,2*%
%TO.N,mirror_sixth_bottom*%
X145785000Y-131750000D03*
%TD*%
D14*
%TO.P,D9,1*%
%TO.N,P115*%
X217120000Y-119000000D03*
D15*
X214960000Y-119000000D03*
%TO.P,D9,2*%
%TO.N,mirror_third_bottom*%
X211660000Y-119000000D03*
D16*
X209500000Y-119000000D03*
%TD*%
D13*
%TO.P,S17,1*%
%TO.N,P011*%
X176085000Y-130950000D03*
%TO.P,S17,2*%
%TO.N,mirror_fifth_bottom*%
X164535000Y-128750000D03*
%TD*%
D21*
%TO.P,S25,1*%
%TO.N,P008*%
X141016267Y-170640891D03*
%TO.P,S25,2*%
%TO.N,mirror_far_default*%
X133812462Y-179933237D03*
%TD*%
D14*
%TO.P,D2,1*%
%TO.N,P002*%
X254620000Y-108250000D03*
D15*
X252460000Y-108250000D03*
%TO.P,D2,2*%
%TO.N,mirror_first_home*%
X249160000Y-108250000D03*
D16*
X247000000Y-108250000D03*
%TD*%
D14*
%TO.P,D7,1*%
%TO.N,P029*%
X235870000Y-90500000D03*
D15*
X233710000Y-90500000D03*
%TO.P,D7,2*%
%TO.N,mirror_second_top*%
X230410000Y-90500000D03*
D16*
X228250000Y-90500000D03*
%TD*%
D22*
%TO.P,S24,1*%
%TO.N,P006*%
X157118279Y-155362647D03*
%TO.P,S24,2*%
%TO.N,mirror_home_default*%
X146395204Y-160185320D03*
%TD*%
D14*
%TO.P,D18,1*%
%TO.N,P002*%
X179620000Y-102250000D03*
D15*
X177460000Y-102250000D03*
%TO.P,D18,2*%
%TO.N,mirror_fifth_home*%
X174160000Y-102250000D03*
D16*
X172000000Y-102250000D03*
%TD*%
D14*
%TO.P,D19,1*%
%TO.N,P115*%
X160870000Y-123000000D03*
D15*
X158710000Y-123000000D03*
%TO.P,D19,2*%
%TO.N,mirror_sixth_bottom*%
X155410000Y-123000000D03*
D16*
X153250000Y-123000000D03*
%TD*%
D13*
%TO.P,S13,1*%
%TO.N,P100*%
X194835000Y-124950000D03*
%TO.P,S13,2*%
%TO.N,mirror_fourth_bottom*%
X183285000Y-122750000D03*
%TD*%
D14*
%TO.P,D11,1*%
%TO.N,P029*%
X217120000Y-83500000D03*
D15*
X214960000Y-83500000D03*
%TO.P,D11,2*%
%TO.N,mirror_third_top*%
X211660000Y-83500000D03*
D16*
X209500000Y-83500000D03*
%TD*%
D13*
%TO.P,S12,1*%
%TO.N,P024*%
X213585000Y-76700000D03*
%TO.P,S12,2*%
%TO.N,mirror_third_num*%
X202035000Y-74500000D03*
%TD*%
%TO.P,S22,1*%
%TO.N,P017*%
X157335000Y-116200000D03*
%TO.P,S22,2*%
%TO.N,mirror_sixth_home*%
X145785000Y-114000000D03*
%TD*%
D14*
%TO.P,D17,1*%
%TO.N,P115*%
X179620000Y-120000000D03*
D15*
X177460000Y-120000000D03*
%TO.P,D17,2*%
%TO.N,mirror_fifth_bottom*%
X174160000Y-120000000D03*
D16*
X172000000Y-120000000D03*
%TD*%
D13*
%TO.P,S10,1*%
%TO.N,P024*%
X213585000Y-112200000D03*
%TO.P,S10,2*%
%TO.N,mirror_third_home*%
X202035000Y-110000000D03*
%TD*%
%TO.P,S6,1*%
%TO.N,P022*%
X232335000Y-119200000D03*
%TO.P,S6,2*%
%TO.N,mirror_second_home*%
X220785000Y-117000000D03*
%TD*%
D14*
%TO.P,D24,1*%
%TO.N,P031*%
X169000000Y-64750000D03*
D15*
X171160000Y-64750000D03*
%TO.P,D24,2*%
%TO.N,mirror_fifth_num*%
X174460000Y-64750000D03*
D16*
X176620000Y-64750000D03*
%TD*%
D14*
%TO.P,D23,1*%
%TO.N,P031*%
X162060000Y-72940000D03*
D23*
X162060000Y-75100000D03*
%TO.P,D23,2*%
%TO.N,mirror_sixth_num*%
X162060000Y-78400000D03*
D16*
X162060000Y-80560000D03*
%TD*%
D14*
%TO.P,D12,1*%
%TO.N,P031*%
X217120000Y-65750000D03*
D15*
X214960000Y-65750000D03*
%TO.P,D12,2*%
%TO.N,mirror_third_num*%
X211660000Y-65750000D03*
D16*
X209500000Y-65750000D03*
%TD*%
D14*
%TO.P,D8,1*%
%TO.N,P031*%
X235870000Y-72750000D03*
D15*
X233710000Y-72750000D03*
%TO.P,D8,2*%
%TO.N,mirror_second_num*%
X230410000Y-72750000D03*
D16*
X228250000Y-72750000D03*
%TD*%
D13*
%TO.P,S11,1*%
%TO.N,P024*%
X213585000Y-94450000D03*
%TO.P,S11,2*%
%TO.N,mirror_third_top*%
X202035000Y-92250000D03*
%TD*%
%TO.P,S18,1*%
%TO.N,P011*%
X176085000Y-113200000D03*
%TO.P,S18,2*%
%TO.N,mirror_fifth_home*%
X164535000Y-111000000D03*
%TD*%
D14*
%TO.P,D15,1*%
%TO.N,P029*%
X198370000Y-78500000D03*
D15*
X196210000Y-78500000D03*
%TO.P,D15,2*%
%TO.N,mirror_fourth_top*%
X192910000Y-78500000D03*
D16*
X190750000Y-78500000D03*
%TD*%
D24*
%TO.P,D21,1*%
%TO.N,P115*%
X153733319Y-144365339D03*
D25*
X151963951Y-145604264D03*
%TO.P,D21,2*%
%TO.N,mirror_home_default*%
X149260749Y-147497066D03*
D16*
X147491381Y-148735991D03*
%TD*%
D14*
%TO.P,D25,1*%
%TO.N,P029*%
X180510000Y-87690000D03*
D23*
X180510000Y-89850000D03*
%TO.P,D25,2*%
%TO.N,mirror_fifth_top*%
X180510000Y-93150000D03*
D16*
X180510000Y-95310000D03*
%TD*%
D14*
%TO.P,D4,1*%
%TO.N,P031*%
X254620000Y-72750000D03*
D15*
X252460000Y-72750000D03*
%TO.P,D4,2*%
%TO.N,mirror_first_num*%
X249160000Y-72750000D03*
D16*
X247000000Y-72750000D03*
%TD*%
D13*
%TO.P,S23,1*%
%TO.N,P017*%
X157335000Y-80700000D03*
%TO.P,S23,2*%
%TO.N,mirror_sixth_num*%
X145785000Y-78500000D03*
%TD*%
%TO.P,S20,1*%
%TO.N,P011*%
X176085000Y-77700000D03*
%TO.P,S20,2*%
%TO.N,mirror_fifth_num*%
X164535000Y-75500000D03*
%TD*%
%TO.P,S2,1*%
%TO.N,P020*%
X251085000Y-119200000D03*
%TO.P,S2,2*%
%TO.N,mirror_first_home*%
X239535000Y-117000000D03*
%TD*%
%TO.P,S8,1*%
%TO.N,P022*%
X232335000Y-83700000D03*
%TO.P,S8,2*%
%TO.N,mirror_second_num*%
X220785000Y-81500000D03*
%TD*%
D14*
%TO.P,D26,1*%
%TO.N,P029*%
X149060000Y-88690000D03*
D23*
X149060000Y-90850000D03*
%TO.P,D26,2*%
%TO.N,mirror_sixth_top*%
X149060000Y-94150000D03*
D16*
X149060000Y-96310000D03*
%TD*%
D26*
%TO.P,JST1,1*%
%TO.N,pos*%
X201560000Y-102250000D03*
D27*
%TO.P,JST1,2*%
%TO.N,GND*%
X201560000Y-100250000D03*
%TD*%
D28*
%TO.N,P011*%
X172000000Y-80000000D03*
%TO.N,mirror_sixth_num*%
X147500000Y-72500000D03*
X156000000Y-72500000D03*
%TO.N,P006*%
X148000000Y-140500000D03*
%TO.N,P002*%
X188000000Y-82500000D03*
X188500000Y-92500000D03*
%TO.N,pos*%
X148000000Y-103500000D03*
%TO.N,GND*%
X163500000Y-105000000D03*
%TD*%
D29*
%TO.N,P020*%
X171036650Y-74925000D02*
X162091650Y-83870000D01*
X162091650Y-83870000D02*
X161790000Y-83870000D01*
X201386104Y-59022500D02*
X189781024Y-59022500D01*
X189781024Y-59022500D02*
X180000000Y-68803524D01*
X180000000Y-74363604D02*
X179438604Y-74925000D01*
X251085000Y-119200000D02*
X251085000Y-101450000D01*
X250500000Y-68000000D02*
X224000000Y-68000000D01*
X204363604Y-62000000D02*
X201386104Y-59022500D01*
X251085000Y-68585000D02*
X250500000Y-68000000D01*
X218000000Y-62000000D02*
X204363604Y-62000000D01*
X251085000Y-101450000D02*
X251085000Y-83700000D01*
X251085000Y-83700000D02*
X251085000Y-68585000D01*
X224000000Y-68000000D02*
X218000000Y-62000000D01*
X179438604Y-74925000D02*
X171036650Y-74925000D01*
X251085000Y-136950000D02*
X251085000Y-119200000D01*
X180000000Y-68803524D02*
X180000000Y-74363604D01*
%TO.N,mirror_first_bottom*%
X247000000Y-126000000D02*
X249160000Y-126000000D01*
X245576316Y-126000000D02*
X247000000Y-126000000D01*
X239535000Y-132041316D02*
X245576316Y-126000000D01*
X239535000Y-134750000D02*
X239535000Y-132041316D01*
%TO.N,mirror_first_home*%
X239535000Y-117000000D02*
X239535000Y-114291316D01*
X249160000Y-108250000D02*
X247000000Y-108250000D01*
X245576316Y-108250000D02*
X247000000Y-108250000D01*
X239535000Y-114291316D02*
X245576316Y-108250000D01*
%TO.N,mirror_first_top*%
X247000000Y-90500000D02*
X249160000Y-90500000D01*
X239535000Y-99250000D02*
X239535000Y-96541316D01*
X239535000Y-96541316D02*
X245576316Y-90500000D01*
X245576316Y-90500000D02*
X247000000Y-90500000D01*
%TO.N,mirror_first_num*%
X239535000Y-81500000D02*
X239535000Y-78791316D01*
X239535000Y-78791316D02*
X245576316Y-72750000D01*
X245576316Y-72750000D02*
X247000000Y-72750000D01*
X247000000Y-72750000D02*
X249160000Y-72750000D01*
%TO.N,P022*%
X232335000Y-101450000D02*
X232335000Y-83700000D01*
X179625000Y-75375000D02*
X171223046Y-75375000D01*
X232335000Y-83700000D02*
X232335000Y-69835000D01*
X232335000Y-69835000D02*
X231000000Y-68500000D01*
X180500000Y-68939920D02*
X180500000Y-74500000D01*
X204177208Y-62450000D02*
X201199708Y-59472500D01*
X231000000Y-68500000D02*
X223863604Y-68500000D01*
X232335000Y-136950000D02*
X232335000Y-119200000D01*
X223863604Y-68500000D02*
X217813604Y-62450000D01*
X232335000Y-119200000D02*
X232335000Y-101450000D01*
X171223046Y-75375000D02*
X164330000Y-82268046D01*
X201199708Y-59472500D02*
X189967420Y-59472500D01*
X189967420Y-59472500D02*
X180500000Y-68939920D01*
X217813604Y-62450000D02*
X204177208Y-62450000D01*
X180500000Y-74500000D02*
X179625000Y-75375000D01*
X164330000Y-82268046D02*
X164330000Y-83870000D01*
%TO.N,mirror_second_bottom*%
X228250000Y-126000000D02*
X230410000Y-126000000D01*
X220785000Y-134750000D02*
X220785000Y-132041316D01*
X226826316Y-126000000D02*
X228250000Y-126000000D01*
X220785000Y-132041316D02*
X226826316Y-126000000D01*
%TO.N,mirror_second_home*%
X228250000Y-108250000D02*
X230410000Y-108250000D01*
X220785000Y-114291316D02*
X226826316Y-108250000D01*
X226826316Y-108250000D02*
X228250000Y-108250000D01*
X220785000Y-117000000D02*
X220785000Y-114291316D01*
%TO.N,mirror_second_top*%
X228250000Y-90500000D02*
X230410000Y-90500000D01*
X220785000Y-96541316D02*
X226826316Y-90500000D01*
X220785000Y-99250000D02*
X220785000Y-96541316D01*
X226826316Y-90500000D02*
X228250000Y-90500000D01*
%TO.N,mirror_second_num*%
X220785000Y-78791316D02*
X226826316Y-72750000D01*
X228250000Y-72750000D02*
X230410000Y-72750000D01*
X226826316Y-72750000D02*
X228250000Y-72750000D01*
X220785000Y-81500000D02*
X220785000Y-78791316D01*
%TO.N,P024*%
X213585000Y-112200000D02*
X213585000Y-94450000D01*
X189175000Y-69825000D02*
X183175000Y-75825000D01*
X196210000Y-69825000D02*
X189175000Y-69825000D01*
X213585000Y-76700000D02*
X211710000Y-78575000D01*
X197000000Y-70615000D02*
X196210000Y-69825000D01*
X183175000Y-75825000D02*
X171409442Y-75825000D01*
X211710000Y-78575000D02*
X201575000Y-78575000D01*
X166870000Y-80364442D02*
X166870000Y-83870000D01*
X201575000Y-78575000D02*
X197000000Y-74000000D01*
X213585000Y-129950000D02*
X213585000Y-112200000D01*
X213585000Y-94450000D02*
X213585000Y-76700000D01*
X197000000Y-74000000D02*
X197000000Y-70615000D01*
X171409442Y-75825000D02*
X166870000Y-80364442D01*
%TO.N,mirror_third_bottom*%
X202035000Y-125041316D02*
X208076316Y-119000000D01*
X202035000Y-127750000D02*
X202035000Y-125041316D01*
X208076316Y-119000000D02*
X209500000Y-119000000D01*
X211660000Y-119000000D02*
X209500000Y-119000000D01*
%TO.N,mirror_third_home*%
X202035000Y-110000000D02*
X202035000Y-107291316D01*
X202035000Y-107291316D02*
X208076316Y-101250000D01*
X208076316Y-101250000D02*
X209500000Y-101250000D01*
X209500000Y-101250000D02*
X211660000Y-101250000D01*
%TO.N,mirror_third_top*%
X208076316Y-83500000D02*
X209500000Y-83500000D01*
X202035000Y-89541316D02*
X208076316Y-83500000D01*
X209500000Y-83500000D02*
X211660000Y-83500000D01*
X202035000Y-92250000D02*
X202035000Y-89541316D01*
%TO.N,mirror_third_num*%
X209500000Y-65750000D02*
X211660000Y-65750000D01*
X202035000Y-66965000D02*
X203250000Y-65750000D01*
X202035000Y-74500000D02*
X202035000Y-66965000D01*
X203250000Y-65750000D02*
X209500000Y-65750000D01*
%TO.N,P100*%
X177500000Y-81500000D02*
X171780000Y-81500000D01*
X194835000Y-89450000D02*
X194835000Y-71700000D01*
X194835000Y-107200000D02*
X194835000Y-89450000D01*
X194835000Y-71700000D02*
X187960000Y-78575000D01*
X194835000Y-124950000D02*
X194835000Y-107200000D01*
X187960000Y-78575000D02*
X180425000Y-78575000D01*
X180425000Y-78575000D02*
X177500000Y-81500000D01*
X171780000Y-81500000D02*
X169410000Y-83870000D01*
%TO.N,mirror_fourth_bottom*%
X189326316Y-114000000D02*
X190750000Y-114000000D01*
X183285000Y-122750000D02*
X183285000Y-120041316D01*
X183285000Y-120041316D02*
X189326316Y-114000000D01*
X190750000Y-114000000D02*
X192910000Y-114000000D01*
%TO.N,mirror_fourth_home*%
X183285000Y-102291316D02*
X189326316Y-96250000D01*
X189326316Y-96250000D02*
X190750000Y-96250000D01*
X183285000Y-105000000D02*
X183285000Y-102291316D01*
X190750000Y-96250000D02*
X192910000Y-96250000D01*
%TO.N,mirror_fourth_top*%
X190750000Y-78500000D02*
X192910000Y-78500000D01*
X189326316Y-78500000D02*
X190750000Y-78500000D01*
X183285000Y-87250000D02*
X183285000Y-84541316D01*
X183285000Y-84541316D02*
X189326316Y-78500000D01*
%TO.N,mirror_fourth_num*%
X189326316Y-60750000D02*
X190750000Y-60750000D01*
X183285000Y-69500000D02*
X183285000Y-66791316D01*
X190750000Y-60750000D02*
X192910000Y-60750000D01*
X183285000Y-66791316D02*
X189326316Y-60750000D01*
%TO.N,P011*%
X182500000Y-97000000D02*
X177635000Y-97000000D01*
X171950000Y-83870000D02*
X171950000Y-85109275D01*
X178340725Y-91500000D02*
X181500000Y-91500000D01*
X176085000Y-113200000D02*
X176085000Y-95450000D01*
X172000000Y-80000000D02*
X173785000Y-80000000D01*
X176085000Y-130950000D02*
X176085000Y-113200000D01*
X173785000Y-80000000D02*
X176085000Y-77700000D01*
X177635000Y-97000000D02*
X176085000Y-95450000D01*
X171950000Y-85109275D02*
X178340725Y-91500000D01*
X182500000Y-92500000D02*
X182500000Y-97000000D01*
X181500000Y-91500000D02*
X182500000Y-92500000D01*
%TO.N,mirror_fifth_bottom*%
X174160000Y-120000000D02*
X172000000Y-120000000D01*
X164535000Y-128750000D02*
X164535000Y-126041316D01*
X170576316Y-120000000D02*
X172000000Y-120000000D01*
X164535000Y-126041316D02*
X170576316Y-120000000D01*
%TO.N,mirror_fifth_home*%
X172000000Y-102250000D02*
X174160000Y-102250000D01*
X170576316Y-102250000D02*
X172000000Y-102250000D01*
X164535000Y-108291316D02*
X170576316Y-102250000D01*
X164535000Y-111000000D02*
X164535000Y-108291316D01*
%TO.N,mirror_fifth_top*%
X178775000Y-93575000D02*
X180510000Y-95310000D01*
X168108350Y-96823350D02*
X171356700Y-93575000D01*
X171356700Y-93575000D02*
X178775000Y-93575000D01*
X164535000Y-93250000D02*
X168108350Y-96823350D01*
X180510000Y-93150000D02*
X180510000Y-95310000D01*
%TO.N,mirror_fifth_num*%
X179252208Y-74475000D02*
X179535900Y-74191308D01*
X166410000Y-73625000D02*
X170625000Y-73625000D01*
X164535000Y-75500000D02*
X166410000Y-73625000D01*
X179535900Y-74191308D02*
X179535900Y-67665900D01*
X170625000Y-73625000D02*
X171475000Y-74475000D01*
X179535900Y-67665900D02*
X176620000Y-64750000D01*
X174460000Y-64750000D02*
X176620000Y-64750000D01*
X171475000Y-74475000D02*
X179252208Y-74475000D01*
%TO.N,P017*%
X157335000Y-81955000D02*
X157335000Y-80700000D01*
X159250000Y-83870000D02*
X157335000Y-81955000D01*
X162084000Y-91299000D02*
X160010000Y-89225000D01*
X162084000Y-111451000D02*
X162084000Y-91299000D01*
X157335000Y-116200000D02*
X162084000Y-111451000D01*
X159250000Y-88465000D02*
X160010000Y-89225000D01*
X157335000Y-133950000D02*
X157335000Y-116200000D01*
X159250000Y-83870000D02*
X159250000Y-88465000D01*
%TO.N,mirror_sixth_bottom*%
X145785000Y-129041316D02*
X151826316Y-123000000D01*
X153250000Y-123000000D02*
X155410000Y-123000000D01*
X151826316Y-123000000D02*
X153250000Y-123000000D01*
X145785000Y-131750000D02*
X145785000Y-129041316D01*
%TO.N,mirror_sixth_home*%
X145785000Y-111291316D02*
X151826316Y-105250000D01*
X151826316Y-105250000D02*
X153250000Y-105250000D01*
X145785000Y-114000000D02*
X145785000Y-111291316D01*
X153250000Y-105250000D02*
X155410000Y-105250000D01*
%TO.N,mirror_sixth_num*%
X161210000Y-78400000D02*
X156000000Y-73190000D01*
X162060000Y-78400000D02*
X161210000Y-78400000D01*
X156000000Y-73190000D02*
X156000000Y-72500000D01*
X145785000Y-74215000D02*
X145785000Y-78500000D01*
X147500000Y-72500000D02*
X145785000Y-74215000D01*
X162060000Y-80560000D02*
X162060000Y-78400000D01*
%TO.N,P006*%
X148000000Y-140500000D02*
X155500000Y-140500000D01*
X155500000Y-140500000D02*
X157118279Y-142118279D01*
X157118279Y-142118279D02*
X157118279Y-155362647D01*
%TO.N,mirror_home_default*%
X145291540Y-150935832D02*
X147491381Y-148735991D01*
X146395204Y-160185320D02*
X145291540Y-159081656D01*
X148021824Y-148735991D02*
X149260749Y-147497066D01*
X145291540Y-159081656D02*
X145291540Y-150935832D01*
X147491381Y-148735991D02*
X148021824Y-148735991D01*
%TO.N,P008*%
X157862500Y-103972500D02*
X152467420Y-103972500D01*
X159685000Y-95170001D02*
X159685000Y-102150000D01*
X152467420Y-103972500D02*
X143500000Y-112939920D01*
X148500000Y-143500000D02*
X142000000Y-150000000D01*
X151630000Y-87115001D02*
X159685000Y-95170001D01*
X142000000Y-169657158D02*
X141016267Y-170640891D01*
X159685000Y-102150000D02*
X157862500Y-103972500D01*
X143500000Y-138500000D02*
X148500000Y-143500000D01*
X143500000Y-112939920D02*
X143500000Y-138500000D01*
X151630000Y-83870000D02*
X151630000Y-87115001D01*
X142000000Y-150000000D02*
X142000000Y-169657158D01*
%TO.N,mirror_far_default*%
X133812462Y-179933237D02*
X129405193Y-175525968D01*
X129405193Y-175525968D02*
X129405193Y-169309457D01*
X129405193Y-169309457D02*
X129405193Y-168365503D01*
X129405193Y-168365503D02*
X130385813Y-167384883D01*
%TO.N,mirror_sixth_top*%
X149060000Y-94150000D02*
X149060000Y-96310000D01*
X157810000Y-100775000D02*
X153525000Y-100775000D01*
X153525000Y-100775000D02*
X149060000Y-96310000D01*
%TO.N,P115*%
X185167128Y-63000000D02*
X189594628Y-58572500D01*
X254550000Y-67550000D02*
X256500000Y-69500000D01*
X233710000Y-126000000D02*
X235870000Y-126000000D01*
X256500000Y-69500000D02*
X256500000Y-124120000D01*
X131883981Y-163500607D02*
X132864601Y-162519987D01*
X152494394Y-145604264D02*
X153733319Y-144365339D01*
X131883981Y-164444561D02*
X131883981Y-163500607D01*
X214960000Y-119000000D02*
X217120000Y-119000000D01*
X189594628Y-58572500D02*
X201572500Y-58572500D01*
X204500000Y-61500000D02*
X218136396Y-61500000D01*
X252460000Y-126000000D02*
X254620000Y-126000000D01*
X158710000Y-123000000D02*
X160870000Y-123000000D01*
X168322000Y-63000000D02*
X185167128Y-63000000D01*
X166870000Y-68630000D02*
X166870000Y-64452000D01*
X256500000Y-124120000D02*
X254620000Y-126000000D01*
X177460000Y-120000000D02*
X179620000Y-120000000D01*
X201572500Y-58572500D02*
X204500000Y-61500000D01*
X224186396Y-67550000D02*
X254550000Y-67550000D01*
X196210000Y-114000000D02*
X198370000Y-114000000D01*
X218136396Y-61500000D02*
X224186396Y-67550000D01*
X166870000Y-64452000D02*
X168322000Y-63000000D01*
X151963951Y-145604264D02*
X152494394Y-145604264D01*
%TO.N,P002*%
X177460000Y-102250000D02*
X179620000Y-102250000D01*
X188500000Y-83000000D02*
X188500000Y-92500000D01*
X196210000Y-96250000D02*
X198370000Y-96250000D01*
X214960000Y-101250000D02*
X217120000Y-101250000D01*
X233710000Y-108250000D02*
X235870000Y-108250000D01*
X158710000Y-105250000D02*
X160870000Y-105250000D01*
X188000000Y-82500000D02*
X188500000Y-83000000D01*
X254620000Y-108250000D02*
X252460000Y-108250000D01*
%TO.N,P029*%
X180510000Y-89850000D02*
X180510000Y-87690000D01*
X196210000Y-78500000D02*
X198370000Y-78500000D01*
X149060000Y-88690000D02*
X149060000Y-90850000D01*
X233710000Y-90500000D02*
X235870000Y-90500000D01*
X214960000Y-83500000D02*
X217120000Y-83500000D01*
X252460000Y-90500000D02*
X254620000Y-90500000D01*
%TO.N,P031*%
X162060000Y-75100000D02*
X162060000Y-72940000D01*
X196210000Y-60750000D02*
X198370000Y-60750000D01*
X169000000Y-64750000D02*
X171160000Y-64750000D01*
X233710000Y-72750000D02*
X235870000Y-72750000D01*
X214960000Y-65750000D02*
X217120000Y-65750000D01*
X252460000Y-72750000D02*
X254620000Y-72750000D01*
%TO.N,pos*%
X148000000Y-103500000D02*
X148000000Y-103415000D01*
X148000000Y-103415000D02*
X145335000Y-100750000D01*
%TO.N,GND*%
X163500000Y-105000000D02*
X162534000Y-104034000D01*
X142210000Y-92325000D02*
X142435000Y-92100000D01*
X162534000Y-86450295D02*
X160451300Y-84367595D01*
X150000000Y-67000000D02*
X151630000Y-68630000D01*
X145185000Y-85685000D02*
X143000000Y-83500000D01*
X142210000Y-86850000D02*
X142210000Y-87075000D01*
X160451300Y-84367595D02*
X160451300Y-80566300D01*
X145500000Y-67000000D02*
X150000000Y-67000000D01*
X162534000Y-104034000D02*
X162534000Y-86450295D01*
X154170000Y-83870000D02*
X156710000Y-83870000D01*
X151630000Y-77500000D02*
X151630000Y-81330000D01*
X143110000Y-93500000D02*
X145185000Y-93500000D01*
X157385000Y-77500000D02*
X151630000Y-77500000D01*
X143000000Y-83500000D02*
X143000000Y-69500000D01*
X142210000Y-92325000D02*
X142210000Y-92600000D01*
X143000000Y-69500000D02*
X145500000Y-67000000D01*
X145185000Y-93500000D02*
X145185000Y-85685000D01*
X142435000Y-87300000D02*
X142210000Y-87075000D01*
X142435000Y-92100000D02*
X142435000Y-87300000D01*
X151630000Y-81330000D02*
X151630000Y-68630000D01*
X142210000Y-92600000D02*
X143110000Y-93500000D01*
X154170000Y-83870000D02*
X151630000Y-81330000D01*
X160451300Y-80566300D02*
X157385000Y-77500000D01*
%TO.N,RST*%
X145000000Y-66000000D02*
X142000000Y-69000000D01*
X143910000Y-87075000D02*
X143685000Y-87300000D01*
X154170000Y-68630000D02*
X151540000Y-66000000D01*
X143685000Y-87300000D02*
X143685000Y-92100000D01*
X142000000Y-84940000D02*
X143910000Y-86850000D01*
X142000000Y-69000000D02*
X142000000Y-84940000D01*
X143685000Y-92100000D02*
X143910000Y-92325000D01*
X143910000Y-86850000D02*
X143910000Y-87075000D01*
X151540000Y-66000000D02*
X145000000Y-66000000D01*
%TO.N,RAW*%
X151000000Y-70540000D02*
X149090000Y-68630000D01*
X147846000Y-82365650D02*
X151000000Y-79211650D01*
X147846000Y-95414000D02*
X147846000Y-82365650D01*
X145335000Y-97750000D02*
X145510000Y-97750000D01*
X151000000Y-79211650D02*
X151000000Y-70540000D01*
X145510000Y-97750000D02*
X147846000Y-95414000D01*
%TD*%
M02*
