%TF.GenerationSoftware,KiCad,Pcbnew,8.0.6*%
%TF.CreationDate,2024-11-04T13:33:36+01:00*%
%TF.ProjectId,right,72696768-742e-46b6-9963-61645f706362,v1.0.0*%
%TF.SameCoordinates,Original*%
%TF.FileFunction,Soldermask,Bot*%
%TF.FilePolarity,Negative*%
%FSLAX46Y46*%
G04 Gerber Fmt 4.6, Leading zero omitted, Abs format (unit mm)*
G04 Created by KiCad (PCBNEW 8.0.6) date 2024-11-04 13:33:36*
%MOMM*%
%LPD*%
G01*
G04 APERTURE LIST*
G04 Aperture macros list*
%AMRoundRect*
0 Rectangle with rounded corners*
0 $1 Rounding radius*
0 $2 $3 $4 $5 $6 $7 $8 $9 X,Y pos of 4 corners*
0 Add a 4 corners polygon primitive as box body*
4,1,4,$2,$3,$4,$5,$6,$7,$8,$9,$2,$3,0*
0 Add four circle primitives for the rounded corners*
1,1,$1+$1,$2,$3*
1,1,$1+$1,$4,$5*
1,1,$1+$1,$6,$7*
1,1,$1+$1,$8,$9*
0 Add four rect primitives between the rounded corners*
20,1,$1+$1,$2,$3,$4,$5,0*
20,1,$1+$1,$4,$5,$6,$7,0*
20,1,$1+$1,$6,$7,$8,$9,0*
20,1,$1+$1,$8,$9,$2,$3,0*%
G04 Aperture macros list end*
%ADD10RoundRect,0.050000X0.450000X-0.450000X0.450000X0.450000X-0.450000X0.450000X-0.450000X-0.450000X0*%
%ADD11C,1.100000*%
%ADD12RoundRect,0.050000X0.625000X-0.450000X0.625000X0.450000X-0.625000X0.450000X-0.625000X-0.450000X0*%
%ADD13C,1.801800*%
%ADD14C,3.100000*%
%ADD15C,3.529000*%
%ADD16RoundRect,0.050000X1.300000X1.300000X-1.300000X1.300000X-1.300000X-1.300000X1.300000X-1.300000X0*%
%ADD17RoundRect,0.050000X0.889000X0.889000X-0.889000X0.889000X-0.889000X-0.889000X0.889000X-0.889000X0*%
%ADD18RoundRect,0.050000X0.450000X0.600000X-0.450000X0.600000X-0.450000X-0.600000X0.450000X-0.600000X0*%
%ADD19C,2.005000*%
%ADD20RoundRect,0.050000X-1.300000X1.300000X-1.300000X-1.300000X1.300000X-1.300000X1.300000X1.300000X0*%
%ADD21C,4.100000*%
%ADD22C,0.850000*%
%ADD23RoundRect,0.050000X0.500000X-0.775000X0.500000X0.775000X-0.500000X0.775000X-0.500000X-0.775000X0*%
%ADD24C,1.852600*%
%ADD25RoundRect,0.050000X-0.388507X1.195702X-1.195702X-0.388507X0.388507X-1.195702X1.195702X0.388507X0*%
%ADD26RoundRect,0.050000X-0.330308X0.673347X-0.738900X-0.128559X0.330308X-0.673347X0.738900X0.128559X0*%
%ADD27RoundRect,0.050000X-0.568121X1.748496X-1.748496X-0.568121X0.568121X-1.748496X1.748496X0.568121X0*%
%ADD28RoundRect,0.050000X0.319248X1.810547X-1.810547X0.319248X-0.319248X-1.810547X1.810547X-0.319248X0*%
%ADD29RoundRect,0.050000X-0.889000X-0.889000X0.889000X-0.889000X0.889000X0.889000X-0.889000X0.889000X0*%
%ADD30RoundRect,0.050000X-0.450000X-0.600000X0.450000X-0.600000X0.450000X0.600000X-0.450000X0.600000X0*%
%ADD31RoundRect,0.050000X-0.889000X0.889000X-0.889000X-0.889000X0.889000X-0.889000X0.889000X0.889000X0*%
%ADD32RoundRect,0.050000X-0.600000X0.450000X-0.600000X-0.450000X0.600000X-0.450000X0.600000X0.450000X0*%
%ADD33RoundRect,0.050000X0.218317X1.238136X-1.238136X0.218317X-0.218317X-1.238136X1.238136X-0.218317X0*%
%ADD34RoundRect,0.050000X0.024473X0.749601X-0.712764X0.233382X-0.024473X-0.749601X0.712764X-0.233382X0*%
%ADD35RoundRect,0.050000X0.850000X-0.600000X0.850000X0.600000X-0.850000X0.600000X-0.850000X-0.600000X0*%
%ADD36O,1.800000X1.300000*%
G04 APERTURE END LIST*
D10*
%TO.C,T1*%
X142160000Y-102200000D03*
X144360000Y-102200000D03*
D11*
X143260000Y-100000000D03*
X143260000Y-97000000D03*
D10*
X142160000Y-94800000D03*
X144360000Y-94800000D03*
D12*
X145335000Y-100750000D03*
X145335000Y-97750000D03*
X145335000Y-96250000D03*
%TD*%
D13*
%TO.C,S4*%
X253310000Y-77750000D03*
D14*
X247810000Y-83700000D03*
D15*
X247810000Y-77750000D03*
D14*
X242810000Y-81500000D03*
D13*
X242310000Y-77750000D03*
D16*
X251085000Y-83700000D03*
X239535000Y-81500000D03*
%TD*%
D17*
%TO.C,D16*%
X198370000Y-60750000D03*
D18*
X196210000Y-60750000D03*
X192910000Y-60750000D03*
D19*
X190750000Y-60750000D03*
%TD*%
D13*
%TO.C,S26*%
X154060000Y-87000000D03*
D14*
X160010000Y-92500000D03*
D15*
X154060000Y-92500000D03*
D14*
X157810000Y-97500000D03*
D13*
X154060000Y-98000000D03*
D20*
X160010000Y-89225000D03*
X157810000Y-100775000D03*
%TD*%
D13*
%TO.C,S14*%
X197060000Y-101250000D03*
D14*
X191560000Y-107200000D03*
D15*
X191560000Y-101250000D03*
D14*
X186560000Y-105000000D03*
D13*
X186060000Y-101250000D03*
D16*
X194835000Y-107200000D03*
X183285000Y-105000000D03*
%TD*%
D17*
%TO.C,D6*%
X235870000Y-108250000D03*
D18*
X233710000Y-108250000D03*
X230410000Y-108250000D03*
D19*
X228250000Y-108250000D03*
%TD*%
D21*
%TO.C,*%
X238810000Y-121750000D03*
%TD*%
D17*
%TO.C,D3*%
X254620000Y-90500000D03*
D18*
X252460000Y-90500000D03*
X249160000Y-90500000D03*
D19*
X247000000Y-90500000D03*
%TD*%
D13*
%TO.C,S3*%
X253310000Y-95500000D03*
D14*
X247810000Y-101450000D03*
D15*
X247810000Y-95500000D03*
D14*
X242810000Y-99250000D03*
D13*
X242310000Y-95500000D03*
D16*
X251085000Y-101450000D03*
X239535000Y-99250000D03*
%TD*%
D22*
%TO.C,B1*%
X141685000Y-89700000D03*
X144435000Y-89700000D03*
D23*
X142210000Y-92325000D03*
X142210000Y-87075000D03*
X143910000Y-92325000D03*
X143910000Y-87075000D03*
%TD*%
D13*
%TO.C,S16*%
X197060000Y-65750000D03*
D14*
X191560000Y-71700000D03*
D15*
X191560000Y-65750000D03*
D14*
X186560000Y-69500000D03*
D13*
X186060000Y-65750000D03*
D16*
X194835000Y-71700000D03*
X183285000Y-69500000D03*
%TD*%
D13*
%TO.C,S19*%
X178310000Y-89500000D03*
D14*
X172810000Y-95450000D03*
D15*
X172810000Y-89500000D03*
D14*
X167810000Y-93250000D03*
D13*
X167310000Y-89500000D03*
D16*
X176085000Y-95450000D03*
X164535000Y-93250000D03*
%TD*%
D17*
%TO.C,D20*%
X160870000Y-105250000D03*
D18*
X158710000Y-105250000D03*
X155410000Y-105250000D03*
D19*
X153250000Y-105250000D03*
%TD*%
D17*
%TO.C,D5*%
X235870000Y-126000000D03*
D18*
X233710000Y-126000000D03*
X230410000Y-126000000D03*
D19*
X228250000Y-126000000D03*
%TD*%
D17*
%TO.C,D10*%
X217120000Y-101250000D03*
D18*
X214960000Y-101250000D03*
X211660000Y-101250000D03*
D19*
X209500000Y-101250000D03*
%TD*%
D13*
%TO.C,S1*%
X253310000Y-131000000D03*
D14*
X247810000Y-136950000D03*
D15*
X247810000Y-131000000D03*
D14*
X242810000Y-134750000D03*
D13*
X242310000Y-131000000D03*
D16*
X251085000Y-136950000D03*
X239535000Y-134750000D03*
%TD*%
D13*
%TO.C,S7*%
X234560000Y-95500000D03*
D14*
X229060000Y-101450000D03*
D15*
X229060000Y-95500000D03*
D14*
X224060000Y-99250000D03*
D13*
X223560000Y-95500000D03*
D16*
X232335000Y-101450000D03*
X220785000Y-99250000D03*
%TD*%
D13*
%TO.C,S15*%
X197060000Y-83500000D03*
D14*
X191560000Y-89450000D03*
D15*
X191560000Y-83500000D03*
D14*
X186560000Y-87250000D03*
D13*
X186060000Y-83500000D03*
D16*
X194835000Y-89450000D03*
X183285000Y-87250000D03*
%TD*%
D17*
%TO.C,D14*%
X198370000Y-96250000D03*
D18*
X196210000Y-96250000D03*
X192910000Y-96250000D03*
D19*
X190750000Y-96250000D03*
%TD*%
D17*
%TO.C,D1*%
X254620000Y-126000000D03*
D18*
X252460000Y-126000000D03*
X249160000Y-126000000D03*
D19*
X247000000Y-126000000D03*
%TD*%
D24*
%TO.C,MCU1*%
X149090000Y-83870000D03*
X151630000Y-83870000D03*
X154170000Y-83870000D03*
X156710000Y-83870000D03*
X159250000Y-83870000D03*
X161790000Y-83870000D03*
X164330000Y-83870000D03*
X166870000Y-83870000D03*
X169410000Y-83870000D03*
X171950000Y-83870000D03*
X174490000Y-83870000D03*
X177030000Y-83870000D03*
X177030000Y-68630000D03*
X174490000Y-68630000D03*
X171950000Y-68630000D03*
X169410000Y-68630000D03*
X166870000Y-68630000D03*
X164330000Y-68630000D03*
X161790000Y-68630000D03*
X159250000Y-68630000D03*
X156710000Y-68630000D03*
X154170000Y-68630000D03*
X151630000Y-68630000D03*
X149090000Y-68630000D03*
%TD*%
D13*
%TO.C,S9*%
X215810000Y-124000000D03*
D14*
X210310000Y-129950000D03*
D15*
X210310000Y-124000000D03*
D14*
X205310000Y-127750000D03*
D13*
X204810000Y-124000000D03*
D16*
X213585000Y-129950000D03*
X202035000Y-127750000D03*
%TD*%
D17*
%TO.C,D13*%
X198370000Y-114000000D03*
D18*
X196210000Y-114000000D03*
X192910000Y-114000000D03*
D19*
X190750000Y-114000000D03*
%TD*%
D25*
%TO.C,D22*%
X132864601Y-162519987D03*
D26*
X131883981Y-164444561D03*
X130385813Y-167384883D03*
D19*
X129405193Y-169309457D03*
%TD*%
D13*
%TO.C,S5*%
X234560000Y-131000000D03*
D14*
X229060000Y-136950000D03*
D15*
X229060000Y-131000000D03*
D14*
X224060000Y-134750000D03*
D13*
X223560000Y-131000000D03*
D16*
X232335000Y-136950000D03*
X220785000Y-134750000D03*
%TD*%
D13*
%TO.C,S21*%
X159560000Y-128000000D03*
D14*
X154060000Y-133950000D03*
D15*
X154060000Y-128000000D03*
D14*
X149060000Y-131750000D03*
D13*
X148560000Y-128000000D03*
D16*
X157335000Y-133950000D03*
X145785000Y-131750000D03*
%TD*%
D17*
%TO.C,D9*%
X217120000Y-119000000D03*
D18*
X214960000Y-119000000D03*
X211660000Y-119000000D03*
D19*
X209500000Y-119000000D03*
%TD*%
D21*
%TO.C,*%
X181810000Y-81000000D03*
%TD*%
D13*
%TO.C,S17*%
X178310000Y-125000000D03*
D14*
X172810000Y-130950000D03*
D15*
X172810000Y-125000000D03*
D14*
X167810000Y-128750000D03*
D13*
X167310000Y-125000000D03*
D16*
X176085000Y-130950000D03*
X164535000Y-128750000D03*
%TD*%
D13*
%TO.C,S25*%
X136724907Y-165957158D03*
D14*
X139529448Y-173558937D03*
D15*
X134227959Y-170857694D03*
D14*
X135299281Y-177015191D03*
D13*
X131731011Y-175758230D03*
D27*
X141016267Y-170640891D03*
X133812462Y-179933237D03*
%TD*%
D17*
%TO.C,D2*%
X254620000Y-108250000D03*
D18*
X252460000Y-108250000D03*
X249160000Y-108250000D03*
D19*
X247000000Y-108250000D03*
%TD*%
D17*
%TO.C,D7*%
X235870000Y-90500000D03*
D18*
X233710000Y-90500000D03*
X230410000Y-90500000D03*
D19*
X228250000Y-90500000D03*
%TD*%
D13*
%TO.C,S24*%
X155528112Y-149212485D03*
D14*
X154435556Y-157241110D03*
D15*
X151022776Y-152367155D03*
D14*
X149077927Y-158306857D03*
D13*
X146517440Y-155521825D03*
D28*
X157118279Y-155362647D03*
X146395204Y-160185320D03*
%TD*%
D17*
%TO.C,D18*%
X179620000Y-102250000D03*
D18*
X177460000Y-102250000D03*
X174160000Y-102250000D03*
D19*
X172000000Y-102250000D03*
%TD*%
D17*
%TO.C,D19*%
X160870000Y-123000000D03*
D18*
X158710000Y-123000000D03*
X155410000Y-123000000D03*
D19*
X153250000Y-123000000D03*
%TD*%
D13*
%TO.C,S13*%
X197060000Y-119000000D03*
D14*
X191560000Y-124950000D03*
D15*
X191560000Y-119000000D03*
D14*
X186560000Y-122750000D03*
D13*
X186060000Y-119000000D03*
D16*
X194835000Y-124950000D03*
X183285000Y-122750000D03*
%TD*%
D17*
%TO.C,D11*%
X217120000Y-83500000D03*
D18*
X214960000Y-83500000D03*
X211660000Y-83500000D03*
D19*
X209500000Y-83500000D03*
%TD*%
D13*
%TO.C,S12*%
X215810000Y-70750000D03*
D14*
X210310000Y-76700000D03*
D15*
X210310000Y-70750000D03*
D14*
X205310000Y-74500000D03*
D13*
X204810000Y-70750000D03*
D16*
X213585000Y-76700000D03*
X202035000Y-74500000D03*
%TD*%
D13*
%TO.C,S22*%
X159560000Y-110250000D03*
D14*
X154060000Y-116200000D03*
D15*
X154060000Y-110250000D03*
D14*
X149060000Y-114000000D03*
D13*
X148560000Y-110250000D03*
D16*
X157335000Y-116200000D03*
X145785000Y-114000000D03*
%TD*%
D21*
%TO.C,*%
X238060000Y-86250000D03*
%TD*%
D17*
%TO.C,D17*%
X179620000Y-120000000D03*
D18*
X177460000Y-120000000D03*
X174160000Y-120000000D03*
D19*
X172000000Y-120000000D03*
%TD*%
D13*
%TO.C,S10*%
X215810000Y-106250000D03*
D14*
X210310000Y-112200000D03*
D15*
X210310000Y-106250000D03*
D14*
X205310000Y-110000000D03*
D13*
X204810000Y-106250000D03*
D16*
X213585000Y-112200000D03*
X202035000Y-110000000D03*
%TD*%
D13*
%TO.C,S6*%
X234560000Y-113250000D03*
D14*
X229060000Y-119200000D03*
D15*
X229060000Y-113250000D03*
D14*
X224060000Y-117000000D03*
D13*
X223560000Y-113250000D03*
D16*
X232335000Y-119200000D03*
X220785000Y-117000000D03*
%TD*%
D29*
%TO.C,D24*%
X169000000Y-64750000D03*
D30*
X171160000Y-64750000D03*
X174460000Y-64750000D03*
D19*
X176620000Y-64750000D03*
%TD*%
D31*
%TO.C,D23*%
X162060000Y-72940000D03*
D32*
X162060000Y-75100000D03*
X162060000Y-78400000D03*
D19*
X162060000Y-80560000D03*
%TD*%
D17*
%TO.C,D12*%
X217120000Y-65750000D03*
D18*
X214960000Y-65750000D03*
X211660000Y-65750000D03*
D19*
X209500000Y-65750000D03*
%TD*%
D17*
%TO.C,D8*%
X235870000Y-72750000D03*
D18*
X233710000Y-72750000D03*
X230410000Y-72750000D03*
D19*
X228250000Y-72750000D03*
%TD*%
D13*
%TO.C,S11*%
X215810000Y-88500000D03*
D14*
X210310000Y-94450000D03*
D15*
X210310000Y-88500000D03*
D14*
X205310000Y-92250000D03*
D13*
X204810000Y-88500000D03*
D16*
X213585000Y-94450000D03*
X202035000Y-92250000D03*
%TD*%
D13*
%TO.C,S18*%
X178310000Y-107250000D03*
D14*
X172810000Y-113200000D03*
D15*
X172810000Y-107250000D03*
D14*
X167810000Y-111000000D03*
D13*
X167310000Y-107250000D03*
D16*
X176085000Y-113200000D03*
X164535000Y-111000000D03*
%TD*%
D17*
%TO.C,D15*%
X198370000Y-78500000D03*
D18*
X196210000Y-78500000D03*
X192910000Y-78500000D03*
D19*
X190750000Y-78500000D03*
%TD*%
D33*
%TO.C,D21*%
X153733319Y-144365339D03*
D34*
X151963951Y-145604264D03*
X149260749Y-147497066D03*
D19*
X147491381Y-148735991D03*
%TD*%
D31*
%TO.C,D25*%
X180510000Y-87690000D03*
D32*
X180510000Y-89850000D03*
X180510000Y-93150000D03*
D19*
X180510000Y-95310000D03*
%TD*%
D21*
%TO.C,*%
X163060000Y-119500000D03*
%TD*%
D17*
%TO.C,D4*%
X254620000Y-72750000D03*
D18*
X252460000Y-72750000D03*
X249160000Y-72750000D03*
D19*
X247000000Y-72750000D03*
%TD*%
D13*
%TO.C,S23*%
X159560000Y-74750000D03*
D14*
X154060000Y-80700000D03*
D15*
X154060000Y-74750000D03*
D14*
X149060000Y-78500000D03*
D13*
X148560000Y-74750000D03*
D16*
X157335000Y-80700000D03*
X145785000Y-78500000D03*
%TD*%
D13*
%TO.C,S20*%
X178310000Y-71750000D03*
D14*
X172810000Y-77700000D03*
D15*
X172810000Y-71750000D03*
D14*
X167810000Y-75500000D03*
D13*
X167310000Y-71750000D03*
D16*
X176085000Y-77700000D03*
X164535000Y-75500000D03*
%TD*%
D13*
%TO.C,S2*%
X253310000Y-113250000D03*
D14*
X247810000Y-119200000D03*
D15*
X247810000Y-113250000D03*
D14*
X242810000Y-117000000D03*
D13*
X242310000Y-113250000D03*
D16*
X251085000Y-119200000D03*
X239535000Y-117000000D03*
%TD*%
D13*
%TO.C,S8*%
X234560000Y-77750000D03*
D14*
X229060000Y-83700000D03*
D15*
X229060000Y-77750000D03*
D14*
X224060000Y-81500000D03*
D13*
X223560000Y-77750000D03*
D16*
X232335000Y-83700000D03*
X220785000Y-81500000D03*
%TD*%
D31*
%TO.C,D26*%
X149060000Y-88690000D03*
D32*
X149060000Y-90850000D03*
X149060000Y-94150000D03*
D19*
X149060000Y-96310000D03*
%TD*%
D35*
%TO.C,JST1*%
X201560000Y-102250000D03*
D36*
X201560000Y-100250000D03*
%TD*%
M02*
