%TF.GenerationSoftware,KiCad,Pcbnew,8.0.6*%
%TF.CreationDate,2024-11-04T13:33:36+01:00*%
%TF.ProjectId,right,72696768-742e-46b6-9963-61645f706362,v1.0.0*%
%TF.SameCoordinates,Original*%
%TF.FileFunction,Profile,NP*%
%FSLAX46Y46*%
G04 Gerber Fmt 4.6, Leading zero omitted, Abs format (unit mm)*
G04 Created by KiCad (PCBNEW 8.0.6) date 2024-11-04 13:33:36*
%MOMM*%
%LPD*%
G01*
G04 APERTURE LIST*
%TA.AperFunction,Profile*%
%ADD10C,0.150000*%
%TD*%
G04 APERTURE END LIST*
D10*
X177560000Y-59250000D02*
X160810000Y-59250000D01*
X118079507Y-177219887D02*
G75*
G02*
X117642515Y-175874903I453993J890987D01*
G01*
X139917654Y-187224653D02*
X149169083Y-169067701D01*
X223310000Y-64250000D02*
X223310000Y-59250000D01*
X149169083Y-169067701D02*
G75*
G02*
X149486513Y-168702539I891017J-453999D01*
G01*
X133777670Y-150403400D02*
X137610951Y-155877892D01*
X260810000Y-142500000D02*
G75*
G02*
X259810000Y-143500000I-1000000J0D01*
G01*
X167060000Y-139500000D02*
X167060000Y-138500000D01*
X137610952Y-155877891D02*
G75*
G02*
X136337787Y-157342516I-819152J-573609D01*
G01*
X203560000Y-53250000D02*
G75*
G02*
X204560000Y-54250000I0J-1000000D01*
G01*
X128538263Y-154490734D02*
X117642491Y-175874891D01*
X168060000Y-137500000D02*
X184810000Y-137500000D01*
X141060000Y-63250000D02*
G75*
G02*
X142060000Y-62250000I1000000J0D01*
G01*
X259810000Y-65250000D02*
G75*
G02*
X260810000Y-66250000I0J-1000000D01*
G01*
X168267881Y-154330909D02*
G75*
G02*
X168022321Y-155723660I-819181J-573591D01*
G01*
X141060000Y-139500000D02*
X141060000Y-63250000D01*
X185810000Y-136500000D02*
G75*
G02*
X184810000Y-137500000I-1000000J0D01*
G01*
X216060000Y-137500000D02*
X216060000Y-142500000D01*
X128538262Y-154490734D02*
G75*
G02*
X129883284Y-154053671I891038J-453966D01*
G01*
X118079507Y-177219888D02*
X138572657Y-187661669D01*
X133777670Y-150403399D02*
G75*
G02*
X134023231Y-149010649I819130J573599D01*
G01*
X198310000Y-136500000D02*
X215060000Y-136500000D01*
X167060000Y-139500000D02*
G75*
G02*
X166060000Y-140500000I-1000000J0D01*
G01*
X222310000Y-58250000D02*
G75*
G02*
X223310000Y-59250000I0J-1000000D01*
G01*
X143579726Y-142319152D02*
X134023246Y-149010671D01*
X139917654Y-187224654D02*
G75*
G02*
X138572620Y-187661741I-891054J453954D01*
G01*
X185810000Y-136500000D02*
X185810000Y-132500000D01*
X159685204Y-142073576D02*
G75*
G02*
X160504356Y-140499964I819196J573576D01*
G01*
X159810000Y-60250000D02*
X159810000Y-61250000D01*
X178560000Y-58250000D02*
G75*
G02*
X177560000Y-59250000I-1000000J0D01*
G01*
X205560000Y-58250000D02*
G75*
G02*
X204560000Y-57250000I0J1000000D01*
G01*
X196310000Y-131500000D02*
G75*
G02*
X197310000Y-132500000I0J-1000000D01*
G01*
X143006149Y-140500000D02*
G75*
G02*
X143579710Y-142319129I-49J-1000000D01*
G01*
X224310000Y-65250000D02*
X259810000Y-65250000D01*
X217060000Y-143500000D02*
X259810000Y-143500000D01*
X185810000Y-132500000D02*
G75*
G02*
X186810000Y-131500000I1000000J0D01*
G01*
X159810000Y-61250000D02*
G75*
G02*
X158810000Y-62250000I-1000000J0D01*
G01*
X159810000Y-60250000D02*
G75*
G02*
X160810000Y-59250000I1000000J0D01*
G01*
X160504356Y-140500000D02*
X166060000Y-140500000D01*
X217060000Y-143500000D02*
G75*
G02*
X216060000Y-142500000I0J1000000D01*
G01*
X142060000Y-140500000D02*
G75*
G02*
X141060000Y-139500000I0J1000000D01*
G01*
X167060000Y-138500000D02*
G75*
G02*
X168060000Y-137500000I1000000J0D01*
G01*
X186810000Y-131500000D02*
X196310000Y-131500000D01*
X215060000Y-136500000D02*
G75*
G02*
X216060000Y-137500000I0J-1000000D01*
G01*
X178560000Y-54250000D02*
G75*
G02*
X179560000Y-53250000I1000000J0D01*
G01*
X198310000Y-136500000D02*
G75*
G02*
X197310000Y-135500000I0J1000000D01*
G01*
X136337808Y-157342475D02*
X129883260Y-154053718D01*
X142060000Y-140500000D02*
X143006149Y-140500000D01*
X260810000Y-142500000D02*
X260810000Y-66250000D01*
X158810000Y-62250000D02*
X142060000Y-62250000D01*
X168267881Y-154330910D02*
X159685204Y-142073576D01*
X222310000Y-58250000D02*
X205560000Y-58250000D01*
X178560000Y-54250000D02*
X178560000Y-58250000D01*
X203560000Y-53250000D02*
X179560000Y-53250000D01*
X224310000Y-65250000D02*
G75*
G02*
X223310000Y-64250000I0J1000000D01*
G01*
X204560000Y-57250000D02*
X204560000Y-54250000D01*
X149486513Y-168702539D02*
X168022306Y-155723638D01*
X197310000Y-132500000D02*
X197310000Y-135500000D01*
M02*
