%TF.GenerationSoftware,KiCad,Pcbnew,8.0.6*%
%TF.CreationDate,2024-11-04T13:33:36+01:00*%
%TF.ProjectId,right,72696768-742e-46b6-9963-61645f706362,v1.0.0*%
%TF.SameCoordinates,Original*%
%TF.FileFunction,Paste,Top*%
%TF.FilePolarity,Positive*%
%FSLAX46Y46*%
G04 Gerber Fmt 4.6, Leading zero omitted, Abs format (unit mm)*
G04 Created by KiCad (PCBNEW 8.0.6) date 2024-11-04 13:33:36*
%MOMM*%
%LPD*%
G01*
G04 APERTURE LIST*
G04 Aperture macros list*
%AMRotRect*
0 Rectangle, with rotation*
0 The origin of the aperture is its center*
0 $1 length*
0 $2 width*
0 $3 Rotation angle, in degrees counterclockwise*
0 Add horizontal line*
21,1,$1,$2,0,0,$3*%
G04 Aperture macros list end*
%ADD10R,0.900000X1.200000*%
%ADD11RotRect,0.900000X1.200000X243.000000*%
%ADD12R,1.200000X0.900000*%
%ADD13RotRect,0.900000X1.200000X215.000000*%
G04 APERTURE END LIST*
D10*
%TO.C,D16*%
X196210000Y-60750000D03*
X192910000Y-60750000D03*
%TD*%
%TO.C,D6*%
X233710000Y-108250000D03*
X230410000Y-108250000D03*
%TD*%
%TO.C,D3*%
X252460000Y-90500000D03*
X249160000Y-90500000D03*
%TD*%
%TO.C,D20*%
X158710000Y-105250000D03*
X155410000Y-105250000D03*
%TD*%
%TO.C,D5*%
X233710000Y-126000000D03*
X230410000Y-126000000D03*
%TD*%
%TO.C,D10*%
X214960000Y-101250000D03*
X211660000Y-101250000D03*
%TD*%
%TO.C,D14*%
X196210000Y-96250000D03*
X192910000Y-96250000D03*
%TD*%
%TO.C,D1*%
X252460000Y-126000000D03*
X249160000Y-126000000D03*
%TD*%
%TO.C,D13*%
X196210000Y-114000000D03*
X192910000Y-114000000D03*
%TD*%
D11*
%TO.C,D22*%
X131883981Y-164444561D03*
X130385813Y-167384883D03*
%TD*%
D10*
%TO.C,D9*%
X214960000Y-119000000D03*
X211660000Y-119000000D03*
%TD*%
%TO.C,D2*%
X252460000Y-108250000D03*
X249160000Y-108250000D03*
%TD*%
%TO.C,D7*%
X233710000Y-90500000D03*
X230410000Y-90500000D03*
%TD*%
%TO.C,D18*%
X177460000Y-102250000D03*
X174160000Y-102250000D03*
%TD*%
%TO.C,D19*%
X158710000Y-123000000D03*
X155410000Y-123000000D03*
%TD*%
%TO.C,D11*%
X214960000Y-83500000D03*
X211660000Y-83500000D03*
%TD*%
%TO.C,D17*%
X177460000Y-120000000D03*
X174160000Y-120000000D03*
%TD*%
%TO.C,D24*%
X171160000Y-64750000D03*
X174460000Y-64750000D03*
%TD*%
D12*
%TO.C,D23*%
X162060000Y-75100000D03*
X162060000Y-78400000D03*
%TD*%
D10*
%TO.C,D12*%
X214960000Y-65750000D03*
X211660000Y-65750000D03*
%TD*%
%TO.C,D8*%
X233710000Y-72750000D03*
X230410000Y-72750000D03*
%TD*%
%TO.C,D15*%
X196210000Y-78500000D03*
X192910000Y-78500000D03*
%TD*%
D13*
%TO.C,D21*%
X151963951Y-145604264D03*
X149260749Y-147497066D03*
%TD*%
D12*
%TO.C,D25*%
X180510000Y-89850000D03*
X180510000Y-93150000D03*
%TD*%
D10*
%TO.C,D4*%
X252460000Y-72750000D03*
X249160000Y-72750000D03*
%TD*%
D12*
%TO.C,D26*%
X149060000Y-90850000D03*
X149060000Y-94150000D03*
%TD*%
M02*
