M48
; DRILL file {KiCad 8.0.6} date 2024-11-04T13:33:32+0100
; FORMAT={-:-/ absolute / inch / decimal}
; #@! TF.CreationDate,2024-11-04T13:33:32+01:00
; #@! TF.GenerationSoftware,Kicad,Pcbnew,8.0.6
; #@! TF.FileFunction,Plated,1,2,PTH
FMAT,2
INCH
; #@! TA.AperFunction,Plated,PTH,ViaDrill
T1C0.0157
; #@! TA.AperFunction,Plated,PTH,ComponentDrill
T2C0.0295
; #@! TA.AperFunction,Plated,PTH,ComponentDrill
T3C0.0390
; #@! TA.AperFunction,Plated,PTH,ComponentDrill
T4C0.0430
%
G90
G05
T1
X5.8071Y-2.8543
X5.8268Y-4.0748
X5.8268Y-5.5315
X6.1417Y-2.8543
X6.437Y-4.1339
X6.7717Y-3.1496
X7.4016Y-3.248
X7.4213Y-3.6417
T2
X7.9354Y-3.9469
X7.9354Y-4.0256
T3
X5.0947Y-6.6657
X5.2309Y-6.3984
X5.8067Y-5.8557
X5.8685Y-3.4917
X5.8685Y-3.7917
X6.0335Y-4.1437
X6.0335Y-4.8425
X6.0525Y-5.6837
X6.3335Y-4.1437
X6.3335Y-4.8425
X6.3803Y-2.8717
X6.3803Y-3.1717
X6.6535Y-2.5492
X6.7717Y-4.0256
X6.7717Y-4.7244
X6.9535Y-2.5492
X7.0717Y-4.0256
X7.0717Y-4.7244
X7.1067Y-3.4524
X7.1067Y-3.7524
X7.5098Y-2.3917
X7.5098Y-3.0906
X7.5098Y-3.7894
X7.5098Y-4.4882
X7.8098Y-2.3917
X7.8098Y-3.0906
X7.8098Y-3.7894
X7.8098Y-4.4882
X8.248Y-2.5886
X8.248Y-3.2874
X8.248Y-3.9862
X8.248Y-4.685
X8.548Y-2.5886
X8.548Y-3.2874
X8.548Y-3.9862
X8.548Y-4.685
X8.9862Y-2.8642
X8.9862Y-3.563
X8.9862Y-4.2618
X8.9862Y-4.9606
X9.2862Y-2.8642
X9.2862Y-3.563
X9.2862Y-4.2618
X9.2862Y-4.9606
X9.7244Y-2.8642
X9.7244Y-3.563
X9.7244Y-4.2618
X9.7244Y-4.9606
X10.0244Y-2.8642
X10.0244Y-3.563
X10.0244Y-4.2618
X10.0244Y-4.9606
T4
X5.8697Y-2.702
X5.8697Y-3.302
X5.9697Y-2.702
X5.9697Y-3.302
X6.0697Y-2.702
X6.0697Y-3.302
X6.1697Y-2.702
X6.1697Y-3.302
X6.2697Y-2.702
X6.2697Y-3.302
X6.3697Y-2.702
X6.3697Y-3.302
X6.4697Y-2.702
X6.4697Y-3.302
X6.5697Y-2.702
X6.5697Y-3.302
X6.6697Y-2.702
X6.6697Y-3.302
X6.7697Y-2.702
X6.7697Y-3.302
X6.8697Y-2.702
X6.8697Y-3.302
X6.9697Y-2.702
X6.9697Y-3.302
M30
