M48
; DRILL file {KiCad 8.0.6} date 2024-11-04T13:33:32+0100
; FORMAT={-:-/ absolute / inch / decimal}
; #@! TF.CreationDate,2024-11-04T13:33:32+01:00
; #@! TF.GenerationSoftware,Kicad,Pcbnew,8.0.6
; #@! TF.FileFunction,NonPlated,1,2,NPTH
FMAT,2
INCH
; #@! TA.AperFunction,NonPlated,NPTH,ComponentDrill
T1C0.0295
; #@! TA.AperFunction,NonPlated,NPTH,ComponentDrill
T2C0.0354
; #@! TA.AperFunction,NonPlated,NPTH,ComponentDrill
T3C0.0670
; #@! TA.AperFunction,NonPlated,NPTH,ComponentDrill
T4C0.1181
; #@! TA.AperFunction,NonPlated,NPTH,ComponentDrill
T5C0.1350
; #@! TA.AperFunction,NonPlated,NPTH,ComponentDrill
T6C0.1575
%
G90
G05
T1
X5.5781Y-3.5315
X5.6864Y-3.5315
T2
X5.6402Y-3.8189
X5.6402Y-3.937
T3
X5.1863Y-6.9196
X5.3829Y-6.5337
X5.7684Y-6.1229
X5.8488Y-2.9429
X5.8488Y-4.3406
X5.8488Y-5.0394
X6.0654Y-3.4252
X6.0654Y-3.8583
X6.1232Y-5.8745
X6.2819Y-2.9429
X6.2819Y-4.3406
X6.2819Y-5.0394
X6.587Y-2.8248
X6.587Y-3.5236
X6.587Y-4.2224
X6.587Y-4.9213
X7.0201Y-2.8248
X7.0201Y-3.5236
X7.0201Y-4.2224
X7.0201Y-4.9213
X7.3252Y-2.5886
X7.3252Y-3.2874
X7.3252Y-3.9862
X7.3252Y-4.685
X7.7583Y-2.5886
X7.7583Y-3.2874
X7.7583Y-3.9862
X7.7583Y-4.685
X8.0634Y-2.7854
X8.0634Y-3.4843
X8.0634Y-4.1831
X8.0634Y-4.8819
X8.4965Y-2.7854
X8.4965Y-3.4843
X8.4965Y-4.1831
X8.4965Y-4.8819
X8.8016Y-3.061
X8.8016Y-3.7598
X8.8016Y-4.4587
X8.8016Y-5.1575
X9.2346Y-3.061
X9.2346Y-3.7598
X9.2346Y-4.4587
X9.2346Y-5.1575
X9.5398Y-3.061
X9.5398Y-3.7598
X9.5398Y-4.4587
X9.5398Y-5.1575
X9.9728Y-3.061
X9.9728Y-3.7598
X9.9728Y-4.4587
X9.9728Y-5.1575
T4
X5.3267Y-6.9691
X5.4933Y-6.833
X5.8685Y-3.0906
X5.8685Y-4.4882
X5.8685Y-5.187
X5.8692Y-6.2326
X6.0654Y-3.1772
X6.0654Y-4.5748
X6.0654Y-5.2736
X6.0801Y-6.1906
X6.213Y-3.8386
X6.2996Y-3.6417
X6.6067Y-2.9724
X6.6067Y-3.6713
X6.6067Y-4.3701
X6.6067Y-5.0689
X6.8035Y-3.0591
X6.8035Y-3.7579
X6.8035Y-4.4567
X6.8035Y-5.1555
X7.3449Y-2.7362
X7.3449Y-3.435
X7.3449Y-4.1339
X7.3449Y-4.8327
X7.5417Y-2.8228
X7.5417Y-3.5217
X7.5417Y-4.2205
X7.5417Y-4.9193
X8.0831Y-2.9331
X8.0831Y-3.6319
X8.0831Y-4.3307
X8.0831Y-5.0295
X8.2799Y-3.0197
X8.2799Y-3.7185
X8.2799Y-4.4173
X8.2799Y-5.1161
X8.8213Y-3.2087
X8.8213Y-3.9075
X8.8213Y-4.6063
X8.8213Y-5.3051
X9.0181Y-3.2953
X9.0181Y-3.9941
X9.0181Y-4.6929
X9.0181Y-5.3917
X9.5594Y-3.2087
X9.5594Y-3.9075
X9.5594Y-4.6063
X9.5594Y-5.3051
X9.7563Y-3.2953
X9.7563Y-3.9941
X9.7563Y-4.6929
X9.7563Y-5.3917
T5
X5.2846Y-6.7267
X5.9458Y-5.9987
X6.0654Y-2.9429
X6.0654Y-3.6417
X6.0654Y-4.3406
X6.0654Y-5.0394
X6.8035Y-2.8248
X6.8035Y-3.5236
X6.8035Y-4.2224
X6.8035Y-4.9213
X7.5417Y-2.5886
X7.5417Y-3.2874
X7.5417Y-3.9862
X7.5417Y-4.685
X8.2799Y-2.7854
X8.2799Y-3.4843
X8.2799Y-4.1831
X8.2799Y-4.8819
X9.0181Y-3.061
X9.0181Y-3.7598
X9.0181Y-4.4587
X9.0181Y-5.1575
X9.7563Y-3.061
X9.7563Y-3.7598
X9.7563Y-4.4587
X9.7563Y-5.1575
T6
X6.4197Y-4.7047
X7.1579Y-3.189
X9.3724Y-3.3957
X9.402Y-4.7933
M30
