M48
; DRILL file {KiCad 8.0.6} date 2024-11-04T13:34:21+0100
; FORMAT={-:-/ absolute / inch / decimal}
; #@! TF.CreationDate,2024-11-04T13:34:21+01:00
; #@! TF.GenerationSoftware,Kicad,Pcbnew,8.0.6
; #@! TF.FileFunction,NonPlated,1,2,NPTH
FMAT,2
INCH
; #@! TA.AperFunction,NonPlated,NPTH,ComponentDrill
T1C0.0295
; #@! TA.AperFunction,NonPlated,NPTH,ComponentDrill
T2C0.0354
; #@! TA.AperFunction,NonPlated,NPTH,ComponentDrill
T3C0.0670
; #@! TA.AperFunction,NonPlated,NPTH,ComponentDrill
T4C0.1181
; #@! TA.AperFunction,NonPlated,NPTH,ComponentDrill
T5C0.1350
; #@! TA.AperFunction,NonPlated,NPTH,ComponentDrill
T6C0.1575
%
G90
G05
T1
X9.6388Y-4.4
X9.747Y-4.4
T2
X9.7638Y-4.6874
X9.7638Y-4.8055
T3
X5.4311Y-3.9295
X5.4311Y-4.6283
X5.4311Y-5.3272
X5.4311Y-6.026
X5.8642Y-3.9295
X5.8642Y-4.6283
X5.8642Y-5.3272
X5.8642Y-6.026
X6.1693Y-3.9295
X6.1693Y-4.6283
X6.1693Y-5.3272
X6.1693Y-6.026
X6.6024Y-3.9295
X6.6024Y-4.6283
X6.6024Y-5.3272
X6.6024Y-6.026
X6.9075Y-3.6539
X6.9075Y-4.3528
X6.9075Y-5.0516
X6.9075Y-5.7504
X7.3406Y-3.6539
X7.3406Y-4.3528
X7.3406Y-5.0516
X7.3406Y-5.7504
X7.6457Y-3.4571
X7.6457Y-4.1559
X7.6457Y-4.8547
X7.6457Y-5.5535
X8.0787Y-3.4571
X8.0787Y-4.1559
X8.0787Y-4.8547
X8.0787Y-5.5535
X8.3839Y-3.6933
X8.3839Y-4.3921
X8.3839Y-5.0909
X8.3839Y-5.7898
X8.8169Y-3.6933
X8.8169Y-4.3921
X8.8169Y-5.0909
X8.8169Y-5.7898
X9.122Y-3.8114
X9.122Y-4.5102
X9.122Y-5.2091
X9.122Y-5.9079
X9.2808Y-6.743
X9.5551Y-3.8114
X9.5551Y-4.5102
X9.5551Y-5.2091
X9.5551Y-5.9079
X9.6355Y-6.9914
X10.0211Y-7.4023
X10.2177Y-7.7881
T4
X5.4508Y-4.0772
X5.4508Y-4.776
X5.4508Y-5.4748
X5.4508Y-6.1736
X5.6476Y-4.1638
X5.6476Y-4.8626
X5.6476Y-5.5614
X5.6476Y-6.2602
X6.189Y-4.0772
X6.189Y-4.776
X6.189Y-5.4748
X6.189Y-6.1736
X6.3858Y-4.1638
X6.3858Y-4.8626
X6.3858Y-5.5614
X6.3858Y-6.2602
X6.9272Y-3.8016
X6.9272Y-4.5004
X6.9272Y-5.1992
X6.9272Y-5.898
X7.124Y-3.8882
X7.124Y-4.587
X7.124Y-5.2858
X7.124Y-5.9846
X7.6654Y-3.6047
X7.6654Y-4.3035
X7.6654Y-5.0024
X7.6654Y-5.7012
X7.8622Y-3.6913
X7.8622Y-4.3902
X7.8622Y-5.089
X7.8622Y-5.7878
X8.4035Y-3.8409
X8.4035Y-4.5398
X8.4035Y-5.2386
X8.4035Y-5.9374
X8.6004Y-3.9276
X8.6004Y-4.6264
X8.6004Y-5.3252
X8.6004Y-6.024
X9.1417Y-3.9591
X9.1417Y-4.6579
X9.1417Y-5.3567
X9.1417Y-6.0555
X9.2122Y-6.8752
X9.3238Y-7.0591
X9.3386Y-4.0457
X9.3386Y-4.7445
X9.3386Y-5.4433
X9.3386Y-6.1421
X9.8985Y-7.4868
X9.9107Y-7.7015
T5
X5.6476Y-3.9295
X5.6476Y-4.6283
X5.6476Y-5.3272
X5.6476Y-6.026
X6.3858Y-3.9295
X6.3858Y-4.6283
X6.3858Y-5.3272
X6.3858Y-6.026
X7.124Y-3.6539
X7.124Y-4.3528
X7.124Y-5.0516
X7.124Y-5.7504
X7.8622Y-3.4571
X7.8622Y-4.1559
X7.8622Y-4.8547
X7.8622Y-5.5535
X8.6004Y-3.6933
X8.6004Y-4.3921
X8.6004Y-5.0909
X8.6004Y-5.7898
X9.3386Y-3.8114
X9.3386Y-4.5102
X9.3386Y-5.2091
X9.3386Y-5.9079
X9.4582Y-6.8672
X10.1194Y-7.5952
T6
X6.002Y-5.6618
X6.0315Y-4.2642
X7.5079Y-5.2189
X8.2461Y-4.0575
X8.9843Y-5.5732
M30
