%TF.GenerationSoftware,KiCad,Pcbnew,8.0.6*%
%TF.CreationDate,2024-11-04T13:34:25+01:00*%
%TF.ProjectId,left,6c656674-2e6b-4696-9361-645f70636258,v1.0.0*%
%TF.SameCoordinates,Original*%
%TF.FileFunction,Soldermask,Bot*%
%TF.FilePolarity,Negative*%
%FSLAX46Y46*%
G04 Gerber Fmt 4.6, Leading zero omitted, Abs format (unit mm)*
G04 Created by KiCad (PCBNEW 8.0.6) date 2024-11-04 13:34:25*
%MOMM*%
%LPD*%
G01*
G04 APERTURE LIST*
G04 Aperture macros list*
%AMRoundRect*
0 Rectangle with rounded corners*
0 $1 Rounding radius*
0 $2 $3 $4 $5 $6 $7 $8 $9 X,Y pos of 4 corners*
0 Add a 4 corners polygon primitive as box body*
4,1,4,$2,$3,$4,$5,$6,$7,$8,$9,$2,$3,0*
0 Add four circle primitives for the rounded corners*
1,1,$1+$1,$2,$3*
1,1,$1+$1,$4,$5*
1,1,$1+$1,$6,$7*
1,1,$1+$1,$8,$9*
0 Add four rect primitives between the rounded corners*
20,1,$1+$1,$2,$3,$4,$5,0*
20,1,$1+$1,$4,$5,$6,$7,0*
20,1,$1+$1,$6,$7,$8,$9,0*
20,1,$1+$1,$8,$9,$2,$3,0*%
G04 Aperture macros list end*
%ADD10RoundRect,0.050000X-0.450000X0.450000X-0.450000X-0.450000X0.450000X-0.450000X0.450000X0.450000X0*%
%ADD11C,1.100000*%
%ADD12RoundRect,0.050000X-0.625000X0.450000X-0.625000X-0.450000X0.625000X-0.450000X0.625000X0.450000X0*%
%ADD13C,1.801800*%
%ADD14C,3.100000*%
%ADD15C,3.529000*%
%ADD16RoundRect,0.050000X1.300000X1.300000X-1.300000X1.300000X-1.300000X-1.300000X1.300000X-1.300000X0*%
%ADD17RoundRect,0.050000X0.889000X-0.889000X0.889000X0.889000X-0.889000X0.889000X-0.889000X-0.889000X0*%
%ADD18RoundRect,0.050000X0.600000X-0.450000X0.600000X0.450000X-0.600000X0.450000X-0.600000X-0.450000X0*%
%ADD19C,2.005000*%
%ADD20C,1.852600*%
%ADD21RoundRect,0.050000X0.850000X-0.600000X0.850000X0.600000X-0.850000X0.600000X-0.850000X-0.600000X0*%
%ADD22O,1.800000X1.300000*%
%ADD23C,0.850000*%
%ADD24RoundRect,0.050000X-0.500000X0.775000X-0.500000X-0.775000X0.500000X-0.775000X0.500000X0.775000X0*%
%ADD25C,4.100000*%
%ADD26RoundRect,0.050000X1.810547X0.319248X-0.319248X1.810547X-1.810547X-0.319248X0.319248X-1.810547X0*%
%ADD27RoundRect,0.050000X-0.388507X-1.195702X1.195702X-0.388507X0.388507X1.195702X-1.195702X0.388507X0*%
%ADD28RoundRect,0.050000X-0.128559X-0.738900X0.673347X-0.330308X0.128559X0.738900X-0.673347X0.330308X0*%
%ADD29RoundRect,0.050000X1.748496X-0.568121X0.568121X1.748496X-1.748496X0.568121X-0.568121X-1.748496X0*%
%ADD30RoundRect,0.050000X0.218317X-1.238136X1.238136X0.218317X-0.218317X1.238136X-1.238136X-0.218317X0*%
%ADD31RoundRect,0.050000X0.233382X-0.712764X0.749601X0.024473X-0.233382X0.712764X-0.749601X-0.024473X0*%
G04 APERTURE END LIST*
D10*
%TO.C,T1*%
X249100000Y-116860000D03*
X246900000Y-116860000D03*
D11*
X248000000Y-119060000D03*
X248000000Y-122060000D03*
D10*
X249100000Y-124260000D03*
X246900000Y-124260000D03*
D12*
X245925000Y-118310000D03*
X245925000Y-121310000D03*
X245925000Y-122810000D03*
%TD*%
D13*
%TO.C,S23*%
X242700000Y-114560000D03*
D14*
X237200000Y-120510000D03*
D15*
X237200000Y-114560000D03*
D14*
X232200000Y-118310000D03*
D13*
X231700000Y-114560000D03*
D16*
X240475000Y-120510000D03*
X228925000Y-118310000D03*
%TD*%
D17*
%TO.C,D8*%
X188750000Y-117870000D03*
D18*
X188750000Y-115710000D03*
X188750000Y-112410000D03*
D19*
X188750000Y-110250000D03*
%TD*%
D13*
%TO.C,S20*%
X223950000Y-93810000D03*
D14*
X218450000Y-99760000D03*
D15*
X218450000Y-93810000D03*
D14*
X213450000Y-97560000D03*
D13*
X212950000Y-93810000D03*
D16*
X221725000Y-99760000D03*
X210175000Y-97560000D03*
%TD*%
D13*
%TO.C,S17*%
X223950000Y-147060000D03*
D14*
X218450000Y-153010000D03*
D15*
X218450000Y-147060000D03*
D14*
X213450000Y-150810000D03*
D13*
X212950000Y-147060000D03*
D16*
X221725000Y-153010000D03*
X210175000Y-150810000D03*
%TD*%
D17*
%TO.C,D17*%
X245000000Y-157370000D03*
D18*
X245000000Y-155210000D03*
X245000000Y-151910000D03*
D19*
X245000000Y-149750000D03*
%TD*%
D13*
%TO.C,S12*%
X186450000Y-92810000D03*
D14*
X180950000Y-98760000D03*
D15*
X180950000Y-92810000D03*
D14*
X175950000Y-96560000D03*
D13*
X175450000Y-92810000D03*
D16*
X184225000Y-98760000D03*
X172675000Y-96560000D03*
%TD*%
D13*
%TO.C,S7*%
X167700000Y-117560000D03*
D14*
X162200000Y-123510000D03*
D15*
X162200000Y-117560000D03*
D14*
X157200000Y-121310000D03*
D13*
X156700000Y-117560000D03*
D16*
X165475000Y-123510000D03*
X153925000Y-121310000D03*
%TD*%
D13*
%TO.C,S5*%
X167700000Y-153060000D03*
D14*
X162200000Y-159010000D03*
D15*
X162200000Y-153060000D03*
D14*
X157200000Y-156810000D03*
D13*
X156700000Y-153060000D03*
D16*
X165475000Y-159010000D03*
X153925000Y-156810000D03*
%TD*%
D17*
%TO.C,D16*%
X226250000Y-101120000D03*
D18*
X226250000Y-98960000D03*
X226250000Y-95660000D03*
D19*
X226250000Y-93500000D03*
%TD*%
D17*
%TO.C,D1*%
X151250000Y-160370000D03*
D18*
X151250000Y-158210000D03*
X151250000Y-154910000D03*
D19*
X151250000Y-152750000D03*
%TD*%
D17*
%TO.C,D9*%
X188750000Y-100120000D03*
D18*
X188750000Y-97960000D03*
X188750000Y-94660000D03*
D19*
X188750000Y-92500000D03*
%TD*%
D13*
%TO.C,S22*%
X242700000Y-132310000D03*
D14*
X237200000Y-138260000D03*
D15*
X237200000Y-132310000D03*
D14*
X232200000Y-136060000D03*
D13*
X231700000Y-132310000D03*
D16*
X240475000Y-138260000D03*
X228925000Y-136060000D03*
%TD*%
D17*
%TO.C,D11*%
X207500000Y-130620000D03*
D18*
X207500000Y-128460000D03*
X207500000Y-125160000D03*
D19*
X207500000Y-123000000D03*
%TD*%
D13*
%TO.C,S14*%
X205200000Y-123310000D03*
D14*
X199700000Y-129260000D03*
D15*
X199700000Y-123310000D03*
D14*
X194700000Y-127060000D03*
D13*
X194200000Y-123310000D03*
D16*
X202975000Y-129260000D03*
X191425000Y-127060000D03*
%TD*%
D20*
%TO.C,MCU1*%
X242170000Y-90690000D03*
X239630000Y-90690000D03*
X237090000Y-90690000D03*
X234550000Y-90690000D03*
X232010000Y-90690000D03*
X229470000Y-90690000D03*
X226930000Y-90690000D03*
X224390000Y-90690000D03*
X221850000Y-90690000D03*
X219310000Y-90690000D03*
X216770000Y-90690000D03*
X214230000Y-90690000D03*
X214230000Y-105930000D03*
X216770000Y-105930000D03*
X219310000Y-105930000D03*
X221850000Y-105930000D03*
X224390000Y-105930000D03*
X226930000Y-105930000D03*
X229470000Y-105930000D03*
X232010000Y-105930000D03*
X234550000Y-105930000D03*
X237090000Y-105930000D03*
X239630000Y-105930000D03*
X242170000Y-105930000D03*
%TD*%
D17*
%TO.C,D3*%
X170000000Y-160370000D03*
D18*
X170000000Y-158210000D03*
X170000000Y-154910000D03*
D19*
X170000000Y-152750000D03*
%TD*%
D21*
%TO.C,JST1*%
X192700000Y-118810000D03*
D22*
X192700000Y-116810000D03*
%TD*%
D13*
%TO.C,S15*%
X205200000Y-105560000D03*
D14*
X199700000Y-111510000D03*
D15*
X199700000Y-105560000D03*
D14*
X194700000Y-109310000D03*
D13*
X194200000Y-105560000D03*
D16*
X202975000Y-111510000D03*
X191425000Y-109310000D03*
%TD*%
D17*
%TO.C,D7*%
X188750000Y-153370000D03*
D18*
X188750000Y-151210000D03*
X188750000Y-147910000D03*
D19*
X188750000Y-145750000D03*
%TD*%
D17*
%TO.C,D4*%
X170000000Y-142620000D03*
D18*
X170000000Y-140460000D03*
X170000000Y-137160000D03*
D19*
X170000000Y-135000000D03*
%TD*%
D17*
%TO.C,D5*%
X170000000Y-124870000D03*
D18*
X170000000Y-122710000D03*
X170000000Y-119410000D03*
D19*
X170000000Y-117250000D03*
%TD*%
D23*
%TO.C,B1*%
X247575000Y-111760000D03*
X244825000Y-111760000D03*
D24*
X247050000Y-109135000D03*
X247050000Y-114385000D03*
X245350000Y-109135000D03*
X245350000Y-114385000D03*
%TD*%
D13*
%TO.C,S10*%
X186450000Y-128310000D03*
D14*
X180950000Y-134260000D03*
D15*
X180950000Y-128310000D03*
D14*
X175950000Y-132060000D03*
D13*
X175450000Y-128310000D03*
D16*
X184225000Y-134260000D03*
X172675000Y-132060000D03*
%TD*%
D17*
%TO.C,D2*%
X151250000Y-124870000D03*
D18*
X151250000Y-122710000D03*
X151250000Y-119410000D03*
D19*
X151250000Y-117250000D03*
%TD*%
D25*
%TO.C,*%
X228200000Y-141560000D03*
%TD*%
D17*
%TO.C,D21*%
X245000000Y-134370000D03*
D18*
X245000000Y-132210000D03*
X245000000Y-128910000D03*
D19*
X245000000Y-126750000D03*
%TD*%
D17*
%TO.C,D23*%
X151250000Y-135620000D03*
D18*
X151250000Y-133460000D03*
X151250000Y-130160000D03*
D19*
X151250000Y-128000000D03*
%TD*%
D13*
%TO.C,S21*%
X242700000Y-150060000D03*
D14*
X237200000Y-156010000D03*
D15*
X237200000Y-150060000D03*
D14*
X232200000Y-153810000D03*
D13*
X231700000Y-150060000D03*
D16*
X240475000Y-156010000D03*
X228925000Y-153810000D03*
%TD*%
D17*
%TO.C,D6*%
X170000000Y-107120000D03*
D18*
X170000000Y-104960000D03*
X170000000Y-101660000D03*
D19*
X170000000Y-99500000D03*
%TD*%
D25*
%TO.C,*%
X190700000Y-132560000D03*
%TD*%
%TO.C,*%
X153200000Y-108310000D03*
%TD*%
D17*
%TO.C,D25*%
X188750000Y-128620000D03*
D18*
X188750000Y-126460000D03*
X188750000Y-123160000D03*
D19*
X188750000Y-121000000D03*
%TD*%
D13*
%TO.C,S3*%
X148950000Y-117560000D03*
D14*
X143450000Y-123510000D03*
D15*
X143450000Y-117560000D03*
D14*
X138450000Y-121310000D03*
D13*
X137950000Y-117560000D03*
D16*
X146725000Y-123510000D03*
X135175000Y-121310000D03*
%TD*%
D13*
%TO.C,S25*%
X244742560Y-177581825D03*
D14*
X236824444Y-179301110D03*
D15*
X240237224Y-174427155D03*
D14*
X233990552Y-174631093D03*
D13*
X235731888Y-171272485D03*
D26*
X239507167Y-181179572D03*
X231307829Y-172752630D03*
%TD*%
D17*
%TO.C,D24*%
X151250000Y-100120000D03*
D18*
X151250000Y-97960000D03*
X151250000Y-94660000D03*
D19*
X151250000Y-92500000D03*
%TD*%
D25*
%TO.C,*%
X152450000Y-143810000D03*
%TD*%
D13*
%TO.C,S8*%
X167700000Y-99810000D03*
D14*
X162200000Y-105760000D03*
D15*
X162200000Y-99810000D03*
D14*
X157200000Y-103560000D03*
D13*
X156700000Y-99810000D03*
D16*
X165475000Y-105760000D03*
X153925000Y-103560000D03*
%TD*%
D17*
%TO.C,D14*%
X226250000Y-136620000D03*
D18*
X226250000Y-134460000D03*
X226250000Y-131160000D03*
D19*
X226250000Y-129000000D03*
%TD*%
D13*
%TO.C,S4*%
X148950000Y-99810000D03*
D14*
X143450000Y-105760000D03*
D15*
X143450000Y-99810000D03*
D14*
X138450000Y-103560000D03*
D13*
X137950000Y-99810000D03*
D16*
X146725000Y-105760000D03*
X135175000Y-103560000D03*
%TD*%
D17*
%TO.C,D22*%
X245000000Y-145620000D03*
D18*
X245000000Y-143460000D03*
X245000000Y-140160000D03*
D19*
X245000000Y-138000000D03*
%TD*%
D13*
%TO.C,S11*%
X186450000Y-110560000D03*
D14*
X180950000Y-116510000D03*
D15*
X180950000Y-110560000D03*
D14*
X175950000Y-114310000D03*
D13*
X175450000Y-110560000D03*
D16*
X184225000Y-116510000D03*
X172675000Y-114310000D03*
%TD*%
D17*
%TO.C,D18*%
X245000000Y-104120000D03*
D18*
X245000000Y-101960000D03*
X245000000Y-98660000D03*
D19*
X245000000Y-96500000D03*
%TD*%
D13*
%TO.C,S2*%
X148950000Y-135310000D03*
D14*
X143450000Y-141260000D03*
D15*
X143450000Y-135310000D03*
D14*
X138450000Y-139060000D03*
D13*
X137950000Y-135310000D03*
D16*
X146725000Y-141260000D03*
X135175000Y-139060000D03*
%TD*%
D13*
%TO.C,S9*%
X186450000Y-146060000D03*
D14*
X180950000Y-152010000D03*
D15*
X180950000Y-146060000D03*
D14*
X175950000Y-149810000D03*
D13*
X175450000Y-146060000D03*
D16*
X184225000Y-152010000D03*
X172675000Y-149810000D03*
%TD*%
D13*
%TO.C,S13*%
X205200000Y-141060000D03*
D14*
X199700000Y-147010000D03*
D15*
X199700000Y-141060000D03*
D14*
X194700000Y-144810000D03*
D13*
X194200000Y-141060000D03*
D16*
X202975000Y-147010000D03*
X191425000Y-144810000D03*
%TD*%
D17*
%TO.C,D26*%
X207500000Y-113870000D03*
D18*
X207500000Y-111710000D03*
X207500000Y-108410000D03*
D19*
X207500000Y-106250000D03*
%TD*%
D17*
%TO.C,D12*%
X207500000Y-95120000D03*
D18*
X207500000Y-92960000D03*
X207500000Y-89660000D03*
D19*
X207500000Y-87500000D03*
%TD*%
D27*
%TO.C,D20*%
X254059910Y-203186215D03*
D28*
X255984484Y-202205595D03*
X258924806Y-200707427D03*
D19*
X260849380Y-199726807D03*
%TD*%
D17*
%TO.C,D15*%
X226250000Y-118870000D03*
D18*
X226250000Y-116710000D03*
X226250000Y-113410000D03*
D19*
X226250000Y-111250000D03*
%TD*%
D13*
%TO.C,S16*%
X205200000Y-87810000D03*
D14*
X199700000Y-93760000D03*
D15*
X199700000Y-87810000D03*
D14*
X194700000Y-91560000D03*
D13*
X194200000Y-87810000D03*
D16*
X202975000Y-93760000D03*
X191425000Y-91560000D03*
%TD*%
D25*
%TO.C,*%
X209450000Y-103060000D03*
%TD*%
D13*
%TO.C,S26*%
X259528990Y-197818230D03*
D15*
X257032042Y-192917694D03*
D14*
X251730553Y-195618937D03*
X251420815Y-190165126D03*
D13*
X254535094Y-188017158D03*
D29*
X253217372Y-198536984D03*
X249933996Y-187247079D03*
%TD*%
D13*
%TO.C,S24*%
X242700000Y-96810000D03*
D14*
X237200000Y-102760000D03*
D15*
X237200000Y-96810000D03*
D14*
X232200000Y-100560000D03*
D13*
X231700000Y-96810000D03*
D16*
X240475000Y-102760000D03*
X228925000Y-100560000D03*
%TD*%
D17*
%TO.C,D10*%
X207500000Y-148370000D03*
D18*
X207500000Y-146210000D03*
X207500000Y-142910000D03*
D19*
X207500000Y-140750000D03*
%TD*%
D13*
%TO.C,S1*%
X148950000Y-153060000D03*
D14*
X143450000Y-159010000D03*
D15*
X143450000Y-153060000D03*
D14*
X138450000Y-156810000D03*
D13*
X137950000Y-153060000D03*
D16*
X146725000Y-159010000D03*
X135175000Y-156810000D03*
%TD*%
D17*
%TO.C,D13*%
X226250000Y-154370000D03*
D18*
X226250000Y-152210000D03*
X226250000Y-148910000D03*
D19*
X226250000Y-146750000D03*
%TD*%
D13*
%TO.C,S6*%
X167700000Y-135310000D03*
D14*
X162200000Y-141260000D03*
D15*
X162200000Y-135310000D03*
D14*
X157200000Y-139060000D03*
D13*
X156700000Y-135310000D03*
D16*
X165475000Y-141260000D03*
X153925000Y-139060000D03*
%TD*%
D30*
%TO.C,D19*%
X242433767Y-184889052D03*
D31*
X243672692Y-183119684D03*
X245565494Y-180416482D03*
D19*
X246804419Y-178647114D03*
%TD*%
D13*
%TO.C,S19*%
X223950000Y-111560000D03*
D14*
X218450000Y-117510000D03*
D15*
X218450000Y-111560000D03*
D14*
X213450000Y-115310000D03*
D13*
X212950000Y-111560000D03*
D16*
X221725000Y-117510000D03*
X210175000Y-115310000D03*
%TD*%
D13*
%TO.C,S18*%
X223950000Y-129310000D03*
D14*
X218450000Y-135260000D03*
D15*
X218450000Y-129310000D03*
D14*
X213450000Y-133060000D03*
D13*
X212950000Y-129310000D03*
D16*
X221725000Y-135260000D03*
X210175000Y-133060000D03*
%TD*%
M02*
