%TF.GenerationSoftware,KiCad,Pcbnew,8.0.6*%
%TF.CreationDate,2024-11-04T13:34:25+01:00*%
%TF.ProjectId,left,6c656674-2e6b-4696-9361-645f70636258,v1.0.0*%
%TF.SameCoordinates,Original*%
%TF.FileFunction,Legend,Top*%
%TF.FilePolarity,Positive*%
%FSLAX46Y46*%
G04 Gerber Fmt 4.6, Leading zero omitted, Abs format (unit mm)*
G04 Created by KiCad (PCBNEW 8.0.6) date 2024-11-04 13:34:25*
%MOMM*%
%LPD*%
G01*
G04 APERTURE LIST*
%ADD10C,0.150000*%
%ADD11C,0.300000*%
%ADD12C,0.100000*%
%ADD13C,0.381000*%
%ADD14C,1.752600*%
%ADD15C,4.000000*%
G04 APERTURE END LIST*
D10*
X234150390Y-93458523D02*
X234112295Y-93534713D01*
X234112295Y-93534713D02*
X234112295Y-93648999D01*
X234112295Y-93648999D02*
X234150390Y-93763285D01*
X234150390Y-93763285D02*
X234226580Y-93839475D01*
X234226580Y-93839475D02*
X234302771Y-93877570D01*
X234302771Y-93877570D02*
X234455152Y-93915666D01*
X234455152Y-93915666D02*
X234569438Y-93915666D01*
X234569438Y-93915666D02*
X234721819Y-93877570D01*
X234721819Y-93877570D02*
X234798009Y-93839475D01*
X234798009Y-93839475D02*
X234874200Y-93763285D01*
X234874200Y-93763285D02*
X234912295Y-93648999D01*
X234912295Y-93648999D02*
X234912295Y-93572808D01*
X234912295Y-93572808D02*
X234874200Y-93458523D01*
X234874200Y-93458523D02*
X234836104Y-93420427D01*
X234836104Y-93420427D02*
X234569438Y-93420427D01*
X234569438Y-93420427D02*
X234569438Y-93572808D01*
X234912295Y-93077570D02*
X234112295Y-93077570D01*
X234112295Y-93077570D02*
X234912295Y-92620427D01*
X234912295Y-92620427D02*
X234112295Y-92620427D01*
X234912295Y-92239475D02*
X234112295Y-92239475D01*
X234112295Y-92239475D02*
X234112295Y-92048999D01*
X234112295Y-92048999D02*
X234150390Y-91934713D01*
X234150390Y-91934713D02*
X234226580Y-91858523D01*
X234226580Y-91858523D02*
X234302771Y-91820428D01*
X234302771Y-91820428D02*
X234455152Y-91782332D01*
X234455152Y-91782332D02*
X234569438Y-91782332D01*
X234569438Y-91782332D02*
X234721819Y-91820428D01*
X234721819Y-91820428D02*
X234798009Y-91858523D01*
X234798009Y-91858523D02*
X234874200Y-91934713D01*
X234874200Y-91934713D02*
X234912295Y-92048999D01*
X234912295Y-92048999D02*
X234912295Y-92239475D01*
X239230390Y-104374190D02*
X239192295Y-104450380D01*
X239192295Y-104450380D02*
X239192295Y-104564666D01*
X239192295Y-104564666D02*
X239230390Y-104678952D01*
X239230390Y-104678952D02*
X239306580Y-104755142D01*
X239306580Y-104755142D02*
X239382771Y-104793237D01*
X239382771Y-104793237D02*
X239535152Y-104831333D01*
X239535152Y-104831333D02*
X239649438Y-104831333D01*
X239649438Y-104831333D02*
X239801819Y-104793237D01*
X239801819Y-104793237D02*
X239878009Y-104755142D01*
X239878009Y-104755142D02*
X239954200Y-104678952D01*
X239954200Y-104678952D02*
X239992295Y-104564666D01*
X239992295Y-104564666D02*
X239992295Y-104488475D01*
X239992295Y-104488475D02*
X239954200Y-104374190D01*
X239954200Y-104374190D02*
X239916104Y-104336094D01*
X239916104Y-104336094D02*
X239649438Y-104336094D01*
X239649438Y-104336094D02*
X239649438Y-104488475D01*
X239992295Y-103993237D02*
X239192295Y-103993237D01*
X239192295Y-103993237D02*
X239992295Y-103536094D01*
X239992295Y-103536094D02*
X239192295Y-103536094D01*
X239992295Y-103155142D02*
X239192295Y-103155142D01*
X239192295Y-103155142D02*
X239192295Y-102964666D01*
X239192295Y-102964666D02*
X239230390Y-102850380D01*
X239230390Y-102850380D02*
X239306580Y-102774190D01*
X239306580Y-102774190D02*
X239382771Y-102736095D01*
X239382771Y-102736095D02*
X239535152Y-102697999D01*
X239535152Y-102697999D02*
X239649438Y-102697999D01*
X239649438Y-102697999D02*
X239801819Y-102736095D01*
X239801819Y-102736095D02*
X239878009Y-102774190D01*
X239878009Y-102774190D02*
X239954200Y-102850380D01*
X239954200Y-102850380D02*
X239992295Y-102964666D01*
X239992295Y-102964666D02*
X239992295Y-103155142D01*
X241732295Y-93572809D02*
X241732295Y-93496619D01*
X241732295Y-93496619D02*
X241770390Y-93420428D01*
X241770390Y-93420428D02*
X241808485Y-93382333D01*
X241808485Y-93382333D02*
X241884676Y-93344238D01*
X241884676Y-93344238D02*
X242037057Y-93306143D01*
X242037057Y-93306143D02*
X242227533Y-93306143D01*
X242227533Y-93306143D02*
X242379914Y-93344238D01*
X242379914Y-93344238D02*
X242456104Y-93382333D01*
X242456104Y-93382333D02*
X242494200Y-93420428D01*
X242494200Y-93420428D02*
X242532295Y-93496619D01*
X242532295Y-93496619D02*
X242532295Y-93572809D01*
X242532295Y-93572809D02*
X242494200Y-93649000D01*
X242494200Y-93649000D02*
X242456104Y-93687095D01*
X242456104Y-93687095D02*
X242379914Y-93725190D01*
X242379914Y-93725190D02*
X242227533Y-93763286D01*
X242227533Y-93763286D02*
X242037057Y-93763286D01*
X242037057Y-93763286D02*
X241884676Y-93725190D01*
X241884676Y-93725190D02*
X241808485Y-93687095D01*
X241808485Y-93687095D02*
X241770390Y-93649000D01*
X241770390Y-93649000D02*
X241732295Y-93572809D01*
X241732295Y-92810904D02*
X241732295Y-92734714D01*
X241732295Y-92734714D02*
X241770390Y-92658523D01*
X241770390Y-92658523D02*
X241808485Y-92620428D01*
X241808485Y-92620428D02*
X241884676Y-92582333D01*
X241884676Y-92582333D02*
X242037057Y-92544238D01*
X242037057Y-92544238D02*
X242227533Y-92544238D01*
X242227533Y-92544238D02*
X242379914Y-92582333D01*
X242379914Y-92582333D02*
X242456104Y-92620428D01*
X242456104Y-92620428D02*
X242494200Y-92658523D01*
X242494200Y-92658523D02*
X242532295Y-92734714D01*
X242532295Y-92734714D02*
X242532295Y-92810904D01*
X242532295Y-92810904D02*
X242494200Y-92887095D01*
X242494200Y-92887095D02*
X242456104Y-92925190D01*
X242456104Y-92925190D02*
X242379914Y-92963285D01*
X242379914Y-92963285D02*
X242227533Y-93001381D01*
X242227533Y-93001381D02*
X242037057Y-93001381D01*
X242037057Y-93001381D02*
X241884676Y-92963285D01*
X241884676Y-92963285D02*
X241808485Y-92925190D01*
X241808485Y-92925190D02*
X241770390Y-92887095D01*
X241770390Y-92887095D02*
X241732295Y-92810904D01*
X241732295Y-91858523D02*
X241732295Y-92010904D01*
X241732295Y-92010904D02*
X241770390Y-92087095D01*
X241770390Y-92087095D02*
X241808485Y-92125190D01*
X241808485Y-92125190D02*
X241922771Y-92201380D01*
X241922771Y-92201380D02*
X242075152Y-92239476D01*
X242075152Y-92239476D02*
X242379914Y-92239476D01*
X242379914Y-92239476D02*
X242456104Y-92201380D01*
X242456104Y-92201380D02*
X242494200Y-92163285D01*
X242494200Y-92163285D02*
X242532295Y-92087095D01*
X242532295Y-92087095D02*
X242532295Y-91934714D01*
X242532295Y-91934714D02*
X242494200Y-91858523D01*
X242494200Y-91858523D02*
X242456104Y-91820428D01*
X242456104Y-91820428D02*
X242379914Y-91782333D01*
X242379914Y-91782333D02*
X242189438Y-91782333D01*
X242189438Y-91782333D02*
X242113247Y-91820428D01*
X242113247Y-91820428D02*
X242075152Y-91858523D01*
X242075152Y-91858523D02*
X242037057Y-91934714D01*
X242037057Y-91934714D02*
X242037057Y-92087095D01*
X242037057Y-92087095D02*
X242075152Y-92163285D01*
X242075152Y-92163285D02*
X242113247Y-92201380D01*
X242113247Y-92201380D02*
X242189438Y-92239476D01*
X237452295Y-104336094D02*
X237071342Y-104602761D01*
X237452295Y-104793237D02*
X236652295Y-104793237D01*
X236652295Y-104793237D02*
X236652295Y-104488475D01*
X236652295Y-104488475D02*
X236690390Y-104412285D01*
X236690390Y-104412285D02*
X236728485Y-104374190D01*
X236728485Y-104374190D02*
X236804676Y-104336094D01*
X236804676Y-104336094D02*
X236918961Y-104336094D01*
X236918961Y-104336094D02*
X236995152Y-104374190D01*
X236995152Y-104374190D02*
X237033247Y-104412285D01*
X237033247Y-104412285D02*
X237071342Y-104488475D01*
X237071342Y-104488475D02*
X237071342Y-104793237D01*
X237414200Y-104031333D02*
X237452295Y-103917047D01*
X237452295Y-103917047D02*
X237452295Y-103726571D01*
X237452295Y-103726571D02*
X237414200Y-103650380D01*
X237414200Y-103650380D02*
X237376104Y-103612285D01*
X237376104Y-103612285D02*
X237299914Y-103574190D01*
X237299914Y-103574190D02*
X237223723Y-103574190D01*
X237223723Y-103574190D02*
X237147533Y-103612285D01*
X237147533Y-103612285D02*
X237109438Y-103650380D01*
X237109438Y-103650380D02*
X237071342Y-103726571D01*
X237071342Y-103726571D02*
X237033247Y-103878952D01*
X237033247Y-103878952D02*
X236995152Y-103955142D01*
X236995152Y-103955142D02*
X236957057Y-103993237D01*
X236957057Y-103993237D02*
X236880866Y-104031333D01*
X236880866Y-104031333D02*
X236804676Y-104031333D01*
X236804676Y-104031333D02*
X236728485Y-103993237D01*
X236728485Y-103993237D02*
X236690390Y-103955142D01*
X236690390Y-103955142D02*
X236652295Y-103878952D01*
X236652295Y-103878952D02*
X236652295Y-103688475D01*
X236652295Y-103688475D02*
X236690390Y-103574190D01*
X236652295Y-103345618D02*
X236652295Y-102888475D01*
X237452295Y-103117047D02*
X236652295Y-103117047D01*
X216332295Y-104647190D02*
X216332295Y-104571000D01*
X216332295Y-104571000D02*
X216370390Y-104494809D01*
X216370390Y-104494809D02*
X216408485Y-104456714D01*
X216408485Y-104456714D02*
X216484676Y-104418619D01*
X216484676Y-104418619D02*
X216637057Y-104380524D01*
X216637057Y-104380524D02*
X216827533Y-104380524D01*
X216827533Y-104380524D02*
X216979914Y-104418619D01*
X216979914Y-104418619D02*
X217056104Y-104456714D01*
X217056104Y-104456714D02*
X217094200Y-104494809D01*
X217094200Y-104494809D02*
X217132295Y-104571000D01*
X217132295Y-104571000D02*
X217132295Y-104647190D01*
X217132295Y-104647190D02*
X217094200Y-104723381D01*
X217094200Y-104723381D02*
X217056104Y-104761476D01*
X217056104Y-104761476D02*
X216979914Y-104799571D01*
X216979914Y-104799571D02*
X216827533Y-104837667D01*
X216827533Y-104837667D02*
X216637057Y-104837667D01*
X216637057Y-104837667D02*
X216484676Y-104799571D01*
X216484676Y-104799571D02*
X216408485Y-104761476D01*
X216408485Y-104761476D02*
X216370390Y-104723381D01*
X216370390Y-104723381D02*
X216332295Y-104647190D01*
X217132295Y-103618619D02*
X217132295Y-104075762D01*
X217132295Y-103847190D02*
X216332295Y-103847190D01*
X216332295Y-103847190D02*
X216446580Y-103923381D01*
X216446580Y-103923381D02*
X216522771Y-103999571D01*
X216522771Y-103999571D02*
X216560866Y-104075762D01*
X216332295Y-103123380D02*
X216332295Y-103047190D01*
X216332295Y-103047190D02*
X216370390Y-102970999D01*
X216370390Y-102970999D02*
X216408485Y-102932904D01*
X216408485Y-102932904D02*
X216484676Y-102894809D01*
X216484676Y-102894809D02*
X216637057Y-102856714D01*
X216637057Y-102856714D02*
X216827533Y-102856714D01*
X216827533Y-102856714D02*
X216979914Y-102894809D01*
X216979914Y-102894809D02*
X217056104Y-102932904D01*
X217056104Y-102932904D02*
X217094200Y-102970999D01*
X217094200Y-102970999D02*
X217132295Y-103047190D01*
X217132295Y-103047190D02*
X217132295Y-103123380D01*
X217132295Y-103123380D02*
X217094200Y-103199571D01*
X217094200Y-103199571D02*
X217056104Y-103237666D01*
X217056104Y-103237666D02*
X216979914Y-103275761D01*
X216979914Y-103275761D02*
X216827533Y-103313857D01*
X216827533Y-103313857D02*
X216637057Y-103313857D01*
X216637057Y-103313857D02*
X216484676Y-103275761D01*
X216484676Y-103275761D02*
X216408485Y-103237666D01*
X216408485Y-103237666D02*
X216370390Y-103199571D01*
X216370390Y-103199571D02*
X216332295Y-103123380D01*
X236690390Y-93458523D02*
X236652295Y-93534713D01*
X236652295Y-93534713D02*
X236652295Y-93648999D01*
X236652295Y-93648999D02*
X236690390Y-93763285D01*
X236690390Y-93763285D02*
X236766580Y-93839475D01*
X236766580Y-93839475D02*
X236842771Y-93877570D01*
X236842771Y-93877570D02*
X236995152Y-93915666D01*
X236995152Y-93915666D02*
X237109438Y-93915666D01*
X237109438Y-93915666D02*
X237261819Y-93877570D01*
X237261819Y-93877570D02*
X237338009Y-93839475D01*
X237338009Y-93839475D02*
X237414200Y-93763285D01*
X237414200Y-93763285D02*
X237452295Y-93648999D01*
X237452295Y-93648999D02*
X237452295Y-93572808D01*
X237452295Y-93572808D02*
X237414200Y-93458523D01*
X237414200Y-93458523D02*
X237376104Y-93420427D01*
X237376104Y-93420427D02*
X237109438Y-93420427D01*
X237109438Y-93420427D02*
X237109438Y-93572808D01*
X237452295Y-93077570D02*
X236652295Y-93077570D01*
X236652295Y-93077570D02*
X237452295Y-92620427D01*
X237452295Y-92620427D02*
X236652295Y-92620427D01*
X237452295Y-92239475D02*
X236652295Y-92239475D01*
X236652295Y-92239475D02*
X236652295Y-92048999D01*
X236652295Y-92048999D02*
X236690390Y-91934713D01*
X236690390Y-91934713D02*
X236766580Y-91858523D01*
X236766580Y-91858523D02*
X236842771Y-91820428D01*
X236842771Y-91820428D02*
X236995152Y-91782332D01*
X236995152Y-91782332D02*
X237109438Y-91782332D01*
X237109438Y-91782332D02*
X237261819Y-91820428D01*
X237261819Y-91820428D02*
X237338009Y-91858523D01*
X237338009Y-91858523D02*
X237414200Y-91934713D01*
X237414200Y-91934713D02*
X237452295Y-92048999D01*
X237452295Y-92048999D02*
X237452295Y-92239475D01*
X222212295Y-93306143D02*
X222212295Y-93763286D01*
X222212295Y-93534714D02*
X221412295Y-93534714D01*
X221412295Y-93534714D02*
X221526580Y-93610905D01*
X221526580Y-93610905D02*
X221602771Y-93687095D01*
X221602771Y-93687095D02*
X221640866Y-93763286D01*
X221412295Y-92810904D02*
X221412295Y-92734714D01*
X221412295Y-92734714D02*
X221450390Y-92658523D01*
X221450390Y-92658523D02*
X221488485Y-92620428D01*
X221488485Y-92620428D02*
X221564676Y-92582333D01*
X221564676Y-92582333D02*
X221717057Y-92544238D01*
X221717057Y-92544238D02*
X221907533Y-92544238D01*
X221907533Y-92544238D02*
X222059914Y-92582333D01*
X222059914Y-92582333D02*
X222136104Y-92620428D01*
X222136104Y-92620428D02*
X222174200Y-92658523D01*
X222174200Y-92658523D02*
X222212295Y-92734714D01*
X222212295Y-92734714D02*
X222212295Y-92810904D01*
X222212295Y-92810904D02*
X222174200Y-92887095D01*
X222174200Y-92887095D02*
X222136104Y-92925190D01*
X222136104Y-92925190D02*
X222059914Y-92963285D01*
X222059914Y-92963285D02*
X221907533Y-93001381D01*
X221907533Y-93001381D02*
X221717057Y-93001381D01*
X221717057Y-93001381D02*
X221564676Y-92963285D01*
X221564676Y-92963285D02*
X221488485Y-92925190D01*
X221488485Y-92925190D02*
X221450390Y-92887095D01*
X221450390Y-92887095D02*
X221412295Y-92810904D01*
X221412295Y-92048999D02*
X221412295Y-91972809D01*
X221412295Y-91972809D02*
X221450390Y-91896618D01*
X221450390Y-91896618D02*
X221488485Y-91858523D01*
X221488485Y-91858523D02*
X221564676Y-91820428D01*
X221564676Y-91820428D02*
X221717057Y-91782333D01*
X221717057Y-91782333D02*
X221907533Y-91782333D01*
X221907533Y-91782333D02*
X222059914Y-91820428D01*
X222059914Y-91820428D02*
X222136104Y-91858523D01*
X222136104Y-91858523D02*
X222174200Y-91896618D01*
X222174200Y-91896618D02*
X222212295Y-91972809D01*
X222212295Y-91972809D02*
X222212295Y-92048999D01*
X222212295Y-92048999D02*
X222174200Y-92125190D01*
X222174200Y-92125190D02*
X222136104Y-92163285D01*
X222136104Y-92163285D02*
X222059914Y-92201380D01*
X222059914Y-92201380D02*
X221907533Y-92239476D01*
X221907533Y-92239476D02*
X221717057Y-92239476D01*
X221717057Y-92239476D02*
X221564676Y-92201380D01*
X221564676Y-92201380D02*
X221488485Y-92163285D01*
X221488485Y-92163285D02*
X221450390Y-92125190D01*
X221450390Y-92125190D02*
X221412295Y-92048999D01*
X223952295Y-93572809D02*
X223952295Y-93496619D01*
X223952295Y-93496619D02*
X223990390Y-93420428D01*
X223990390Y-93420428D02*
X224028485Y-93382333D01*
X224028485Y-93382333D02*
X224104676Y-93344238D01*
X224104676Y-93344238D02*
X224257057Y-93306143D01*
X224257057Y-93306143D02*
X224447533Y-93306143D01*
X224447533Y-93306143D02*
X224599914Y-93344238D01*
X224599914Y-93344238D02*
X224676104Y-93382333D01*
X224676104Y-93382333D02*
X224714200Y-93420428D01*
X224714200Y-93420428D02*
X224752295Y-93496619D01*
X224752295Y-93496619D02*
X224752295Y-93572809D01*
X224752295Y-93572809D02*
X224714200Y-93649000D01*
X224714200Y-93649000D02*
X224676104Y-93687095D01*
X224676104Y-93687095D02*
X224599914Y-93725190D01*
X224599914Y-93725190D02*
X224447533Y-93763286D01*
X224447533Y-93763286D02*
X224257057Y-93763286D01*
X224257057Y-93763286D02*
X224104676Y-93725190D01*
X224104676Y-93725190D02*
X224028485Y-93687095D01*
X224028485Y-93687095D02*
X223990390Y-93649000D01*
X223990390Y-93649000D02*
X223952295Y-93572809D01*
X224028485Y-93001381D02*
X223990390Y-92963285D01*
X223990390Y-92963285D02*
X223952295Y-92887095D01*
X223952295Y-92887095D02*
X223952295Y-92696619D01*
X223952295Y-92696619D02*
X223990390Y-92620428D01*
X223990390Y-92620428D02*
X224028485Y-92582333D01*
X224028485Y-92582333D02*
X224104676Y-92544238D01*
X224104676Y-92544238D02*
X224180866Y-92544238D01*
X224180866Y-92544238D02*
X224295152Y-92582333D01*
X224295152Y-92582333D02*
X224752295Y-93039476D01*
X224752295Y-93039476D02*
X224752295Y-92544238D01*
X224218961Y-91858523D02*
X224752295Y-91858523D01*
X223914200Y-92048999D02*
X224485628Y-92239476D01*
X224485628Y-92239476D02*
X224485628Y-91744237D01*
X231562295Y-93572809D02*
X231562295Y-93496619D01*
X231562295Y-93496619D02*
X231600390Y-93420428D01*
X231600390Y-93420428D02*
X231638485Y-93382333D01*
X231638485Y-93382333D02*
X231714676Y-93344238D01*
X231714676Y-93344238D02*
X231867057Y-93306143D01*
X231867057Y-93306143D02*
X232057533Y-93306143D01*
X232057533Y-93306143D02*
X232209914Y-93344238D01*
X232209914Y-93344238D02*
X232286104Y-93382333D01*
X232286104Y-93382333D02*
X232324200Y-93420428D01*
X232324200Y-93420428D02*
X232362295Y-93496619D01*
X232362295Y-93496619D02*
X232362295Y-93572809D01*
X232362295Y-93572809D02*
X232324200Y-93649000D01*
X232324200Y-93649000D02*
X232286104Y-93687095D01*
X232286104Y-93687095D02*
X232209914Y-93725190D01*
X232209914Y-93725190D02*
X232057533Y-93763286D01*
X232057533Y-93763286D02*
X231867057Y-93763286D01*
X231867057Y-93763286D02*
X231714676Y-93725190D01*
X231714676Y-93725190D02*
X231638485Y-93687095D01*
X231638485Y-93687095D02*
X231600390Y-93649000D01*
X231600390Y-93649000D02*
X231562295Y-93572809D01*
X232362295Y-92544238D02*
X232362295Y-93001381D01*
X232362295Y-92772809D02*
X231562295Y-92772809D01*
X231562295Y-92772809D02*
X231676580Y-92849000D01*
X231676580Y-92849000D02*
X231752771Y-92925190D01*
X231752771Y-92925190D02*
X231790866Y-93001381D01*
X231562295Y-92277571D02*
X231562295Y-91744237D01*
X231562295Y-91744237D02*
X232362295Y-92087095D01*
D11*
X214416328Y-103599714D02*
X215416328Y-103599714D01*
X214559185Y-103599714D02*
X214487757Y-103528285D01*
X214487757Y-103528285D02*
X214416328Y-103385428D01*
X214416328Y-103385428D02*
X214416328Y-103171142D01*
X214416328Y-103171142D02*
X214487757Y-103028285D01*
X214487757Y-103028285D02*
X214630614Y-102956857D01*
X214630614Y-102956857D02*
X215416328Y-102956857D01*
X215416328Y-102242571D02*
X214416328Y-102242571D01*
X213916328Y-102242571D02*
X213987757Y-102313999D01*
X213987757Y-102313999D02*
X214059185Y-102242571D01*
X214059185Y-102242571D02*
X213987757Y-102171142D01*
X213987757Y-102171142D02*
X213916328Y-102242571D01*
X213916328Y-102242571D02*
X214059185Y-102242571D01*
X215344900Y-100885428D02*
X215416328Y-101028285D01*
X215416328Y-101028285D02*
X215416328Y-101313999D01*
X215416328Y-101313999D02*
X215344900Y-101456856D01*
X215344900Y-101456856D02*
X215273471Y-101528285D01*
X215273471Y-101528285D02*
X215130614Y-101599713D01*
X215130614Y-101599713D02*
X214702042Y-101599713D01*
X214702042Y-101599713D02*
X214559185Y-101528285D01*
X214559185Y-101528285D02*
X214487757Y-101456856D01*
X214487757Y-101456856D02*
X214416328Y-101313999D01*
X214416328Y-101313999D02*
X214416328Y-101028285D01*
X214416328Y-101028285D02*
X214487757Y-100885428D01*
X215344900Y-99671142D02*
X215416328Y-99813999D01*
X215416328Y-99813999D02*
X215416328Y-100099714D01*
X215416328Y-100099714D02*
X215344900Y-100242571D01*
X215344900Y-100242571D02*
X215202042Y-100313999D01*
X215202042Y-100313999D02*
X214630614Y-100313999D01*
X214630614Y-100313999D02*
X214487757Y-100242571D01*
X214487757Y-100242571D02*
X214416328Y-100099714D01*
X214416328Y-100099714D02*
X214416328Y-99813999D01*
X214416328Y-99813999D02*
X214487757Y-99671142D01*
X214487757Y-99671142D02*
X214630614Y-99599714D01*
X214630614Y-99599714D02*
X214773471Y-99599714D01*
X214773471Y-99599714D02*
X214916328Y-100313999D01*
X215273471Y-98956857D02*
X215344900Y-98885428D01*
X215344900Y-98885428D02*
X215416328Y-98956857D01*
X215416328Y-98956857D02*
X215344900Y-99028285D01*
X215344900Y-99028285D02*
X215273471Y-98956857D01*
X215273471Y-98956857D02*
X215416328Y-98956857D01*
X214844900Y-98956857D02*
X213987757Y-99028285D01*
X213987757Y-99028285D02*
X213916328Y-98956857D01*
X213916328Y-98956857D02*
X213987757Y-98885428D01*
X213987757Y-98885428D02*
X214844900Y-98956857D01*
X214844900Y-98956857D02*
X213916328Y-98956857D01*
X214416328Y-98242571D02*
X215416328Y-98242571D01*
X214559185Y-98242571D02*
X214487757Y-98171142D01*
X214487757Y-98171142D02*
X214416328Y-98028285D01*
X214416328Y-98028285D02*
X214416328Y-97813999D01*
X214416328Y-97813999D02*
X214487757Y-97671142D01*
X214487757Y-97671142D02*
X214630614Y-97599714D01*
X214630614Y-97599714D02*
X215416328Y-97599714D01*
X215416328Y-96242571D02*
X214630614Y-96242571D01*
X214630614Y-96242571D02*
X214487757Y-96313999D01*
X214487757Y-96313999D02*
X214416328Y-96456856D01*
X214416328Y-96456856D02*
X214416328Y-96742571D01*
X214416328Y-96742571D02*
X214487757Y-96885428D01*
X215344900Y-96242571D02*
X215416328Y-96385428D01*
X215416328Y-96385428D02*
X215416328Y-96742571D01*
X215416328Y-96742571D02*
X215344900Y-96885428D01*
X215344900Y-96885428D02*
X215202042Y-96956856D01*
X215202042Y-96956856D02*
X215059185Y-96956856D01*
X215059185Y-96956856D02*
X214916328Y-96885428D01*
X214916328Y-96885428D02*
X214844900Y-96742571D01*
X214844900Y-96742571D02*
X214844900Y-96385428D01*
X214844900Y-96385428D02*
X214773471Y-96242571D01*
X214416328Y-95528285D02*
X215416328Y-95528285D01*
X214559185Y-95528285D02*
X214487757Y-95456856D01*
X214487757Y-95456856D02*
X214416328Y-95313999D01*
X214416328Y-95313999D02*
X214416328Y-95099713D01*
X214416328Y-95099713D02*
X214487757Y-94956856D01*
X214487757Y-94956856D02*
X214630614Y-94885428D01*
X214630614Y-94885428D02*
X215416328Y-94885428D01*
X215416328Y-93956856D02*
X215344900Y-94099713D01*
X215344900Y-94099713D02*
X215273471Y-94171142D01*
X215273471Y-94171142D02*
X215130614Y-94242570D01*
X215130614Y-94242570D02*
X214702042Y-94242570D01*
X214702042Y-94242570D02*
X214559185Y-94171142D01*
X214559185Y-94171142D02*
X214487757Y-94099713D01*
X214487757Y-94099713D02*
X214416328Y-93956856D01*
X214416328Y-93956856D02*
X214416328Y-93742570D01*
X214416328Y-93742570D02*
X214487757Y-93599713D01*
X214487757Y-93599713D02*
X214559185Y-93528285D01*
X214559185Y-93528285D02*
X214702042Y-93456856D01*
X214702042Y-93456856D02*
X215130614Y-93456856D01*
X215130614Y-93456856D02*
X215273471Y-93528285D01*
X215273471Y-93528285D02*
X215344900Y-93599713D01*
X215344900Y-93599713D02*
X215416328Y-93742570D01*
X215416328Y-93742570D02*
X215416328Y-93956856D01*
D10*
X219672295Y-104380524D02*
X219672295Y-104837667D01*
X219672295Y-104609095D02*
X218872295Y-104609095D01*
X218872295Y-104609095D02*
X218986580Y-104685286D01*
X218986580Y-104685286D02*
X219062771Y-104761476D01*
X219062771Y-104761476D02*
X219100866Y-104837667D01*
X219672295Y-103618619D02*
X219672295Y-104075762D01*
X219672295Y-103847190D02*
X218872295Y-103847190D01*
X218872295Y-103847190D02*
X218986580Y-103923381D01*
X218986580Y-103923381D02*
X219062771Y-103999571D01*
X219062771Y-103999571D02*
X219100866Y-104075762D01*
X219672295Y-102856714D02*
X219672295Y-103313857D01*
X219672295Y-103085285D02*
X218872295Y-103085285D01*
X218872295Y-103085285D02*
X218986580Y-103161476D01*
X218986580Y-103161476D02*
X219062771Y-103237666D01*
X219062771Y-103237666D02*
X219100866Y-103313857D01*
X226492295Y-104647190D02*
X226492295Y-104571000D01*
X226492295Y-104571000D02*
X226530390Y-104494809D01*
X226530390Y-104494809D02*
X226568485Y-104456714D01*
X226568485Y-104456714D02*
X226644676Y-104418619D01*
X226644676Y-104418619D02*
X226797057Y-104380524D01*
X226797057Y-104380524D02*
X226987533Y-104380524D01*
X226987533Y-104380524D02*
X227139914Y-104418619D01*
X227139914Y-104418619D02*
X227216104Y-104456714D01*
X227216104Y-104456714D02*
X227254200Y-104494809D01*
X227254200Y-104494809D02*
X227292295Y-104571000D01*
X227292295Y-104571000D02*
X227292295Y-104647190D01*
X227292295Y-104647190D02*
X227254200Y-104723381D01*
X227254200Y-104723381D02*
X227216104Y-104761476D01*
X227216104Y-104761476D02*
X227139914Y-104799571D01*
X227139914Y-104799571D02*
X226987533Y-104837667D01*
X226987533Y-104837667D02*
X226797057Y-104837667D01*
X226797057Y-104837667D02*
X226644676Y-104799571D01*
X226644676Y-104799571D02*
X226568485Y-104761476D01*
X226568485Y-104761476D02*
X226530390Y-104723381D01*
X226530390Y-104723381D02*
X226492295Y-104647190D01*
X226492295Y-103885285D02*
X226492295Y-103809095D01*
X226492295Y-103809095D02*
X226530390Y-103732904D01*
X226530390Y-103732904D02*
X226568485Y-103694809D01*
X226568485Y-103694809D02*
X226644676Y-103656714D01*
X226644676Y-103656714D02*
X226797057Y-103618619D01*
X226797057Y-103618619D02*
X226987533Y-103618619D01*
X226987533Y-103618619D02*
X227139914Y-103656714D01*
X227139914Y-103656714D02*
X227216104Y-103694809D01*
X227216104Y-103694809D02*
X227254200Y-103732904D01*
X227254200Y-103732904D02*
X227292295Y-103809095D01*
X227292295Y-103809095D02*
X227292295Y-103885285D01*
X227292295Y-103885285D02*
X227254200Y-103961476D01*
X227254200Y-103961476D02*
X227216104Y-103999571D01*
X227216104Y-103999571D02*
X227139914Y-104037666D01*
X227139914Y-104037666D02*
X226987533Y-104075762D01*
X226987533Y-104075762D02*
X226797057Y-104075762D01*
X226797057Y-104075762D02*
X226644676Y-104037666D01*
X226644676Y-104037666D02*
X226568485Y-103999571D01*
X226568485Y-103999571D02*
X226530390Y-103961476D01*
X226530390Y-103961476D02*
X226492295Y-103885285D01*
X226568485Y-103313857D02*
X226530390Y-103275761D01*
X226530390Y-103275761D02*
X226492295Y-103199571D01*
X226492295Y-103199571D02*
X226492295Y-103009095D01*
X226492295Y-103009095D02*
X226530390Y-102932904D01*
X226530390Y-102932904D02*
X226568485Y-102894809D01*
X226568485Y-102894809D02*
X226644676Y-102856714D01*
X226644676Y-102856714D02*
X226720866Y-102856714D01*
X226720866Y-102856714D02*
X226835152Y-102894809D01*
X226835152Y-102894809D02*
X227292295Y-103351952D01*
X227292295Y-103351952D02*
X227292295Y-102856714D01*
X234112295Y-104913857D02*
X234912295Y-104647190D01*
X234912295Y-104647190D02*
X234112295Y-104380524D01*
X234836104Y-103656714D02*
X234874200Y-103694810D01*
X234874200Y-103694810D02*
X234912295Y-103809095D01*
X234912295Y-103809095D02*
X234912295Y-103885286D01*
X234912295Y-103885286D02*
X234874200Y-103999572D01*
X234874200Y-103999572D02*
X234798009Y-104075762D01*
X234798009Y-104075762D02*
X234721819Y-104113857D01*
X234721819Y-104113857D02*
X234569438Y-104151953D01*
X234569438Y-104151953D02*
X234455152Y-104151953D01*
X234455152Y-104151953D02*
X234302771Y-104113857D01*
X234302771Y-104113857D02*
X234226580Y-104075762D01*
X234226580Y-104075762D02*
X234150390Y-103999572D01*
X234150390Y-103999572D02*
X234112295Y-103885286D01*
X234112295Y-103885286D02*
X234112295Y-103809095D01*
X234112295Y-103809095D02*
X234150390Y-103694810D01*
X234150390Y-103694810D02*
X234188485Y-103656714D01*
X234836104Y-102856714D02*
X234874200Y-102894810D01*
X234874200Y-102894810D02*
X234912295Y-103009095D01*
X234912295Y-103009095D02*
X234912295Y-103085286D01*
X234912295Y-103085286D02*
X234874200Y-103199572D01*
X234874200Y-103199572D02*
X234798009Y-103275762D01*
X234798009Y-103275762D02*
X234721819Y-103313857D01*
X234721819Y-103313857D02*
X234569438Y-103351953D01*
X234569438Y-103351953D02*
X234455152Y-103351953D01*
X234455152Y-103351953D02*
X234302771Y-103313857D01*
X234302771Y-103313857D02*
X234226580Y-103275762D01*
X234226580Y-103275762D02*
X234150390Y-103199572D01*
X234150390Y-103199572D02*
X234112295Y-103085286D01*
X234112295Y-103085286D02*
X234112295Y-103009095D01*
X234112295Y-103009095D02*
X234150390Y-102894810D01*
X234150390Y-102894810D02*
X234188485Y-102856714D01*
X231572295Y-104647190D02*
X231572295Y-104571000D01*
X231572295Y-104571000D02*
X231610390Y-104494809D01*
X231610390Y-104494809D02*
X231648485Y-104456714D01*
X231648485Y-104456714D02*
X231724676Y-104418619D01*
X231724676Y-104418619D02*
X231877057Y-104380524D01*
X231877057Y-104380524D02*
X232067533Y-104380524D01*
X232067533Y-104380524D02*
X232219914Y-104418619D01*
X232219914Y-104418619D02*
X232296104Y-104456714D01*
X232296104Y-104456714D02*
X232334200Y-104494809D01*
X232334200Y-104494809D02*
X232372295Y-104571000D01*
X232372295Y-104571000D02*
X232372295Y-104647190D01*
X232372295Y-104647190D02*
X232334200Y-104723381D01*
X232334200Y-104723381D02*
X232296104Y-104761476D01*
X232296104Y-104761476D02*
X232219914Y-104799571D01*
X232219914Y-104799571D02*
X232067533Y-104837667D01*
X232067533Y-104837667D02*
X231877057Y-104837667D01*
X231877057Y-104837667D02*
X231724676Y-104799571D01*
X231724676Y-104799571D02*
X231648485Y-104761476D01*
X231648485Y-104761476D02*
X231610390Y-104723381D01*
X231610390Y-104723381D02*
X231572295Y-104647190D01*
X231572295Y-104113857D02*
X231572295Y-103618619D01*
X231572295Y-103618619D02*
X231877057Y-103885285D01*
X231877057Y-103885285D02*
X231877057Y-103771000D01*
X231877057Y-103771000D02*
X231915152Y-103694809D01*
X231915152Y-103694809D02*
X231953247Y-103656714D01*
X231953247Y-103656714D02*
X232029438Y-103618619D01*
X232029438Y-103618619D02*
X232219914Y-103618619D01*
X232219914Y-103618619D02*
X232296104Y-103656714D01*
X232296104Y-103656714D02*
X232334200Y-103694809D01*
X232334200Y-103694809D02*
X232372295Y-103771000D01*
X232372295Y-103771000D02*
X232372295Y-103999571D01*
X232372295Y-103999571D02*
X232334200Y-104075762D01*
X232334200Y-104075762D02*
X232296104Y-104113857D01*
X232372295Y-102856714D02*
X232372295Y-103313857D01*
X232372295Y-103085285D02*
X231572295Y-103085285D01*
X231572295Y-103085285D02*
X231686580Y-103161476D01*
X231686580Y-103161476D02*
X231762771Y-103237666D01*
X231762771Y-103237666D02*
X231800866Y-103313857D01*
X217132295Y-93306143D02*
X217132295Y-93763286D01*
X217132295Y-93534714D02*
X216332295Y-93534714D01*
X216332295Y-93534714D02*
X216446580Y-93610905D01*
X216446580Y-93610905D02*
X216522771Y-93687095D01*
X216522771Y-93687095D02*
X216560866Y-93763286D01*
X216332295Y-92810904D02*
X216332295Y-92734714D01*
X216332295Y-92734714D02*
X216370390Y-92658523D01*
X216370390Y-92658523D02*
X216408485Y-92620428D01*
X216408485Y-92620428D02*
X216484676Y-92582333D01*
X216484676Y-92582333D02*
X216637057Y-92544238D01*
X216637057Y-92544238D02*
X216827533Y-92544238D01*
X216827533Y-92544238D02*
X216979914Y-92582333D01*
X216979914Y-92582333D02*
X217056104Y-92620428D01*
X217056104Y-92620428D02*
X217094200Y-92658523D01*
X217094200Y-92658523D02*
X217132295Y-92734714D01*
X217132295Y-92734714D02*
X217132295Y-92810904D01*
X217132295Y-92810904D02*
X217094200Y-92887095D01*
X217094200Y-92887095D02*
X217056104Y-92925190D01*
X217056104Y-92925190D02*
X216979914Y-92963285D01*
X216979914Y-92963285D02*
X216827533Y-93001381D01*
X216827533Y-93001381D02*
X216637057Y-93001381D01*
X216637057Y-93001381D02*
X216484676Y-92963285D01*
X216484676Y-92963285D02*
X216408485Y-92925190D01*
X216408485Y-92925190D02*
X216370390Y-92887095D01*
X216370390Y-92887095D02*
X216332295Y-92810904D01*
X216598961Y-91858523D02*
X217132295Y-91858523D01*
X216294200Y-92048999D02*
X216865628Y-92239476D01*
X216865628Y-92239476D02*
X216865628Y-91744237D01*
X239262295Y-93572809D02*
X239262295Y-93496619D01*
X239262295Y-93496619D02*
X239300390Y-93420428D01*
X239300390Y-93420428D02*
X239338485Y-93382333D01*
X239338485Y-93382333D02*
X239414676Y-93344238D01*
X239414676Y-93344238D02*
X239567057Y-93306143D01*
X239567057Y-93306143D02*
X239757533Y-93306143D01*
X239757533Y-93306143D02*
X239909914Y-93344238D01*
X239909914Y-93344238D02*
X239986104Y-93382333D01*
X239986104Y-93382333D02*
X240024200Y-93420428D01*
X240024200Y-93420428D02*
X240062295Y-93496619D01*
X240062295Y-93496619D02*
X240062295Y-93572809D01*
X240062295Y-93572809D02*
X240024200Y-93649000D01*
X240024200Y-93649000D02*
X239986104Y-93687095D01*
X239986104Y-93687095D02*
X239909914Y-93725190D01*
X239909914Y-93725190D02*
X239757533Y-93763286D01*
X239757533Y-93763286D02*
X239567057Y-93763286D01*
X239567057Y-93763286D02*
X239414676Y-93725190D01*
X239414676Y-93725190D02*
X239338485Y-93687095D01*
X239338485Y-93687095D02*
X239300390Y-93649000D01*
X239300390Y-93649000D02*
X239262295Y-93572809D01*
X239262295Y-92810904D02*
X239262295Y-92734714D01*
X239262295Y-92734714D02*
X239300390Y-92658523D01*
X239300390Y-92658523D02*
X239338485Y-92620428D01*
X239338485Y-92620428D02*
X239414676Y-92582333D01*
X239414676Y-92582333D02*
X239567057Y-92544238D01*
X239567057Y-92544238D02*
X239757533Y-92544238D01*
X239757533Y-92544238D02*
X239909914Y-92582333D01*
X239909914Y-92582333D02*
X239986104Y-92620428D01*
X239986104Y-92620428D02*
X240024200Y-92658523D01*
X240024200Y-92658523D02*
X240062295Y-92734714D01*
X240062295Y-92734714D02*
X240062295Y-92810904D01*
X240062295Y-92810904D02*
X240024200Y-92887095D01*
X240024200Y-92887095D02*
X239986104Y-92925190D01*
X239986104Y-92925190D02*
X239909914Y-92963285D01*
X239909914Y-92963285D02*
X239757533Y-93001381D01*
X239757533Y-93001381D02*
X239567057Y-93001381D01*
X239567057Y-93001381D02*
X239414676Y-92963285D01*
X239414676Y-92963285D02*
X239338485Y-92925190D01*
X239338485Y-92925190D02*
X239300390Y-92887095D01*
X239300390Y-92887095D02*
X239262295Y-92810904D01*
X239605152Y-92087095D02*
X239567057Y-92163285D01*
X239567057Y-92163285D02*
X239528961Y-92201380D01*
X239528961Y-92201380D02*
X239452771Y-92239476D01*
X239452771Y-92239476D02*
X239414676Y-92239476D01*
X239414676Y-92239476D02*
X239338485Y-92201380D01*
X239338485Y-92201380D02*
X239300390Y-92163285D01*
X239300390Y-92163285D02*
X239262295Y-92087095D01*
X239262295Y-92087095D02*
X239262295Y-91934714D01*
X239262295Y-91934714D02*
X239300390Y-91858523D01*
X239300390Y-91858523D02*
X239338485Y-91820428D01*
X239338485Y-91820428D02*
X239414676Y-91782333D01*
X239414676Y-91782333D02*
X239452771Y-91782333D01*
X239452771Y-91782333D02*
X239528961Y-91820428D01*
X239528961Y-91820428D02*
X239567057Y-91858523D01*
X239567057Y-91858523D02*
X239605152Y-91934714D01*
X239605152Y-91934714D02*
X239605152Y-92087095D01*
X239605152Y-92087095D02*
X239643247Y-92163285D01*
X239643247Y-92163285D02*
X239681342Y-92201380D01*
X239681342Y-92201380D02*
X239757533Y-92239476D01*
X239757533Y-92239476D02*
X239909914Y-92239476D01*
X239909914Y-92239476D02*
X239986104Y-92201380D01*
X239986104Y-92201380D02*
X240024200Y-92163285D01*
X240024200Y-92163285D02*
X240062295Y-92087095D01*
X240062295Y-92087095D02*
X240062295Y-91934714D01*
X240062295Y-91934714D02*
X240024200Y-91858523D01*
X240024200Y-91858523D02*
X239986104Y-91820428D01*
X239986104Y-91820428D02*
X239909914Y-91782333D01*
X239909914Y-91782333D02*
X239757533Y-91782333D01*
X239757533Y-91782333D02*
X239681342Y-91820428D01*
X239681342Y-91820428D02*
X239643247Y-91858523D01*
X239643247Y-91858523D02*
X239605152Y-91934714D01*
X242532295Y-104336095D02*
X242151342Y-104602762D01*
X242532295Y-104793238D02*
X241732295Y-104793238D01*
X241732295Y-104793238D02*
X241732295Y-104488476D01*
X241732295Y-104488476D02*
X241770390Y-104412286D01*
X241770390Y-104412286D02*
X241808485Y-104374191D01*
X241808485Y-104374191D02*
X241884676Y-104336095D01*
X241884676Y-104336095D02*
X241998961Y-104336095D01*
X241998961Y-104336095D02*
X242075152Y-104374191D01*
X242075152Y-104374191D02*
X242113247Y-104412286D01*
X242113247Y-104412286D02*
X242151342Y-104488476D01*
X242151342Y-104488476D02*
X242151342Y-104793238D01*
X242303723Y-104031334D02*
X242303723Y-103650381D01*
X242532295Y-104107524D02*
X241732295Y-103840857D01*
X241732295Y-103840857D02*
X242532295Y-103574191D01*
X241732295Y-103383715D02*
X242532295Y-103193239D01*
X242532295Y-103193239D02*
X241960866Y-103040858D01*
X241960866Y-103040858D02*
X242532295Y-102888477D01*
X242532295Y-102888477D02*
X241732295Y-102698001D01*
X226462295Y-93572809D02*
X226462295Y-93496619D01*
X226462295Y-93496619D02*
X226500390Y-93420428D01*
X226500390Y-93420428D02*
X226538485Y-93382333D01*
X226538485Y-93382333D02*
X226614676Y-93344238D01*
X226614676Y-93344238D02*
X226767057Y-93306143D01*
X226767057Y-93306143D02*
X226957533Y-93306143D01*
X226957533Y-93306143D02*
X227109914Y-93344238D01*
X227109914Y-93344238D02*
X227186104Y-93382333D01*
X227186104Y-93382333D02*
X227224200Y-93420428D01*
X227224200Y-93420428D02*
X227262295Y-93496619D01*
X227262295Y-93496619D02*
X227262295Y-93572809D01*
X227262295Y-93572809D02*
X227224200Y-93649000D01*
X227224200Y-93649000D02*
X227186104Y-93687095D01*
X227186104Y-93687095D02*
X227109914Y-93725190D01*
X227109914Y-93725190D02*
X226957533Y-93763286D01*
X226957533Y-93763286D02*
X226767057Y-93763286D01*
X226767057Y-93763286D02*
X226614676Y-93725190D01*
X226614676Y-93725190D02*
X226538485Y-93687095D01*
X226538485Y-93687095D02*
X226500390Y-93649000D01*
X226500390Y-93649000D02*
X226462295Y-93572809D01*
X226538485Y-93001381D02*
X226500390Y-92963285D01*
X226500390Y-92963285D02*
X226462295Y-92887095D01*
X226462295Y-92887095D02*
X226462295Y-92696619D01*
X226462295Y-92696619D02*
X226500390Y-92620428D01*
X226500390Y-92620428D02*
X226538485Y-92582333D01*
X226538485Y-92582333D02*
X226614676Y-92544238D01*
X226614676Y-92544238D02*
X226690866Y-92544238D01*
X226690866Y-92544238D02*
X226805152Y-92582333D01*
X226805152Y-92582333D02*
X227262295Y-93039476D01*
X227262295Y-93039476D02*
X227262295Y-92544238D01*
X226538485Y-92239476D02*
X226500390Y-92201380D01*
X226500390Y-92201380D02*
X226462295Y-92125190D01*
X226462295Y-92125190D02*
X226462295Y-91934714D01*
X226462295Y-91934714D02*
X226500390Y-91858523D01*
X226500390Y-91858523D02*
X226538485Y-91820428D01*
X226538485Y-91820428D02*
X226614676Y-91782333D01*
X226614676Y-91782333D02*
X226690866Y-91782333D01*
X226690866Y-91782333D02*
X226805152Y-91820428D01*
X226805152Y-91820428D02*
X227262295Y-92277571D01*
X227262295Y-92277571D02*
X227262295Y-91782333D01*
X224752295Y-104380524D02*
X224752295Y-104837667D01*
X224752295Y-104609095D02*
X223952295Y-104609095D01*
X223952295Y-104609095D02*
X224066580Y-104685286D01*
X224066580Y-104685286D02*
X224142771Y-104761476D01*
X224142771Y-104761476D02*
X224180866Y-104837667D01*
X224752295Y-103618619D02*
X224752295Y-104075762D01*
X224752295Y-103847190D02*
X223952295Y-103847190D01*
X223952295Y-103847190D02*
X224066580Y-103923381D01*
X224066580Y-103923381D02*
X224142771Y-103999571D01*
X224142771Y-103999571D02*
X224180866Y-104075762D01*
X223952295Y-102894809D02*
X223952295Y-103275761D01*
X223952295Y-103275761D02*
X224333247Y-103313857D01*
X224333247Y-103313857D02*
X224295152Y-103275761D01*
X224295152Y-103275761D02*
X224257057Y-103199571D01*
X224257057Y-103199571D02*
X224257057Y-103009095D01*
X224257057Y-103009095D02*
X224295152Y-102932904D01*
X224295152Y-102932904D02*
X224333247Y-102894809D01*
X224333247Y-102894809D02*
X224409438Y-102856714D01*
X224409438Y-102856714D02*
X224599914Y-102856714D01*
X224599914Y-102856714D02*
X224676104Y-102894809D01*
X224676104Y-102894809D02*
X224714200Y-102932904D01*
X224714200Y-102932904D02*
X224752295Y-103009095D01*
X224752295Y-103009095D02*
X224752295Y-103199571D01*
X224752295Y-103199571D02*
X224714200Y-103275761D01*
X224714200Y-103275761D02*
X224676104Y-103313857D01*
X222212295Y-104380524D02*
X222212295Y-104837667D01*
X222212295Y-104609095D02*
X221412295Y-104609095D01*
X221412295Y-104609095D02*
X221526580Y-104685286D01*
X221526580Y-104685286D02*
X221602771Y-104761476D01*
X221602771Y-104761476D02*
X221640866Y-104837667D01*
X222212295Y-103618619D02*
X222212295Y-104075762D01*
X222212295Y-103847190D02*
X221412295Y-103847190D01*
X221412295Y-103847190D02*
X221526580Y-103923381D01*
X221526580Y-103923381D02*
X221602771Y-103999571D01*
X221602771Y-103999571D02*
X221640866Y-104075762D01*
X221412295Y-103351952D02*
X221412295Y-102856714D01*
X221412295Y-102856714D02*
X221717057Y-103123380D01*
X221717057Y-103123380D02*
X221717057Y-103009095D01*
X221717057Y-103009095D02*
X221755152Y-102932904D01*
X221755152Y-102932904D02*
X221793247Y-102894809D01*
X221793247Y-102894809D02*
X221869438Y-102856714D01*
X221869438Y-102856714D02*
X222059914Y-102856714D01*
X222059914Y-102856714D02*
X222136104Y-102894809D01*
X222136104Y-102894809D02*
X222174200Y-102932904D01*
X222174200Y-102932904D02*
X222212295Y-103009095D01*
X222212295Y-103009095D02*
X222212295Y-103237666D01*
X222212295Y-103237666D02*
X222174200Y-103313857D01*
X222174200Y-103313857D02*
X222136104Y-103351952D01*
X229032295Y-104647190D02*
X229032295Y-104571000D01*
X229032295Y-104571000D02*
X229070390Y-104494809D01*
X229070390Y-104494809D02*
X229108485Y-104456714D01*
X229108485Y-104456714D02*
X229184676Y-104418619D01*
X229184676Y-104418619D02*
X229337057Y-104380524D01*
X229337057Y-104380524D02*
X229527533Y-104380524D01*
X229527533Y-104380524D02*
X229679914Y-104418619D01*
X229679914Y-104418619D02*
X229756104Y-104456714D01*
X229756104Y-104456714D02*
X229794200Y-104494809D01*
X229794200Y-104494809D02*
X229832295Y-104571000D01*
X229832295Y-104571000D02*
X229832295Y-104647190D01*
X229832295Y-104647190D02*
X229794200Y-104723381D01*
X229794200Y-104723381D02*
X229756104Y-104761476D01*
X229756104Y-104761476D02*
X229679914Y-104799571D01*
X229679914Y-104799571D02*
X229527533Y-104837667D01*
X229527533Y-104837667D02*
X229337057Y-104837667D01*
X229337057Y-104837667D02*
X229184676Y-104799571D01*
X229184676Y-104799571D02*
X229108485Y-104761476D01*
X229108485Y-104761476D02*
X229070390Y-104723381D01*
X229070390Y-104723381D02*
X229032295Y-104647190D01*
X229108485Y-104075762D02*
X229070390Y-104037666D01*
X229070390Y-104037666D02*
X229032295Y-103961476D01*
X229032295Y-103961476D02*
X229032295Y-103771000D01*
X229032295Y-103771000D02*
X229070390Y-103694809D01*
X229070390Y-103694809D02*
X229108485Y-103656714D01*
X229108485Y-103656714D02*
X229184676Y-103618619D01*
X229184676Y-103618619D02*
X229260866Y-103618619D01*
X229260866Y-103618619D02*
X229375152Y-103656714D01*
X229375152Y-103656714D02*
X229832295Y-104113857D01*
X229832295Y-104113857D02*
X229832295Y-103618619D01*
X229832295Y-103237666D02*
X229832295Y-103085285D01*
X229832295Y-103085285D02*
X229794200Y-103009095D01*
X229794200Y-103009095D02*
X229756104Y-102970999D01*
X229756104Y-102970999D02*
X229641819Y-102894809D01*
X229641819Y-102894809D02*
X229489438Y-102856714D01*
X229489438Y-102856714D02*
X229184676Y-102856714D01*
X229184676Y-102856714D02*
X229108485Y-102894809D01*
X229108485Y-102894809D02*
X229070390Y-102932904D01*
X229070390Y-102932904D02*
X229032295Y-103009095D01*
X229032295Y-103009095D02*
X229032295Y-103161476D01*
X229032295Y-103161476D02*
X229070390Y-103237666D01*
X229070390Y-103237666D02*
X229108485Y-103275761D01*
X229108485Y-103275761D02*
X229184676Y-103313857D01*
X229184676Y-103313857D02*
X229375152Y-103313857D01*
X229375152Y-103313857D02*
X229451342Y-103275761D01*
X229451342Y-103275761D02*
X229489438Y-103237666D01*
X229489438Y-103237666D02*
X229527533Y-103161476D01*
X229527533Y-103161476D02*
X229527533Y-103009095D01*
X229527533Y-103009095D02*
X229489438Y-102932904D01*
X229489438Y-102932904D02*
X229451342Y-102894809D01*
X229451342Y-102894809D02*
X229375152Y-102856714D01*
X228962295Y-93572809D02*
X228962295Y-93496619D01*
X228962295Y-93496619D02*
X229000390Y-93420428D01*
X229000390Y-93420428D02*
X229038485Y-93382333D01*
X229038485Y-93382333D02*
X229114676Y-93344238D01*
X229114676Y-93344238D02*
X229267057Y-93306143D01*
X229267057Y-93306143D02*
X229457533Y-93306143D01*
X229457533Y-93306143D02*
X229609914Y-93344238D01*
X229609914Y-93344238D02*
X229686104Y-93382333D01*
X229686104Y-93382333D02*
X229724200Y-93420428D01*
X229724200Y-93420428D02*
X229762295Y-93496619D01*
X229762295Y-93496619D02*
X229762295Y-93572809D01*
X229762295Y-93572809D02*
X229724200Y-93649000D01*
X229724200Y-93649000D02*
X229686104Y-93687095D01*
X229686104Y-93687095D02*
X229609914Y-93725190D01*
X229609914Y-93725190D02*
X229457533Y-93763286D01*
X229457533Y-93763286D02*
X229267057Y-93763286D01*
X229267057Y-93763286D02*
X229114676Y-93725190D01*
X229114676Y-93725190D02*
X229038485Y-93687095D01*
X229038485Y-93687095D02*
X229000390Y-93649000D01*
X229000390Y-93649000D02*
X228962295Y-93572809D01*
X229038485Y-93001381D02*
X229000390Y-92963285D01*
X229000390Y-92963285D02*
X228962295Y-92887095D01*
X228962295Y-92887095D02*
X228962295Y-92696619D01*
X228962295Y-92696619D02*
X229000390Y-92620428D01*
X229000390Y-92620428D02*
X229038485Y-92582333D01*
X229038485Y-92582333D02*
X229114676Y-92544238D01*
X229114676Y-92544238D02*
X229190866Y-92544238D01*
X229190866Y-92544238D02*
X229305152Y-92582333D01*
X229305152Y-92582333D02*
X229762295Y-93039476D01*
X229762295Y-93039476D02*
X229762295Y-92544238D01*
X228962295Y-92048999D02*
X228962295Y-91972809D01*
X228962295Y-91972809D02*
X229000390Y-91896618D01*
X229000390Y-91896618D02*
X229038485Y-91858523D01*
X229038485Y-91858523D02*
X229114676Y-91820428D01*
X229114676Y-91820428D02*
X229267057Y-91782333D01*
X229267057Y-91782333D02*
X229457533Y-91782333D01*
X229457533Y-91782333D02*
X229609914Y-91820428D01*
X229609914Y-91820428D02*
X229686104Y-91858523D01*
X229686104Y-91858523D02*
X229724200Y-91896618D01*
X229724200Y-91896618D02*
X229762295Y-91972809D01*
X229762295Y-91972809D02*
X229762295Y-92048999D01*
X229762295Y-92048999D02*
X229724200Y-92125190D01*
X229724200Y-92125190D02*
X229686104Y-92163285D01*
X229686104Y-92163285D02*
X229609914Y-92201380D01*
X229609914Y-92201380D02*
X229457533Y-92239476D01*
X229457533Y-92239476D02*
X229267057Y-92239476D01*
X229267057Y-92239476D02*
X229114676Y-92201380D01*
X229114676Y-92201380D02*
X229038485Y-92163285D01*
X229038485Y-92163285D02*
X229000390Y-92125190D01*
X229000390Y-92125190D02*
X228962295Y-92048999D01*
D12*
%TO.C,D8*%
X188350000Y-113810000D02*
X189150000Y-113810000D01*
X188750000Y-113810000D02*
X188750000Y-113310000D01*
X188750000Y-114410000D02*
X188200000Y-114410000D01*
X188750000Y-114410000D02*
X188350000Y-113810000D01*
X188750000Y-114410000D02*
X189300000Y-114410000D01*
X188750000Y-114810000D02*
X188750000Y-114410000D01*
X189150000Y-113810000D02*
X188750000Y-114410000D01*
%TO.C,D17*%
X244600000Y-153310000D02*
X245400000Y-153310000D01*
X245000000Y-153310000D02*
X245000000Y-152810000D01*
X245000000Y-153910000D02*
X244450000Y-153910000D01*
X245000000Y-153910000D02*
X244600000Y-153310000D01*
X245000000Y-153910000D02*
X245550000Y-153910000D01*
X245000000Y-154310000D02*
X245000000Y-153910000D01*
X245400000Y-153310000D02*
X245000000Y-153910000D01*
%TO.C,D16*%
X225850000Y-97060000D02*
X226650000Y-97060000D01*
X226250000Y-97060000D02*
X226250000Y-96560000D01*
X226250000Y-97660000D02*
X225700000Y-97660000D01*
X226250000Y-97660000D02*
X225850000Y-97060000D01*
X226250000Y-97660000D02*
X226800000Y-97660000D01*
X226250000Y-98060000D02*
X226250000Y-97660000D01*
X226650000Y-97060000D02*
X226250000Y-97660000D01*
%TO.C,D1*%
X150850000Y-156310000D02*
X151650000Y-156310000D01*
X151250000Y-156310000D02*
X151250000Y-155810000D01*
X151250000Y-156910000D02*
X150700000Y-156910000D01*
X151250000Y-156910000D02*
X150850000Y-156310000D01*
X151250000Y-156910000D02*
X151800000Y-156910000D01*
X151250000Y-157310000D02*
X151250000Y-156910000D01*
X151650000Y-156310000D02*
X151250000Y-156910000D01*
%TO.C,D9*%
X188350000Y-96060000D02*
X189150000Y-96060000D01*
X188750000Y-96060000D02*
X188750000Y-95560000D01*
X188750000Y-96660000D02*
X188200000Y-96660000D01*
X188750000Y-96660000D02*
X188350000Y-96060000D01*
X188750000Y-96660000D02*
X189300000Y-96660000D01*
X188750000Y-97060000D02*
X188750000Y-96660000D01*
X189150000Y-96060000D02*
X188750000Y-96660000D01*
%TO.C,D11*%
X207100000Y-126560000D02*
X207900000Y-126560000D01*
X207500000Y-126560000D02*
X207500000Y-126060000D01*
X207500000Y-127160000D02*
X206950000Y-127160000D01*
X207500000Y-127160000D02*
X207100000Y-126560000D01*
X207500000Y-127160000D02*
X208050000Y-127160000D01*
X207500000Y-127560000D02*
X207500000Y-127160000D01*
X207900000Y-126560000D02*
X207500000Y-127160000D01*
D13*
%TO.C,MCU1*%
X212960000Y-89420000D02*
X212960000Y-107200000D01*
X212960000Y-107200000D02*
X245980000Y-107200000D01*
X245980000Y-89420000D02*
X212960000Y-89420000D01*
X245980000Y-107200000D02*
X245980000Y-89420000D01*
D12*
%TO.C,D3*%
X169600000Y-156310000D02*
X170400000Y-156310000D01*
X170000000Y-156310000D02*
X170000000Y-155810000D01*
X170000000Y-156910000D02*
X169450000Y-156910000D01*
X170000000Y-156910000D02*
X169600000Y-156310000D01*
X170000000Y-156910000D02*
X170550000Y-156910000D01*
X170000000Y-157310000D02*
X170000000Y-156910000D01*
X170400000Y-156310000D02*
X170000000Y-156910000D01*
%TO.C,D7*%
X188350000Y-149310000D02*
X189150000Y-149310000D01*
X188750000Y-149310000D02*
X188750000Y-148810000D01*
X188750000Y-149910000D02*
X188200000Y-149910000D01*
X188750000Y-149910000D02*
X188350000Y-149310000D01*
X188750000Y-149910000D02*
X189300000Y-149910000D01*
X188750000Y-150310000D02*
X188750000Y-149910000D01*
X189150000Y-149310000D02*
X188750000Y-149910000D01*
%TO.C,D4*%
X169600000Y-138560000D02*
X170400000Y-138560000D01*
X170000000Y-138560000D02*
X170000000Y-138060000D01*
X170000000Y-139160000D02*
X169450000Y-139160000D01*
X170000000Y-139160000D02*
X169600000Y-138560000D01*
X170000000Y-139160000D02*
X170550000Y-139160000D01*
X170000000Y-139560000D02*
X170000000Y-139160000D01*
X170400000Y-138560000D02*
X170000000Y-139160000D01*
%TO.C,D5*%
X169600000Y-120810000D02*
X170400000Y-120810000D01*
X170000000Y-120810000D02*
X170000000Y-120310000D01*
X170000000Y-121410000D02*
X169450000Y-121410000D01*
X170000000Y-121410000D02*
X169600000Y-120810000D01*
X170000000Y-121410000D02*
X170550000Y-121410000D01*
X170000000Y-121810000D02*
X170000000Y-121410000D01*
X170400000Y-120810000D02*
X170000000Y-121410000D01*
%TO.C,D2*%
X150850000Y-120810000D02*
X151650000Y-120810000D01*
X151250000Y-120810000D02*
X151250000Y-120310000D01*
X151250000Y-121410000D02*
X150700000Y-121410000D01*
X151250000Y-121410000D02*
X150850000Y-120810000D01*
X151250000Y-121410000D02*
X151800000Y-121410000D01*
X151250000Y-121810000D02*
X151250000Y-121410000D01*
X151650000Y-120810000D02*
X151250000Y-121410000D01*
%TO.C,D21*%
X244600000Y-130310000D02*
X245400000Y-130310000D01*
X245000000Y-130310000D02*
X245000000Y-129810000D01*
X245000000Y-130910000D02*
X244450000Y-130910000D01*
X245000000Y-130910000D02*
X244600000Y-130310000D01*
X245000000Y-130910000D02*
X245550000Y-130910000D01*
X245000000Y-131310000D02*
X245000000Y-130910000D01*
X245400000Y-130310000D02*
X245000000Y-130910000D01*
%TO.C,D23*%
X150850000Y-131560000D02*
X151650000Y-131560000D01*
X151250000Y-131560000D02*
X151250000Y-131060000D01*
X151250000Y-132160000D02*
X150700000Y-132160000D01*
X151250000Y-132160000D02*
X150850000Y-131560000D01*
X151250000Y-132160000D02*
X151800000Y-132160000D01*
X151250000Y-132560000D02*
X151250000Y-132160000D01*
X151650000Y-131560000D02*
X151250000Y-132160000D01*
%TO.C,D6*%
X169600000Y-103060000D02*
X170400000Y-103060000D01*
X170000000Y-103060000D02*
X170000000Y-102560000D01*
X170000000Y-103660000D02*
X169450000Y-103660000D01*
X170000000Y-103660000D02*
X169600000Y-103060000D01*
X170000000Y-103660000D02*
X170550000Y-103660000D01*
X170000000Y-104060000D02*
X170000000Y-103660000D01*
X170400000Y-103060000D02*
X170000000Y-103660000D01*
%TO.C,D25*%
X188350000Y-124560000D02*
X189150000Y-124560000D01*
X188750000Y-124560000D02*
X188750000Y-124060000D01*
X188750000Y-125160000D02*
X188200000Y-125160000D01*
X188750000Y-125160000D02*
X188350000Y-124560000D01*
X188750000Y-125160000D02*
X189300000Y-125160000D01*
X188750000Y-125560000D02*
X188750000Y-125160000D01*
X189150000Y-124560000D02*
X188750000Y-125160000D01*
%TO.C,D24*%
X150850000Y-96060000D02*
X151650000Y-96060000D01*
X151250000Y-96060000D02*
X151250000Y-95560000D01*
X151250000Y-96660000D02*
X150700000Y-96660000D01*
X151250000Y-96660000D02*
X150850000Y-96060000D01*
X151250000Y-96660000D02*
X151800000Y-96660000D01*
X151250000Y-97060000D02*
X151250000Y-96660000D01*
X151650000Y-96060000D02*
X151250000Y-96660000D01*
%TO.C,D14*%
X225850000Y-132560000D02*
X226650000Y-132560000D01*
X226250000Y-132560000D02*
X226250000Y-132060000D01*
X226250000Y-133160000D02*
X225700000Y-133160000D01*
X226250000Y-133160000D02*
X225850000Y-132560000D01*
X226250000Y-133160000D02*
X226800000Y-133160000D01*
X226250000Y-133560000D02*
X226250000Y-133160000D01*
X226650000Y-132560000D02*
X226250000Y-133160000D01*
%TO.C,D22*%
X244600000Y-141560000D02*
X245400000Y-141560000D01*
X245000000Y-141560000D02*
X245000000Y-141060000D01*
X245000000Y-142160000D02*
X244450000Y-142160000D01*
X245000000Y-142160000D02*
X244600000Y-141560000D01*
X245000000Y-142160000D02*
X245550000Y-142160000D01*
X245000000Y-142560000D02*
X245000000Y-142160000D01*
X245400000Y-141560000D02*
X245000000Y-142160000D01*
%TO.C,D18*%
X244600000Y-100060000D02*
X245400000Y-100060000D01*
X245000000Y-100060000D02*
X245000000Y-99560000D01*
X245000000Y-100660000D02*
X244450000Y-100660000D01*
X245000000Y-100660000D02*
X244600000Y-100060000D01*
X245000000Y-100660000D02*
X245550000Y-100660000D01*
X245000000Y-101060000D02*
X245000000Y-100660000D01*
X245400000Y-100060000D02*
X245000000Y-100660000D01*
%TO.C,D26*%
X207100000Y-109810000D02*
X207900000Y-109810000D01*
X207500000Y-109810000D02*
X207500000Y-109310000D01*
X207500000Y-110410000D02*
X206950000Y-110410000D01*
X207500000Y-110410000D02*
X207100000Y-109810000D01*
X207500000Y-110410000D02*
X208050000Y-110410000D01*
X207500000Y-110810000D02*
X207500000Y-110410000D01*
X207900000Y-109810000D02*
X207500000Y-110410000D01*
%TO.C,D12*%
X207100000Y-91060000D02*
X207900000Y-91060000D01*
X207500000Y-91060000D02*
X207500000Y-90560000D01*
X207500000Y-91660000D02*
X206950000Y-91660000D01*
X207500000Y-91660000D02*
X207100000Y-91060000D01*
X207500000Y-91660000D02*
X208050000Y-91660000D01*
X207500000Y-92060000D02*
X207500000Y-91660000D01*
X207900000Y-91060000D02*
X207500000Y-91660000D01*
%TO.C,D20*%
X256786390Y-201797004D02*
X257142793Y-201615408D01*
X257142793Y-201615408D02*
X256893098Y-201125354D01*
X257142793Y-201615408D02*
X257392487Y-202105461D01*
X257142793Y-201615408D02*
X257495800Y-200986611D01*
X257495800Y-200986611D02*
X257858993Y-201699416D01*
X257677397Y-201343013D02*
X258122900Y-201116018D01*
X257858993Y-201699416D02*
X257142793Y-201615408D01*
%TO.C,D15*%
X225850000Y-114810000D02*
X226650000Y-114810000D01*
X226250000Y-114810000D02*
X226250000Y-114310000D01*
X226250000Y-115410000D02*
X225700000Y-115410000D01*
X226250000Y-115410000D02*
X225850000Y-114810000D01*
X226250000Y-115410000D02*
X226800000Y-115410000D01*
X226250000Y-115810000D02*
X226250000Y-115410000D01*
X226650000Y-114810000D02*
X226250000Y-115410000D01*
%TO.C,D10*%
X207100000Y-144310000D02*
X207900000Y-144310000D01*
X207500000Y-144310000D02*
X207500000Y-143810000D01*
X207500000Y-144910000D02*
X206950000Y-144910000D01*
X207500000Y-144910000D02*
X207100000Y-144310000D01*
X207500000Y-144910000D02*
X208050000Y-144910000D01*
X207500000Y-145310000D02*
X207500000Y-144910000D01*
X207900000Y-144310000D02*
X207500000Y-144910000D01*
%TO.C,D13*%
X225850000Y-150310000D02*
X226650000Y-150310000D01*
X226250000Y-150310000D02*
X226250000Y-149810000D01*
X226250000Y-150910000D02*
X225700000Y-150910000D01*
X226250000Y-150910000D02*
X225850000Y-150310000D01*
X226250000Y-150910000D02*
X226800000Y-150910000D01*
X226250000Y-151310000D02*
X226250000Y-150910000D01*
X226650000Y-150310000D02*
X226250000Y-150910000D01*
%TO.C,D19*%
X244188911Y-182382447D02*
X244418341Y-182054786D01*
X244418341Y-182054786D02*
X243967808Y-181739319D01*
X244418341Y-182054786D02*
X244434826Y-181333864D01*
X244418341Y-182054786D02*
X244868875Y-182370253D01*
X244434826Y-181333864D02*
X245090148Y-181792726D01*
X244762487Y-181563295D02*
X245049275Y-181153719D01*
X245090148Y-181792726D02*
X244418341Y-182054786D01*
%TD*%
D14*
%TO.C,MCU1*%
X242170000Y-90690000D03*
X239630000Y-90690000D03*
X237090000Y-90690000D03*
X234550000Y-90690000D03*
X232010000Y-90690000D03*
X229470000Y-90690000D03*
X226930000Y-90690000D03*
X224390000Y-90690000D03*
X221850000Y-90690000D03*
X219310000Y-90690000D03*
X216770000Y-90690000D03*
X214230000Y-90690000D03*
X214230000Y-105930000D03*
X216770000Y-105930000D03*
X219310000Y-105930000D03*
X221850000Y-105930000D03*
X224390000Y-105930000D03*
X226930000Y-105930000D03*
X229470000Y-105930000D03*
X232010000Y-105930000D03*
X234550000Y-105930000D03*
X237090000Y-105930000D03*
X239630000Y-105930000D03*
X242170000Y-105930000D03*
%TD*%
D15*
%TO.C,*%
X228200000Y-141560000D03*
%TD*%
%TO.C,*%
X190700000Y-132560000D03*
%TD*%
%TO.C,*%
X153200000Y-108310000D03*
%TD*%
%TO.C,*%
X152450000Y-143810000D03*
%TD*%
%TO.C,*%
X209450000Y-103060000D03*
%TD*%
M02*
