%TF.GenerationSoftware,KiCad,Pcbnew,8.0.6*%
%TF.CreationDate,2024-11-04T13:34:25+01:00*%
%TF.ProjectId,left,6c656674-2e6b-4696-9361-645f70636258,v1.0.0*%
%TF.SameCoordinates,Original*%
%TF.FileFunction,Legend,Bot*%
%TF.FilePolarity,Positive*%
%FSLAX46Y46*%
G04 Gerber Fmt 4.6, Leading zero omitted, Abs format (unit mm)*
G04 Created by KiCad (PCBNEW 8.0.6) date 2024-11-04 13:34:25*
%MOMM*%
%LPD*%
G01*
G04 APERTURE LIST*
%ADD10C,0.150000*%
%ADD11C,0.100000*%
%ADD12C,0.381000*%
%ADD13C,0.120000*%
%ADD14C,1.752600*%
G04 APERTURE END LIST*
D10*
X239230390Y-103155143D02*
X239192295Y-103078953D01*
X239192295Y-103078953D02*
X239192295Y-102964667D01*
X239192295Y-102964667D02*
X239230390Y-102850381D01*
X239230390Y-102850381D02*
X239306580Y-102774191D01*
X239306580Y-102774191D02*
X239382771Y-102736096D01*
X239382771Y-102736096D02*
X239535152Y-102698000D01*
X239535152Y-102698000D02*
X239649438Y-102698000D01*
X239649438Y-102698000D02*
X239801819Y-102736096D01*
X239801819Y-102736096D02*
X239878009Y-102774191D01*
X239878009Y-102774191D02*
X239954200Y-102850381D01*
X239954200Y-102850381D02*
X239992295Y-102964667D01*
X239992295Y-102964667D02*
X239992295Y-103040858D01*
X239992295Y-103040858D02*
X239954200Y-103155143D01*
X239954200Y-103155143D02*
X239916104Y-103193239D01*
X239916104Y-103193239D02*
X239649438Y-103193239D01*
X239649438Y-103193239D02*
X239649438Y-103040858D01*
X239992295Y-103536096D02*
X239192295Y-103536096D01*
X239192295Y-103536096D02*
X239992295Y-103993239D01*
X239992295Y-103993239D02*
X239192295Y-103993239D01*
X239992295Y-104374191D02*
X239192295Y-104374191D01*
X239192295Y-104374191D02*
X239192295Y-104564667D01*
X239192295Y-104564667D02*
X239230390Y-104678953D01*
X239230390Y-104678953D02*
X239306580Y-104755143D01*
X239306580Y-104755143D02*
X239382771Y-104793238D01*
X239382771Y-104793238D02*
X239535152Y-104831334D01*
X239535152Y-104831334D02*
X239649438Y-104831334D01*
X239649438Y-104831334D02*
X239801819Y-104793238D01*
X239801819Y-104793238D02*
X239878009Y-104755143D01*
X239878009Y-104755143D02*
X239954200Y-104678953D01*
X239954200Y-104678953D02*
X239992295Y-104564667D01*
X239992295Y-104564667D02*
X239992295Y-104374191D01*
X242532295Y-103231334D02*
X242151342Y-102964667D01*
X242532295Y-102774191D02*
X241732295Y-102774191D01*
X241732295Y-102774191D02*
X241732295Y-103078953D01*
X241732295Y-103078953D02*
X241770390Y-103155143D01*
X241770390Y-103155143D02*
X241808485Y-103193238D01*
X241808485Y-103193238D02*
X241884676Y-103231334D01*
X241884676Y-103231334D02*
X241998961Y-103231334D01*
X241998961Y-103231334D02*
X242075152Y-103193238D01*
X242075152Y-103193238D02*
X242113247Y-103155143D01*
X242113247Y-103155143D02*
X242151342Y-103078953D01*
X242151342Y-103078953D02*
X242151342Y-102774191D01*
X242303723Y-103536095D02*
X242303723Y-103917048D01*
X242532295Y-103459905D02*
X241732295Y-103726572D01*
X241732295Y-103726572D02*
X242532295Y-103993238D01*
X241732295Y-104183714D02*
X242532295Y-104374190D01*
X242532295Y-104374190D02*
X241960866Y-104526571D01*
X241960866Y-104526571D02*
X242532295Y-104678952D01*
X242532295Y-104678952D02*
X241732295Y-104869429D01*
X234112295Y-102780524D02*
X234912295Y-103047191D01*
X234912295Y-103047191D02*
X234112295Y-103313857D01*
X234836104Y-104037667D02*
X234874200Y-103999571D01*
X234874200Y-103999571D02*
X234912295Y-103885286D01*
X234912295Y-103885286D02*
X234912295Y-103809095D01*
X234912295Y-103809095D02*
X234874200Y-103694809D01*
X234874200Y-103694809D02*
X234798009Y-103618619D01*
X234798009Y-103618619D02*
X234721819Y-103580524D01*
X234721819Y-103580524D02*
X234569438Y-103542428D01*
X234569438Y-103542428D02*
X234455152Y-103542428D01*
X234455152Y-103542428D02*
X234302771Y-103580524D01*
X234302771Y-103580524D02*
X234226580Y-103618619D01*
X234226580Y-103618619D02*
X234150390Y-103694809D01*
X234150390Y-103694809D02*
X234112295Y-103809095D01*
X234112295Y-103809095D02*
X234112295Y-103885286D01*
X234112295Y-103885286D02*
X234150390Y-103999571D01*
X234150390Y-103999571D02*
X234188485Y-104037667D01*
X234836104Y-104837667D02*
X234874200Y-104799571D01*
X234874200Y-104799571D02*
X234912295Y-104685286D01*
X234912295Y-104685286D02*
X234912295Y-104609095D01*
X234912295Y-104609095D02*
X234874200Y-104494809D01*
X234874200Y-104494809D02*
X234798009Y-104418619D01*
X234798009Y-104418619D02*
X234721819Y-104380524D01*
X234721819Y-104380524D02*
X234569438Y-104342428D01*
X234569438Y-104342428D02*
X234455152Y-104342428D01*
X234455152Y-104342428D02*
X234302771Y-104380524D01*
X234302771Y-104380524D02*
X234226580Y-104418619D01*
X234226580Y-104418619D02*
X234150390Y-104494809D01*
X234150390Y-104494809D02*
X234112295Y-104609095D01*
X234112295Y-104609095D02*
X234112295Y-104685286D01*
X234112295Y-104685286D02*
X234150390Y-104799571D01*
X234150390Y-104799571D02*
X234188485Y-104837667D01*
X224752295Y-103313857D02*
X224752295Y-102856714D01*
X224752295Y-103085286D02*
X223952295Y-103085286D01*
X223952295Y-103085286D02*
X224066580Y-103009095D01*
X224066580Y-103009095D02*
X224142771Y-102932905D01*
X224142771Y-102932905D02*
X224180866Y-102856714D01*
X224752295Y-104075762D02*
X224752295Y-103618619D01*
X224752295Y-103847191D02*
X223952295Y-103847191D01*
X223952295Y-103847191D02*
X224066580Y-103771000D01*
X224066580Y-103771000D02*
X224142771Y-103694810D01*
X224142771Y-103694810D02*
X224180866Y-103618619D01*
X223952295Y-104799572D02*
X223952295Y-104418620D01*
X223952295Y-104418620D02*
X224333247Y-104380524D01*
X224333247Y-104380524D02*
X224295152Y-104418620D01*
X224295152Y-104418620D02*
X224257057Y-104494810D01*
X224257057Y-104494810D02*
X224257057Y-104685286D01*
X224257057Y-104685286D02*
X224295152Y-104761477D01*
X224295152Y-104761477D02*
X224333247Y-104799572D01*
X224333247Y-104799572D02*
X224409438Y-104837667D01*
X224409438Y-104837667D02*
X224599914Y-104837667D01*
X224599914Y-104837667D02*
X224676104Y-104799572D01*
X224676104Y-104799572D02*
X224714200Y-104761477D01*
X224714200Y-104761477D02*
X224752295Y-104685286D01*
X224752295Y-104685286D02*
X224752295Y-104494810D01*
X224752295Y-104494810D02*
X224714200Y-104418620D01*
X224714200Y-104418620D02*
X224676104Y-104380524D01*
X231562295Y-91972810D02*
X231562295Y-92049000D01*
X231562295Y-92049000D02*
X231600390Y-92125191D01*
X231600390Y-92125191D02*
X231638485Y-92163286D01*
X231638485Y-92163286D02*
X231714676Y-92201381D01*
X231714676Y-92201381D02*
X231867057Y-92239476D01*
X231867057Y-92239476D02*
X232057533Y-92239476D01*
X232057533Y-92239476D02*
X232209914Y-92201381D01*
X232209914Y-92201381D02*
X232286104Y-92163286D01*
X232286104Y-92163286D02*
X232324200Y-92125191D01*
X232324200Y-92125191D02*
X232362295Y-92049000D01*
X232362295Y-92049000D02*
X232362295Y-91972810D01*
X232362295Y-91972810D02*
X232324200Y-91896619D01*
X232324200Y-91896619D02*
X232286104Y-91858524D01*
X232286104Y-91858524D02*
X232209914Y-91820429D01*
X232209914Y-91820429D02*
X232057533Y-91782333D01*
X232057533Y-91782333D02*
X231867057Y-91782333D01*
X231867057Y-91782333D02*
X231714676Y-91820429D01*
X231714676Y-91820429D02*
X231638485Y-91858524D01*
X231638485Y-91858524D02*
X231600390Y-91896619D01*
X231600390Y-91896619D02*
X231562295Y-91972810D01*
X232362295Y-93001381D02*
X232362295Y-92544238D01*
X232362295Y-92772810D02*
X231562295Y-92772810D01*
X231562295Y-92772810D02*
X231676580Y-92696619D01*
X231676580Y-92696619D02*
X231752771Y-92620429D01*
X231752771Y-92620429D02*
X231790866Y-92544238D01*
X231562295Y-93268048D02*
X231562295Y-93801382D01*
X231562295Y-93801382D02*
X232362295Y-93458524D01*
X234150390Y-92239476D02*
X234112295Y-92163286D01*
X234112295Y-92163286D02*
X234112295Y-92049000D01*
X234112295Y-92049000D02*
X234150390Y-91934714D01*
X234150390Y-91934714D02*
X234226580Y-91858524D01*
X234226580Y-91858524D02*
X234302771Y-91820429D01*
X234302771Y-91820429D02*
X234455152Y-91782333D01*
X234455152Y-91782333D02*
X234569438Y-91782333D01*
X234569438Y-91782333D02*
X234721819Y-91820429D01*
X234721819Y-91820429D02*
X234798009Y-91858524D01*
X234798009Y-91858524D02*
X234874200Y-91934714D01*
X234874200Y-91934714D02*
X234912295Y-92049000D01*
X234912295Y-92049000D02*
X234912295Y-92125191D01*
X234912295Y-92125191D02*
X234874200Y-92239476D01*
X234874200Y-92239476D02*
X234836104Y-92277572D01*
X234836104Y-92277572D02*
X234569438Y-92277572D01*
X234569438Y-92277572D02*
X234569438Y-92125191D01*
X234912295Y-92620429D02*
X234112295Y-92620429D01*
X234112295Y-92620429D02*
X234912295Y-93077572D01*
X234912295Y-93077572D02*
X234112295Y-93077572D01*
X234912295Y-93458524D02*
X234112295Y-93458524D01*
X234112295Y-93458524D02*
X234112295Y-93649000D01*
X234112295Y-93649000D02*
X234150390Y-93763286D01*
X234150390Y-93763286D02*
X234226580Y-93839476D01*
X234226580Y-93839476D02*
X234302771Y-93877571D01*
X234302771Y-93877571D02*
X234455152Y-93915667D01*
X234455152Y-93915667D02*
X234569438Y-93915667D01*
X234569438Y-93915667D02*
X234721819Y-93877571D01*
X234721819Y-93877571D02*
X234798009Y-93839476D01*
X234798009Y-93839476D02*
X234874200Y-93763286D01*
X234874200Y-93763286D02*
X234912295Y-93649000D01*
X234912295Y-93649000D02*
X234912295Y-93458524D01*
X236690390Y-92239476D02*
X236652295Y-92163286D01*
X236652295Y-92163286D02*
X236652295Y-92049000D01*
X236652295Y-92049000D02*
X236690390Y-91934714D01*
X236690390Y-91934714D02*
X236766580Y-91858524D01*
X236766580Y-91858524D02*
X236842771Y-91820429D01*
X236842771Y-91820429D02*
X236995152Y-91782333D01*
X236995152Y-91782333D02*
X237109438Y-91782333D01*
X237109438Y-91782333D02*
X237261819Y-91820429D01*
X237261819Y-91820429D02*
X237338009Y-91858524D01*
X237338009Y-91858524D02*
X237414200Y-91934714D01*
X237414200Y-91934714D02*
X237452295Y-92049000D01*
X237452295Y-92049000D02*
X237452295Y-92125191D01*
X237452295Y-92125191D02*
X237414200Y-92239476D01*
X237414200Y-92239476D02*
X237376104Y-92277572D01*
X237376104Y-92277572D02*
X237109438Y-92277572D01*
X237109438Y-92277572D02*
X237109438Y-92125191D01*
X237452295Y-92620429D02*
X236652295Y-92620429D01*
X236652295Y-92620429D02*
X237452295Y-93077572D01*
X237452295Y-93077572D02*
X236652295Y-93077572D01*
X237452295Y-93458524D02*
X236652295Y-93458524D01*
X236652295Y-93458524D02*
X236652295Y-93649000D01*
X236652295Y-93649000D02*
X236690390Y-93763286D01*
X236690390Y-93763286D02*
X236766580Y-93839476D01*
X236766580Y-93839476D02*
X236842771Y-93877571D01*
X236842771Y-93877571D02*
X236995152Y-93915667D01*
X236995152Y-93915667D02*
X237109438Y-93915667D01*
X237109438Y-93915667D02*
X237261819Y-93877571D01*
X237261819Y-93877571D02*
X237338009Y-93839476D01*
X237338009Y-93839476D02*
X237414200Y-93763286D01*
X237414200Y-93763286D02*
X237452295Y-93649000D01*
X237452295Y-93649000D02*
X237452295Y-93458524D01*
X237452295Y-103459905D02*
X237071342Y-103193238D01*
X237452295Y-103002762D02*
X236652295Y-103002762D01*
X236652295Y-103002762D02*
X236652295Y-103307524D01*
X236652295Y-103307524D02*
X236690390Y-103383714D01*
X236690390Y-103383714D02*
X236728485Y-103421809D01*
X236728485Y-103421809D02*
X236804676Y-103459905D01*
X236804676Y-103459905D02*
X236918961Y-103459905D01*
X236918961Y-103459905D02*
X236995152Y-103421809D01*
X236995152Y-103421809D02*
X237033247Y-103383714D01*
X237033247Y-103383714D02*
X237071342Y-103307524D01*
X237071342Y-103307524D02*
X237071342Y-103002762D01*
X237414200Y-103764666D02*
X237452295Y-103878952D01*
X237452295Y-103878952D02*
X237452295Y-104069428D01*
X237452295Y-104069428D02*
X237414200Y-104145619D01*
X237414200Y-104145619D02*
X237376104Y-104183714D01*
X237376104Y-104183714D02*
X237299914Y-104221809D01*
X237299914Y-104221809D02*
X237223723Y-104221809D01*
X237223723Y-104221809D02*
X237147533Y-104183714D01*
X237147533Y-104183714D02*
X237109438Y-104145619D01*
X237109438Y-104145619D02*
X237071342Y-104069428D01*
X237071342Y-104069428D02*
X237033247Y-103917047D01*
X237033247Y-103917047D02*
X236995152Y-103840857D01*
X236995152Y-103840857D02*
X236957057Y-103802762D01*
X236957057Y-103802762D02*
X236880866Y-103764666D01*
X236880866Y-103764666D02*
X236804676Y-103764666D01*
X236804676Y-103764666D02*
X236728485Y-103802762D01*
X236728485Y-103802762D02*
X236690390Y-103840857D01*
X236690390Y-103840857D02*
X236652295Y-103917047D01*
X236652295Y-103917047D02*
X236652295Y-104107524D01*
X236652295Y-104107524D02*
X236690390Y-104221809D01*
X236652295Y-104450381D02*
X236652295Y-104907524D01*
X237452295Y-104678952D02*
X236652295Y-104678952D01*
X219672295Y-103313857D02*
X219672295Y-102856714D01*
X219672295Y-103085286D02*
X218872295Y-103085286D01*
X218872295Y-103085286D02*
X218986580Y-103009095D01*
X218986580Y-103009095D02*
X219062771Y-102932905D01*
X219062771Y-102932905D02*
X219100866Y-102856714D01*
X219672295Y-104075762D02*
X219672295Y-103618619D01*
X219672295Y-103847191D02*
X218872295Y-103847191D01*
X218872295Y-103847191D02*
X218986580Y-103771000D01*
X218986580Y-103771000D02*
X219062771Y-103694810D01*
X219062771Y-103694810D02*
X219100866Y-103618619D01*
X219672295Y-104837667D02*
X219672295Y-104380524D01*
X219672295Y-104609096D02*
X218872295Y-104609096D01*
X218872295Y-104609096D02*
X218986580Y-104532905D01*
X218986580Y-104532905D02*
X219062771Y-104456715D01*
X219062771Y-104456715D02*
X219100866Y-104380524D01*
X216332295Y-103047191D02*
X216332295Y-103123381D01*
X216332295Y-103123381D02*
X216370390Y-103199572D01*
X216370390Y-103199572D02*
X216408485Y-103237667D01*
X216408485Y-103237667D02*
X216484676Y-103275762D01*
X216484676Y-103275762D02*
X216637057Y-103313857D01*
X216637057Y-103313857D02*
X216827533Y-103313857D01*
X216827533Y-103313857D02*
X216979914Y-103275762D01*
X216979914Y-103275762D02*
X217056104Y-103237667D01*
X217056104Y-103237667D02*
X217094200Y-103199572D01*
X217094200Y-103199572D02*
X217132295Y-103123381D01*
X217132295Y-103123381D02*
X217132295Y-103047191D01*
X217132295Y-103047191D02*
X217094200Y-102971000D01*
X217094200Y-102971000D02*
X217056104Y-102932905D01*
X217056104Y-102932905D02*
X216979914Y-102894810D01*
X216979914Y-102894810D02*
X216827533Y-102856714D01*
X216827533Y-102856714D02*
X216637057Y-102856714D01*
X216637057Y-102856714D02*
X216484676Y-102894810D01*
X216484676Y-102894810D02*
X216408485Y-102932905D01*
X216408485Y-102932905D02*
X216370390Y-102971000D01*
X216370390Y-102971000D02*
X216332295Y-103047191D01*
X217132295Y-104075762D02*
X217132295Y-103618619D01*
X217132295Y-103847191D02*
X216332295Y-103847191D01*
X216332295Y-103847191D02*
X216446580Y-103771000D01*
X216446580Y-103771000D02*
X216522771Y-103694810D01*
X216522771Y-103694810D02*
X216560866Y-103618619D01*
X216332295Y-104571001D02*
X216332295Y-104647191D01*
X216332295Y-104647191D02*
X216370390Y-104723382D01*
X216370390Y-104723382D02*
X216408485Y-104761477D01*
X216408485Y-104761477D02*
X216484676Y-104799572D01*
X216484676Y-104799572D02*
X216637057Y-104837667D01*
X216637057Y-104837667D02*
X216827533Y-104837667D01*
X216827533Y-104837667D02*
X216979914Y-104799572D01*
X216979914Y-104799572D02*
X217056104Y-104761477D01*
X217056104Y-104761477D02*
X217094200Y-104723382D01*
X217094200Y-104723382D02*
X217132295Y-104647191D01*
X217132295Y-104647191D02*
X217132295Y-104571001D01*
X217132295Y-104571001D02*
X217094200Y-104494810D01*
X217094200Y-104494810D02*
X217056104Y-104456715D01*
X217056104Y-104456715D02*
X216979914Y-104418620D01*
X216979914Y-104418620D02*
X216827533Y-104380524D01*
X216827533Y-104380524D02*
X216637057Y-104380524D01*
X216637057Y-104380524D02*
X216484676Y-104418620D01*
X216484676Y-104418620D02*
X216408485Y-104456715D01*
X216408485Y-104456715D02*
X216370390Y-104494810D01*
X216370390Y-104494810D02*
X216332295Y-104571001D01*
X229032295Y-103047191D02*
X229032295Y-103123381D01*
X229032295Y-103123381D02*
X229070390Y-103199572D01*
X229070390Y-103199572D02*
X229108485Y-103237667D01*
X229108485Y-103237667D02*
X229184676Y-103275762D01*
X229184676Y-103275762D02*
X229337057Y-103313857D01*
X229337057Y-103313857D02*
X229527533Y-103313857D01*
X229527533Y-103313857D02*
X229679914Y-103275762D01*
X229679914Y-103275762D02*
X229756104Y-103237667D01*
X229756104Y-103237667D02*
X229794200Y-103199572D01*
X229794200Y-103199572D02*
X229832295Y-103123381D01*
X229832295Y-103123381D02*
X229832295Y-103047191D01*
X229832295Y-103047191D02*
X229794200Y-102971000D01*
X229794200Y-102971000D02*
X229756104Y-102932905D01*
X229756104Y-102932905D02*
X229679914Y-102894810D01*
X229679914Y-102894810D02*
X229527533Y-102856714D01*
X229527533Y-102856714D02*
X229337057Y-102856714D01*
X229337057Y-102856714D02*
X229184676Y-102894810D01*
X229184676Y-102894810D02*
X229108485Y-102932905D01*
X229108485Y-102932905D02*
X229070390Y-102971000D01*
X229070390Y-102971000D02*
X229032295Y-103047191D01*
X229108485Y-103618619D02*
X229070390Y-103656715D01*
X229070390Y-103656715D02*
X229032295Y-103732905D01*
X229032295Y-103732905D02*
X229032295Y-103923381D01*
X229032295Y-103923381D02*
X229070390Y-103999572D01*
X229070390Y-103999572D02*
X229108485Y-104037667D01*
X229108485Y-104037667D02*
X229184676Y-104075762D01*
X229184676Y-104075762D02*
X229260866Y-104075762D01*
X229260866Y-104075762D02*
X229375152Y-104037667D01*
X229375152Y-104037667D02*
X229832295Y-103580524D01*
X229832295Y-103580524D02*
X229832295Y-104075762D01*
X229832295Y-104456715D02*
X229832295Y-104609096D01*
X229832295Y-104609096D02*
X229794200Y-104685286D01*
X229794200Y-104685286D02*
X229756104Y-104723382D01*
X229756104Y-104723382D02*
X229641819Y-104799572D01*
X229641819Y-104799572D02*
X229489438Y-104837667D01*
X229489438Y-104837667D02*
X229184676Y-104837667D01*
X229184676Y-104837667D02*
X229108485Y-104799572D01*
X229108485Y-104799572D02*
X229070390Y-104761477D01*
X229070390Y-104761477D02*
X229032295Y-104685286D01*
X229032295Y-104685286D02*
X229032295Y-104532905D01*
X229032295Y-104532905D02*
X229070390Y-104456715D01*
X229070390Y-104456715D02*
X229108485Y-104418620D01*
X229108485Y-104418620D02*
X229184676Y-104380524D01*
X229184676Y-104380524D02*
X229375152Y-104380524D01*
X229375152Y-104380524D02*
X229451342Y-104418620D01*
X229451342Y-104418620D02*
X229489438Y-104456715D01*
X229489438Y-104456715D02*
X229527533Y-104532905D01*
X229527533Y-104532905D02*
X229527533Y-104685286D01*
X229527533Y-104685286D02*
X229489438Y-104761477D01*
X229489438Y-104761477D02*
X229451342Y-104799572D01*
X229451342Y-104799572D02*
X229375152Y-104837667D01*
X241732295Y-91972810D02*
X241732295Y-92049000D01*
X241732295Y-92049000D02*
X241770390Y-92125191D01*
X241770390Y-92125191D02*
X241808485Y-92163286D01*
X241808485Y-92163286D02*
X241884676Y-92201381D01*
X241884676Y-92201381D02*
X242037057Y-92239476D01*
X242037057Y-92239476D02*
X242227533Y-92239476D01*
X242227533Y-92239476D02*
X242379914Y-92201381D01*
X242379914Y-92201381D02*
X242456104Y-92163286D01*
X242456104Y-92163286D02*
X242494200Y-92125191D01*
X242494200Y-92125191D02*
X242532295Y-92049000D01*
X242532295Y-92049000D02*
X242532295Y-91972810D01*
X242532295Y-91972810D02*
X242494200Y-91896619D01*
X242494200Y-91896619D02*
X242456104Y-91858524D01*
X242456104Y-91858524D02*
X242379914Y-91820429D01*
X242379914Y-91820429D02*
X242227533Y-91782333D01*
X242227533Y-91782333D02*
X242037057Y-91782333D01*
X242037057Y-91782333D02*
X241884676Y-91820429D01*
X241884676Y-91820429D02*
X241808485Y-91858524D01*
X241808485Y-91858524D02*
X241770390Y-91896619D01*
X241770390Y-91896619D02*
X241732295Y-91972810D01*
X241732295Y-92734715D02*
X241732295Y-92810905D01*
X241732295Y-92810905D02*
X241770390Y-92887096D01*
X241770390Y-92887096D02*
X241808485Y-92925191D01*
X241808485Y-92925191D02*
X241884676Y-92963286D01*
X241884676Y-92963286D02*
X242037057Y-93001381D01*
X242037057Y-93001381D02*
X242227533Y-93001381D01*
X242227533Y-93001381D02*
X242379914Y-92963286D01*
X242379914Y-92963286D02*
X242456104Y-92925191D01*
X242456104Y-92925191D02*
X242494200Y-92887096D01*
X242494200Y-92887096D02*
X242532295Y-92810905D01*
X242532295Y-92810905D02*
X242532295Y-92734715D01*
X242532295Y-92734715D02*
X242494200Y-92658524D01*
X242494200Y-92658524D02*
X242456104Y-92620429D01*
X242456104Y-92620429D02*
X242379914Y-92582334D01*
X242379914Y-92582334D02*
X242227533Y-92544238D01*
X242227533Y-92544238D02*
X242037057Y-92544238D01*
X242037057Y-92544238D02*
X241884676Y-92582334D01*
X241884676Y-92582334D02*
X241808485Y-92620429D01*
X241808485Y-92620429D02*
X241770390Y-92658524D01*
X241770390Y-92658524D02*
X241732295Y-92734715D01*
X241732295Y-93687096D02*
X241732295Y-93534715D01*
X241732295Y-93534715D02*
X241770390Y-93458524D01*
X241770390Y-93458524D02*
X241808485Y-93420429D01*
X241808485Y-93420429D02*
X241922771Y-93344239D01*
X241922771Y-93344239D02*
X242075152Y-93306143D01*
X242075152Y-93306143D02*
X242379914Y-93306143D01*
X242379914Y-93306143D02*
X242456104Y-93344239D01*
X242456104Y-93344239D02*
X242494200Y-93382334D01*
X242494200Y-93382334D02*
X242532295Y-93458524D01*
X242532295Y-93458524D02*
X242532295Y-93610905D01*
X242532295Y-93610905D02*
X242494200Y-93687096D01*
X242494200Y-93687096D02*
X242456104Y-93725191D01*
X242456104Y-93725191D02*
X242379914Y-93763286D01*
X242379914Y-93763286D02*
X242189438Y-93763286D01*
X242189438Y-93763286D02*
X242113247Y-93725191D01*
X242113247Y-93725191D02*
X242075152Y-93687096D01*
X242075152Y-93687096D02*
X242037057Y-93610905D01*
X242037057Y-93610905D02*
X242037057Y-93458524D01*
X242037057Y-93458524D02*
X242075152Y-93382334D01*
X242075152Y-93382334D02*
X242113247Y-93344239D01*
X242113247Y-93344239D02*
X242189438Y-93306143D01*
X226492295Y-103047191D02*
X226492295Y-103123381D01*
X226492295Y-103123381D02*
X226530390Y-103199572D01*
X226530390Y-103199572D02*
X226568485Y-103237667D01*
X226568485Y-103237667D02*
X226644676Y-103275762D01*
X226644676Y-103275762D02*
X226797057Y-103313857D01*
X226797057Y-103313857D02*
X226987533Y-103313857D01*
X226987533Y-103313857D02*
X227139914Y-103275762D01*
X227139914Y-103275762D02*
X227216104Y-103237667D01*
X227216104Y-103237667D02*
X227254200Y-103199572D01*
X227254200Y-103199572D02*
X227292295Y-103123381D01*
X227292295Y-103123381D02*
X227292295Y-103047191D01*
X227292295Y-103047191D02*
X227254200Y-102971000D01*
X227254200Y-102971000D02*
X227216104Y-102932905D01*
X227216104Y-102932905D02*
X227139914Y-102894810D01*
X227139914Y-102894810D02*
X226987533Y-102856714D01*
X226987533Y-102856714D02*
X226797057Y-102856714D01*
X226797057Y-102856714D02*
X226644676Y-102894810D01*
X226644676Y-102894810D02*
X226568485Y-102932905D01*
X226568485Y-102932905D02*
X226530390Y-102971000D01*
X226530390Y-102971000D02*
X226492295Y-103047191D01*
X226492295Y-103809096D02*
X226492295Y-103885286D01*
X226492295Y-103885286D02*
X226530390Y-103961477D01*
X226530390Y-103961477D02*
X226568485Y-103999572D01*
X226568485Y-103999572D02*
X226644676Y-104037667D01*
X226644676Y-104037667D02*
X226797057Y-104075762D01*
X226797057Y-104075762D02*
X226987533Y-104075762D01*
X226987533Y-104075762D02*
X227139914Y-104037667D01*
X227139914Y-104037667D02*
X227216104Y-103999572D01*
X227216104Y-103999572D02*
X227254200Y-103961477D01*
X227254200Y-103961477D02*
X227292295Y-103885286D01*
X227292295Y-103885286D02*
X227292295Y-103809096D01*
X227292295Y-103809096D02*
X227254200Y-103732905D01*
X227254200Y-103732905D02*
X227216104Y-103694810D01*
X227216104Y-103694810D02*
X227139914Y-103656715D01*
X227139914Y-103656715D02*
X226987533Y-103618619D01*
X226987533Y-103618619D02*
X226797057Y-103618619D01*
X226797057Y-103618619D02*
X226644676Y-103656715D01*
X226644676Y-103656715D02*
X226568485Y-103694810D01*
X226568485Y-103694810D02*
X226530390Y-103732905D01*
X226530390Y-103732905D02*
X226492295Y-103809096D01*
X226568485Y-104380524D02*
X226530390Y-104418620D01*
X226530390Y-104418620D02*
X226492295Y-104494810D01*
X226492295Y-104494810D02*
X226492295Y-104685286D01*
X226492295Y-104685286D02*
X226530390Y-104761477D01*
X226530390Y-104761477D02*
X226568485Y-104799572D01*
X226568485Y-104799572D02*
X226644676Y-104837667D01*
X226644676Y-104837667D02*
X226720866Y-104837667D01*
X226720866Y-104837667D02*
X226835152Y-104799572D01*
X226835152Y-104799572D02*
X227292295Y-104342429D01*
X227292295Y-104342429D02*
X227292295Y-104837667D01*
X231572295Y-103047191D02*
X231572295Y-103123381D01*
X231572295Y-103123381D02*
X231610390Y-103199572D01*
X231610390Y-103199572D02*
X231648485Y-103237667D01*
X231648485Y-103237667D02*
X231724676Y-103275762D01*
X231724676Y-103275762D02*
X231877057Y-103313857D01*
X231877057Y-103313857D02*
X232067533Y-103313857D01*
X232067533Y-103313857D02*
X232219914Y-103275762D01*
X232219914Y-103275762D02*
X232296104Y-103237667D01*
X232296104Y-103237667D02*
X232334200Y-103199572D01*
X232334200Y-103199572D02*
X232372295Y-103123381D01*
X232372295Y-103123381D02*
X232372295Y-103047191D01*
X232372295Y-103047191D02*
X232334200Y-102971000D01*
X232334200Y-102971000D02*
X232296104Y-102932905D01*
X232296104Y-102932905D02*
X232219914Y-102894810D01*
X232219914Y-102894810D02*
X232067533Y-102856714D01*
X232067533Y-102856714D02*
X231877057Y-102856714D01*
X231877057Y-102856714D02*
X231724676Y-102894810D01*
X231724676Y-102894810D02*
X231648485Y-102932905D01*
X231648485Y-102932905D02*
X231610390Y-102971000D01*
X231610390Y-102971000D02*
X231572295Y-103047191D01*
X231572295Y-103580524D02*
X231572295Y-104075762D01*
X231572295Y-104075762D02*
X231877057Y-103809096D01*
X231877057Y-103809096D02*
X231877057Y-103923381D01*
X231877057Y-103923381D02*
X231915152Y-103999572D01*
X231915152Y-103999572D02*
X231953247Y-104037667D01*
X231953247Y-104037667D02*
X232029438Y-104075762D01*
X232029438Y-104075762D02*
X232219914Y-104075762D01*
X232219914Y-104075762D02*
X232296104Y-104037667D01*
X232296104Y-104037667D02*
X232334200Y-103999572D01*
X232334200Y-103999572D02*
X232372295Y-103923381D01*
X232372295Y-103923381D02*
X232372295Y-103694810D01*
X232372295Y-103694810D02*
X232334200Y-103618619D01*
X232334200Y-103618619D02*
X232296104Y-103580524D01*
X232372295Y-104837667D02*
X232372295Y-104380524D01*
X232372295Y-104609096D02*
X231572295Y-104609096D01*
X231572295Y-104609096D02*
X231686580Y-104532905D01*
X231686580Y-104532905D02*
X231762771Y-104456715D01*
X231762771Y-104456715D02*
X231800866Y-104380524D01*
X217132295Y-92239476D02*
X217132295Y-91782333D01*
X217132295Y-92010905D02*
X216332295Y-92010905D01*
X216332295Y-92010905D02*
X216446580Y-91934714D01*
X216446580Y-91934714D02*
X216522771Y-91858524D01*
X216522771Y-91858524D02*
X216560866Y-91782333D01*
X216332295Y-92734715D02*
X216332295Y-92810905D01*
X216332295Y-92810905D02*
X216370390Y-92887096D01*
X216370390Y-92887096D02*
X216408485Y-92925191D01*
X216408485Y-92925191D02*
X216484676Y-92963286D01*
X216484676Y-92963286D02*
X216637057Y-93001381D01*
X216637057Y-93001381D02*
X216827533Y-93001381D01*
X216827533Y-93001381D02*
X216979914Y-92963286D01*
X216979914Y-92963286D02*
X217056104Y-92925191D01*
X217056104Y-92925191D02*
X217094200Y-92887096D01*
X217094200Y-92887096D02*
X217132295Y-92810905D01*
X217132295Y-92810905D02*
X217132295Y-92734715D01*
X217132295Y-92734715D02*
X217094200Y-92658524D01*
X217094200Y-92658524D02*
X217056104Y-92620429D01*
X217056104Y-92620429D02*
X216979914Y-92582334D01*
X216979914Y-92582334D02*
X216827533Y-92544238D01*
X216827533Y-92544238D02*
X216637057Y-92544238D01*
X216637057Y-92544238D02*
X216484676Y-92582334D01*
X216484676Y-92582334D02*
X216408485Y-92620429D01*
X216408485Y-92620429D02*
X216370390Y-92658524D01*
X216370390Y-92658524D02*
X216332295Y-92734715D01*
X216598961Y-93687096D02*
X217132295Y-93687096D01*
X216294200Y-93496620D02*
X216865628Y-93306143D01*
X216865628Y-93306143D02*
X216865628Y-93801382D01*
X226462295Y-91972810D02*
X226462295Y-92049000D01*
X226462295Y-92049000D02*
X226500390Y-92125191D01*
X226500390Y-92125191D02*
X226538485Y-92163286D01*
X226538485Y-92163286D02*
X226614676Y-92201381D01*
X226614676Y-92201381D02*
X226767057Y-92239476D01*
X226767057Y-92239476D02*
X226957533Y-92239476D01*
X226957533Y-92239476D02*
X227109914Y-92201381D01*
X227109914Y-92201381D02*
X227186104Y-92163286D01*
X227186104Y-92163286D02*
X227224200Y-92125191D01*
X227224200Y-92125191D02*
X227262295Y-92049000D01*
X227262295Y-92049000D02*
X227262295Y-91972810D01*
X227262295Y-91972810D02*
X227224200Y-91896619D01*
X227224200Y-91896619D02*
X227186104Y-91858524D01*
X227186104Y-91858524D02*
X227109914Y-91820429D01*
X227109914Y-91820429D02*
X226957533Y-91782333D01*
X226957533Y-91782333D02*
X226767057Y-91782333D01*
X226767057Y-91782333D02*
X226614676Y-91820429D01*
X226614676Y-91820429D02*
X226538485Y-91858524D01*
X226538485Y-91858524D02*
X226500390Y-91896619D01*
X226500390Y-91896619D02*
X226462295Y-91972810D01*
X226538485Y-92544238D02*
X226500390Y-92582334D01*
X226500390Y-92582334D02*
X226462295Y-92658524D01*
X226462295Y-92658524D02*
X226462295Y-92849000D01*
X226462295Y-92849000D02*
X226500390Y-92925191D01*
X226500390Y-92925191D02*
X226538485Y-92963286D01*
X226538485Y-92963286D02*
X226614676Y-93001381D01*
X226614676Y-93001381D02*
X226690866Y-93001381D01*
X226690866Y-93001381D02*
X226805152Y-92963286D01*
X226805152Y-92963286D02*
X227262295Y-92506143D01*
X227262295Y-92506143D02*
X227262295Y-93001381D01*
X226538485Y-93306143D02*
X226500390Y-93344239D01*
X226500390Y-93344239D02*
X226462295Y-93420429D01*
X226462295Y-93420429D02*
X226462295Y-93610905D01*
X226462295Y-93610905D02*
X226500390Y-93687096D01*
X226500390Y-93687096D02*
X226538485Y-93725191D01*
X226538485Y-93725191D02*
X226614676Y-93763286D01*
X226614676Y-93763286D02*
X226690866Y-93763286D01*
X226690866Y-93763286D02*
X226805152Y-93725191D01*
X226805152Y-93725191D02*
X227262295Y-93268048D01*
X227262295Y-93268048D02*
X227262295Y-93763286D01*
X222212295Y-92239476D02*
X222212295Y-91782333D01*
X222212295Y-92010905D02*
X221412295Y-92010905D01*
X221412295Y-92010905D02*
X221526580Y-91934714D01*
X221526580Y-91934714D02*
X221602771Y-91858524D01*
X221602771Y-91858524D02*
X221640866Y-91782333D01*
X221412295Y-92734715D02*
X221412295Y-92810905D01*
X221412295Y-92810905D02*
X221450390Y-92887096D01*
X221450390Y-92887096D02*
X221488485Y-92925191D01*
X221488485Y-92925191D02*
X221564676Y-92963286D01*
X221564676Y-92963286D02*
X221717057Y-93001381D01*
X221717057Y-93001381D02*
X221907533Y-93001381D01*
X221907533Y-93001381D02*
X222059914Y-92963286D01*
X222059914Y-92963286D02*
X222136104Y-92925191D01*
X222136104Y-92925191D02*
X222174200Y-92887096D01*
X222174200Y-92887096D02*
X222212295Y-92810905D01*
X222212295Y-92810905D02*
X222212295Y-92734715D01*
X222212295Y-92734715D02*
X222174200Y-92658524D01*
X222174200Y-92658524D02*
X222136104Y-92620429D01*
X222136104Y-92620429D02*
X222059914Y-92582334D01*
X222059914Y-92582334D02*
X221907533Y-92544238D01*
X221907533Y-92544238D02*
X221717057Y-92544238D01*
X221717057Y-92544238D02*
X221564676Y-92582334D01*
X221564676Y-92582334D02*
X221488485Y-92620429D01*
X221488485Y-92620429D02*
X221450390Y-92658524D01*
X221450390Y-92658524D02*
X221412295Y-92734715D01*
X221412295Y-93496620D02*
X221412295Y-93572810D01*
X221412295Y-93572810D02*
X221450390Y-93649001D01*
X221450390Y-93649001D02*
X221488485Y-93687096D01*
X221488485Y-93687096D02*
X221564676Y-93725191D01*
X221564676Y-93725191D02*
X221717057Y-93763286D01*
X221717057Y-93763286D02*
X221907533Y-93763286D01*
X221907533Y-93763286D02*
X222059914Y-93725191D01*
X222059914Y-93725191D02*
X222136104Y-93687096D01*
X222136104Y-93687096D02*
X222174200Y-93649001D01*
X222174200Y-93649001D02*
X222212295Y-93572810D01*
X222212295Y-93572810D02*
X222212295Y-93496620D01*
X222212295Y-93496620D02*
X222174200Y-93420429D01*
X222174200Y-93420429D02*
X222136104Y-93382334D01*
X222136104Y-93382334D02*
X222059914Y-93344239D01*
X222059914Y-93344239D02*
X221907533Y-93306143D01*
X221907533Y-93306143D02*
X221717057Y-93306143D01*
X221717057Y-93306143D02*
X221564676Y-93344239D01*
X221564676Y-93344239D02*
X221488485Y-93382334D01*
X221488485Y-93382334D02*
X221450390Y-93420429D01*
X221450390Y-93420429D02*
X221412295Y-93496620D01*
X228962295Y-91972810D02*
X228962295Y-92049000D01*
X228962295Y-92049000D02*
X229000390Y-92125191D01*
X229000390Y-92125191D02*
X229038485Y-92163286D01*
X229038485Y-92163286D02*
X229114676Y-92201381D01*
X229114676Y-92201381D02*
X229267057Y-92239476D01*
X229267057Y-92239476D02*
X229457533Y-92239476D01*
X229457533Y-92239476D02*
X229609914Y-92201381D01*
X229609914Y-92201381D02*
X229686104Y-92163286D01*
X229686104Y-92163286D02*
X229724200Y-92125191D01*
X229724200Y-92125191D02*
X229762295Y-92049000D01*
X229762295Y-92049000D02*
X229762295Y-91972810D01*
X229762295Y-91972810D02*
X229724200Y-91896619D01*
X229724200Y-91896619D02*
X229686104Y-91858524D01*
X229686104Y-91858524D02*
X229609914Y-91820429D01*
X229609914Y-91820429D02*
X229457533Y-91782333D01*
X229457533Y-91782333D02*
X229267057Y-91782333D01*
X229267057Y-91782333D02*
X229114676Y-91820429D01*
X229114676Y-91820429D02*
X229038485Y-91858524D01*
X229038485Y-91858524D02*
X229000390Y-91896619D01*
X229000390Y-91896619D02*
X228962295Y-91972810D01*
X229038485Y-92544238D02*
X229000390Y-92582334D01*
X229000390Y-92582334D02*
X228962295Y-92658524D01*
X228962295Y-92658524D02*
X228962295Y-92849000D01*
X228962295Y-92849000D02*
X229000390Y-92925191D01*
X229000390Y-92925191D02*
X229038485Y-92963286D01*
X229038485Y-92963286D02*
X229114676Y-93001381D01*
X229114676Y-93001381D02*
X229190866Y-93001381D01*
X229190866Y-93001381D02*
X229305152Y-92963286D01*
X229305152Y-92963286D02*
X229762295Y-92506143D01*
X229762295Y-92506143D02*
X229762295Y-93001381D01*
X228962295Y-93496620D02*
X228962295Y-93572810D01*
X228962295Y-93572810D02*
X229000390Y-93649001D01*
X229000390Y-93649001D02*
X229038485Y-93687096D01*
X229038485Y-93687096D02*
X229114676Y-93725191D01*
X229114676Y-93725191D02*
X229267057Y-93763286D01*
X229267057Y-93763286D02*
X229457533Y-93763286D01*
X229457533Y-93763286D02*
X229609914Y-93725191D01*
X229609914Y-93725191D02*
X229686104Y-93687096D01*
X229686104Y-93687096D02*
X229724200Y-93649001D01*
X229724200Y-93649001D02*
X229762295Y-93572810D01*
X229762295Y-93572810D02*
X229762295Y-93496620D01*
X229762295Y-93496620D02*
X229724200Y-93420429D01*
X229724200Y-93420429D02*
X229686104Y-93382334D01*
X229686104Y-93382334D02*
X229609914Y-93344239D01*
X229609914Y-93344239D02*
X229457533Y-93306143D01*
X229457533Y-93306143D02*
X229267057Y-93306143D01*
X229267057Y-93306143D02*
X229114676Y-93344239D01*
X229114676Y-93344239D02*
X229038485Y-93382334D01*
X229038485Y-93382334D02*
X229000390Y-93420429D01*
X229000390Y-93420429D02*
X228962295Y-93496620D01*
X222212295Y-103313857D02*
X222212295Y-102856714D01*
X222212295Y-103085286D02*
X221412295Y-103085286D01*
X221412295Y-103085286D02*
X221526580Y-103009095D01*
X221526580Y-103009095D02*
X221602771Y-102932905D01*
X221602771Y-102932905D02*
X221640866Y-102856714D01*
X222212295Y-104075762D02*
X222212295Y-103618619D01*
X222212295Y-103847191D02*
X221412295Y-103847191D01*
X221412295Y-103847191D02*
X221526580Y-103771000D01*
X221526580Y-103771000D02*
X221602771Y-103694810D01*
X221602771Y-103694810D02*
X221640866Y-103618619D01*
X221412295Y-104342429D02*
X221412295Y-104837667D01*
X221412295Y-104837667D02*
X221717057Y-104571001D01*
X221717057Y-104571001D02*
X221717057Y-104685286D01*
X221717057Y-104685286D02*
X221755152Y-104761477D01*
X221755152Y-104761477D02*
X221793247Y-104799572D01*
X221793247Y-104799572D02*
X221869438Y-104837667D01*
X221869438Y-104837667D02*
X222059914Y-104837667D01*
X222059914Y-104837667D02*
X222136104Y-104799572D01*
X222136104Y-104799572D02*
X222174200Y-104761477D01*
X222174200Y-104761477D02*
X222212295Y-104685286D01*
X222212295Y-104685286D02*
X222212295Y-104456715D01*
X222212295Y-104456715D02*
X222174200Y-104380524D01*
X222174200Y-104380524D02*
X222136104Y-104342429D01*
X239262295Y-91972810D02*
X239262295Y-92049000D01*
X239262295Y-92049000D02*
X239300390Y-92125191D01*
X239300390Y-92125191D02*
X239338485Y-92163286D01*
X239338485Y-92163286D02*
X239414676Y-92201381D01*
X239414676Y-92201381D02*
X239567057Y-92239476D01*
X239567057Y-92239476D02*
X239757533Y-92239476D01*
X239757533Y-92239476D02*
X239909914Y-92201381D01*
X239909914Y-92201381D02*
X239986104Y-92163286D01*
X239986104Y-92163286D02*
X240024200Y-92125191D01*
X240024200Y-92125191D02*
X240062295Y-92049000D01*
X240062295Y-92049000D02*
X240062295Y-91972810D01*
X240062295Y-91972810D02*
X240024200Y-91896619D01*
X240024200Y-91896619D02*
X239986104Y-91858524D01*
X239986104Y-91858524D02*
X239909914Y-91820429D01*
X239909914Y-91820429D02*
X239757533Y-91782333D01*
X239757533Y-91782333D02*
X239567057Y-91782333D01*
X239567057Y-91782333D02*
X239414676Y-91820429D01*
X239414676Y-91820429D02*
X239338485Y-91858524D01*
X239338485Y-91858524D02*
X239300390Y-91896619D01*
X239300390Y-91896619D02*
X239262295Y-91972810D01*
X239262295Y-92734715D02*
X239262295Y-92810905D01*
X239262295Y-92810905D02*
X239300390Y-92887096D01*
X239300390Y-92887096D02*
X239338485Y-92925191D01*
X239338485Y-92925191D02*
X239414676Y-92963286D01*
X239414676Y-92963286D02*
X239567057Y-93001381D01*
X239567057Y-93001381D02*
X239757533Y-93001381D01*
X239757533Y-93001381D02*
X239909914Y-92963286D01*
X239909914Y-92963286D02*
X239986104Y-92925191D01*
X239986104Y-92925191D02*
X240024200Y-92887096D01*
X240024200Y-92887096D02*
X240062295Y-92810905D01*
X240062295Y-92810905D02*
X240062295Y-92734715D01*
X240062295Y-92734715D02*
X240024200Y-92658524D01*
X240024200Y-92658524D02*
X239986104Y-92620429D01*
X239986104Y-92620429D02*
X239909914Y-92582334D01*
X239909914Y-92582334D02*
X239757533Y-92544238D01*
X239757533Y-92544238D02*
X239567057Y-92544238D01*
X239567057Y-92544238D02*
X239414676Y-92582334D01*
X239414676Y-92582334D02*
X239338485Y-92620429D01*
X239338485Y-92620429D02*
X239300390Y-92658524D01*
X239300390Y-92658524D02*
X239262295Y-92734715D01*
X239605152Y-93458524D02*
X239567057Y-93382334D01*
X239567057Y-93382334D02*
X239528961Y-93344239D01*
X239528961Y-93344239D02*
X239452771Y-93306143D01*
X239452771Y-93306143D02*
X239414676Y-93306143D01*
X239414676Y-93306143D02*
X239338485Y-93344239D01*
X239338485Y-93344239D02*
X239300390Y-93382334D01*
X239300390Y-93382334D02*
X239262295Y-93458524D01*
X239262295Y-93458524D02*
X239262295Y-93610905D01*
X239262295Y-93610905D02*
X239300390Y-93687096D01*
X239300390Y-93687096D02*
X239338485Y-93725191D01*
X239338485Y-93725191D02*
X239414676Y-93763286D01*
X239414676Y-93763286D02*
X239452771Y-93763286D01*
X239452771Y-93763286D02*
X239528961Y-93725191D01*
X239528961Y-93725191D02*
X239567057Y-93687096D01*
X239567057Y-93687096D02*
X239605152Y-93610905D01*
X239605152Y-93610905D02*
X239605152Y-93458524D01*
X239605152Y-93458524D02*
X239643247Y-93382334D01*
X239643247Y-93382334D02*
X239681342Y-93344239D01*
X239681342Y-93344239D02*
X239757533Y-93306143D01*
X239757533Y-93306143D02*
X239909914Y-93306143D01*
X239909914Y-93306143D02*
X239986104Y-93344239D01*
X239986104Y-93344239D02*
X240024200Y-93382334D01*
X240024200Y-93382334D02*
X240062295Y-93458524D01*
X240062295Y-93458524D02*
X240062295Y-93610905D01*
X240062295Y-93610905D02*
X240024200Y-93687096D01*
X240024200Y-93687096D02*
X239986104Y-93725191D01*
X239986104Y-93725191D02*
X239909914Y-93763286D01*
X239909914Y-93763286D02*
X239757533Y-93763286D01*
X239757533Y-93763286D02*
X239681342Y-93725191D01*
X239681342Y-93725191D02*
X239643247Y-93687096D01*
X239643247Y-93687096D02*
X239605152Y-93610905D01*
X223952295Y-91972810D02*
X223952295Y-92049000D01*
X223952295Y-92049000D02*
X223990390Y-92125191D01*
X223990390Y-92125191D02*
X224028485Y-92163286D01*
X224028485Y-92163286D02*
X224104676Y-92201381D01*
X224104676Y-92201381D02*
X224257057Y-92239476D01*
X224257057Y-92239476D02*
X224447533Y-92239476D01*
X224447533Y-92239476D02*
X224599914Y-92201381D01*
X224599914Y-92201381D02*
X224676104Y-92163286D01*
X224676104Y-92163286D02*
X224714200Y-92125191D01*
X224714200Y-92125191D02*
X224752295Y-92049000D01*
X224752295Y-92049000D02*
X224752295Y-91972810D01*
X224752295Y-91972810D02*
X224714200Y-91896619D01*
X224714200Y-91896619D02*
X224676104Y-91858524D01*
X224676104Y-91858524D02*
X224599914Y-91820429D01*
X224599914Y-91820429D02*
X224447533Y-91782333D01*
X224447533Y-91782333D02*
X224257057Y-91782333D01*
X224257057Y-91782333D02*
X224104676Y-91820429D01*
X224104676Y-91820429D02*
X224028485Y-91858524D01*
X224028485Y-91858524D02*
X223990390Y-91896619D01*
X223990390Y-91896619D02*
X223952295Y-91972810D01*
X224028485Y-92544238D02*
X223990390Y-92582334D01*
X223990390Y-92582334D02*
X223952295Y-92658524D01*
X223952295Y-92658524D02*
X223952295Y-92849000D01*
X223952295Y-92849000D02*
X223990390Y-92925191D01*
X223990390Y-92925191D02*
X224028485Y-92963286D01*
X224028485Y-92963286D02*
X224104676Y-93001381D01*
X224104676Y-93001381D02*
X224180866Y-93001381D01*
X224180866Y-93001381D02*
X224295152Y-92963286D01*
X224295152Y-92963286D02*
X224752295Y-92506143D01*
X224752295Y-92506143D02*
X224752295Y-93001381D01*
X224218961Y-93687096D02*
X224752295Y-93687096D01*
X223914200Y-93496620D02*
X224485628Y-93306143D01*
X224485628Y-93306143D02*
X224485628Y-93801382D01*
%TO.C,T1*%
X246500000Y-117260000D02*
X246500000Y-123860000D01*
X246500000Y-123860000D02*
X249350000Y-123860000D01*
X249350000Y-117260000D02*
X246500000Y-117260000D01*
X249350000Y-120560000D02*
X249350000Y-117260000D01*
X249350000Y-120560000D02*
X249350000Y-123860000D01*
X249350000Y-122510000D02*
X249350000Y-118610000D01*
D11*
%TO.C,D8*%
X188350000Y-113810000D02*
X189150000Y-113810000D01*
X188750000Y-113810000D02*
X188750000Y-113310000D01*
X188750000Y-114410000D02*
X188200000Y-114410000D01*
X188750000Y-114410000D02*
X188350000Y-113810000D01*
X188750000Y-114410000D02*
X189300000Y-114410000D01*
X188750000Y-114810000D02*
X188750000Y-114410000D01*
X189150000Y-113810000D02*
X188750000Y-114410000D01*
%TO.C,D17*%
X244600000Y-153310000D02*
X245400000Y-153310000D01*
X245000000Y-153310000D02*
X245000000Y-152810000D01*
X245000000Y-153910000D02*
X244450000Y-153910000D01*
X245000000Y-153910000D02*
X244600000Y-153310000D01*
X245000000Y-153910000D02*
X245550000Y-153910000D01*
X245000000Y-154310000D02*
X245000000Y-153910000D01*
X245400000Y-153310000D02*
X245000000Y-153910000D01*
%TO.C,D16*%
X225850000Y-97060000D02*
X226650000Y-97060000D01*
X226250000Y-97060000D02*
X226250000Y-96560000D01*
X226250000Y-97660000D02*
X225700000Y-97660000D01*
X226250000Y-97660000D02*
X225850000Y-97060000D01*
X226250000Y-97660000D02*
X226800000Y-97660000D01*
X226250000Y-98060000D02*
X226250000Y-97660000D01*
X226650000Y-97060000D02*
X226250000Y-97660000D01*
%TO.C,D1*%
X150850000Y-156310000D02*
X151650000Y-156310000D01*
X151250000Y-156310000D02*
X151250000Y-155810000D01*
X151250000Y-156910000D02*
X150700000Y-156910000D01*
X151250000Y-156910000D02*
X150850000Y-156310000D01*
X151250000Y-156910000D02*
X151800000Y-156910000D01*
X151250000Y-157310000D02*
X151250000Y-156910000D01*
X151650000Y-156310000D02*
X151250000Y-156910000D01*
%TO.C,D9*%
X188350000Y-96060000D02*
X189150000Y-96060000D01*
X188750000Y-96060000D02*
X188750000Y-95560000D01*
X188750000Y-96660000D02*
X188200000Y-96660000D01*
X188750000Y-96660000D02*
X188350000Y-96060000D01*
X188750000Y-96660000D02*
X189300000Y-96660000D01*
X188750000Y-97060000D02*
X188750000Y-96660000D01*
X189150000Y-96060000D02*
X188750000Y-96660000D01*
%TO.C,D11*%
X207100000Y-126560000D02*
X207900000Y-126560000D01*
X207500000Y-126560000D02*
X207500000Y-126060000D01*
X207500000Y-127160000D02*
X206950000Y-127160000D01*
X207500000Y-127160000D02*
X207100000Y-126560000D01*
X207500000Y-127160000D02*
X208050000Y-127160000D01*
X207500000Y-127560000D02*
X207500000Y-127160000D01*
X207900000Y-126560000D02*
X207500000Y-127160000D01*
D12*
%TO.C,MCU1*%
X212960000Y-89420000D02*
X212960000Y-107200000D01*
X212960000Y-107200000D02*
X245980000Y-107200000D01*
X245980000Y-89420000D02*
X212960000Y-89420000D01*
X245980000Y-107200000D02*
X245980000Y-89420000D01*
D11*
%TO.C,D3*%
X169600000Y-156310000D02*
X170400000Y-156310000D01*
X170000000Y-156310000D02*
X170000000Y-155810000D01*
X170000000Y-156910000D02*
X169450000Y-156910000D01*
X170000000Y-156910000D02*
X169600000Y-156310000D01*
X170000000Y-156910000D02*
X170550000Y-156910000D01*
X170000000Y-157310000D02*
X170000000Y-156910000D01*
X170400000Y-156310000D02*
X170000000Y-156910000D01*
D10*
%TO.C,JST1*%
X191350000Y-114860000D02*
X191350000Y-115560000D01*
X191350000Y-115560000D02*
X192950000Y-115560000D01*
X191350000Y-120060000D02*
X191350000Y-120760000D01*
X191350000Y-120760000D02*
X198950000Y-120760000D01*
X192950000Y-115560000D02*
X192950000Y-120060000D01*
X192950000Y-120060000D02*
X191350000Y-120060000D01*
X194200000Y-118810000D02*
X194700000Y-118810000D01*
X194450000Y-119060000D02*
X194450000Y-118560000D01*
X198950000Y-114860000D02*
X191350000Y-114860000D01*
X198950000Y-120760000D02*
X198950000Y-114860000D01*
D11*
%TO.C,D7*%
X188350000Y-149310000D02*
X189150000Y-149310000D01*
X188750000Y-149310000D02*
X188750000Y-148810000D01*
X188750000Y-149910000D02*
X188200000Y-149910000D01*
X188750000Y-149910000D02*
X188350000Y-149310000D01*
X188750000Y-149910000D02*
X189300000Y-149910000D01*
X188750000Y-150310000D02*
X188750000Y-149910000D01*
X189150000Y-149310000D02*
X188750000Y-149910000D01*
%TO.C,D4*%
X169600000Y-138560000D02*
X170400000Y-138560000D01*
X170000000Y-138560000D02*
X170000000Y-138060000D01*
X170000000Y-139160000D02*
X169450000Y-139160000D01*
X170000000Y-139160000D02*
X169600000Y-138560000D01*
X170000000Y-139160000D02*
X170550000Y-139160000D01*
X170000000Y-139560000D02*
X170000000Y-139160000D01*
X170400000Y-138560000D02*
X170000000Y-139160000D01*
%TO.C,D5*%
X169600000Y-120810000D02*
X170400000Y-120810000D01*
X170000000Y-120810000D02*
X170000000Y-120310000D01*
X170000000Y-121410000D02*
X169450000Y-121410000D01*
X170000000Y-121410000D02*
X169600000Y-120810000D01*
X170000000Y-121410000D02*
X170550000Y-121410000D01*
X170000000Y-121810000D02*
X170000000Y-121410000D01*
X170400000Y-120810000D02*
X170000000Y-121410000D01*
D13*
%TO.C,B1*%
X244350000Y-114110000D02*
X244350000Y-109410000D01*
X245925000Y-109310000D02*
X246475000Y-109310000D01*
X245925000Y-114210000D02*
X246475000Y-114210000D01*
X248050000Y-110335000D02*
X248050000Y-109410000D01*
X248050000Y-114110000D02*
X248050000Y-113185000D01*
D11*
%TO.C,D2*%
X150850000Y-120810000D02*
X151650000Y-120810000D01*
X151250000Y-120810000D02*
X151250000Y-120310000D01*
X151250000Y-121410000D02*
X150700000Y-121410000D01*
X151250000Y-121410000D02*
X150850000Y-120810000D01*
X151250000Y-121410000D02*
X151800000Y-121410000D01*
X151250000Y-121810000D02*
X151250000Y-121410000D01*
X151650000Y-120810000D02*
X151250000Y-121410000D01*
%TO.C,D21*%
X244600000Y-130310000D02*
X245400000Y-130310000D01*
X245000000Y-130310000D02*
X245000000Y-129810000D01*
X245000000Y-130910000D02*
X244450000Y-130910000D01*
X245000000Y-130910000D02*
X244600000Y-130310000D01*
X245000000Y-130910000D02*
X245550000Y-130910000D01*
X245000000Y-131310000D02*
X245000000Y-130910000D01*
X245400000Y-130310000D02*
X245000000Y-130910000D01*
%TO.C,D23*%
X150850000Y-131560000D02*
X151650000Y-131560000D01*
X151250000Y-131560000D02*
X151250000Y-131060000D01*
X151250000Y-132160000D02*
X150700000Y-132160000D01*
X151250000Y-132160000D02*
X150850000Y-131560000D01*
X151250000Y-132160000D02*
X151800000Y-132160000D01*
X151250000Y-132560000D02*
X151250000Y-132160000D01*
X151650000Y-131560000D02*
X151250000Y-132160000D01*
%TO.C,D6*%
X169600000Y-103060000D02*
X170400000Y-103060000D01*
X170000000Y-103060000D02*
X170000000Y-102560000D01*
X170000000Y-103660000D02*
X169450000Y-103660000D01*
X170000000Y-103660000D02*
X169600000Y-103060000D01*
X170000000Y-103660000D02*
X170550000Y-103660000D01*
X170000000Y-104060000D02*
X170000000Y-103660000D01*
X170400000Y-103060000D02*
X170000000Y-103660000D01*
%TO.C,D25*%
X188350000Y-124560000D02*
X189150000Y-124560000D01*
X188750000Y-124560000D02*
X188750000Y-124060000D01*
X188750000Y-125160000D02*
X188200000Y-125160000D01*
X188750000Y-125160000D02*
X188350000Y-124560000D01*
X188750000Y-125160000D02*
X189300000Y-125160000D01*
X188750000Y-125560000D02*
X188750000Y-125160000D01*
X189150000Y-124560000D02*
X188750000Y-125160000D01*
%TO.C,D24*%
X150850000Y-96060000D02*
X151650000Y-96060000D01*
X151250000Y-96060000D02*
X151250000Y-95560000D01*
X151250000Y-96660000D02*
X150700000Y-96660000D01*
X151250000Y-96660000D02*
X150850000Y-96060000D01*
X151250000Y-96660000D02*
X151800000Y-96660000D01*
X151250000Y-97060000D02*
X151250000Y-96660000D01*
X151650000Y-96060000D02*
X151250000Y-96660000D01*
%TO.C,D14*%
X225850000Y-132560000D02*
X226650000Y-132560000D01*
X226250000Y-132560000D02*
X226250000Y-132060000D01*
X226250000Y-133160000D02*
X225700000Y-133160000D01*
X226250000Y-133160000D02*
X225850000Y-132560000D01*
X226250000Y-133160000D02*
X226800000Y-133160000D01*
X226250000Y-133560000D02*
X226250000Y-133160000D01*
X226650000Y-132560000D02*
X226250000Y-133160000D01*
%TO.C,D22*%
X244600000Y-141560000D02*
X245400000Y-141560000D01*
X245000000Y-141560000D02*
X245000000Y-141060000D01*
X245000000Y-142160000D02*
X244450000Y-142160000D01*
X245000000Y-142160000D02*
X244600000Y-141560000D01*
X245000000Y-142160000D02*
X245550000Y-142160000D01*
X245000000Y-142560000D02*
X245000000Y-142160000D01*
X245400000Y-141560000D02*
X245000000Y-142160000D01*
%TO.C,D18*%
X244600000Y-100060000D02*
X245400000Y-100060000D01*
X245000000Y-100060000D02*
X245000000Y-99560000D01*
X245000000Y-100660000D02*
X244450000Y-100660000D01*
X245000000Y-100660000D02*
X244600000Y-100060000D01*
X245000000Y-100660000D02*
X245550000Y-100660000D01*
X245000000Y-101060000D02*
X245000000Y-100660000D01*
X245400000Y-100060000D02*
X245000000Y-100660000D01*
%TO.C,D26*%
X207100000Y-109810000D02*
X207900000Y-109810000D01*
X207500000Y-109810000D02*
X207500000Y-109310000D01*
X207500000Y-110410000D02*
X206950000Y-110410000D01*
X207500000Y-110410000D02*
X207100000Y-109810000D01*
X207500000Y-110410000D02*
X208050000Y-110410000D01*
X207500000Y-110810000D02*
X207500000Y-110410000D01*
X207900000Y-109810000D02*
X207500000Y-110410000D01*
%TO.C,D12*%
X207100000Y-91060000D02*
X207900000Y-91060000D01*
X207500000Y-91060000D02*
X207500000Y-90560000D01*
X207500000Y-91660000D02*
X206950000Y-91660000D01*
X207500000Y-91660000D02*
X207100000Y-91060000D01*
X207500000Y-91660000D02*
X208050000Y-91660000D01*
X207500000Y-92060000D02*
X207500000Y-91660000D01*
X207900000Y-91060000D02*
X207500000Y-91660000D01*
%TO.C,D20*%
X256786390Y-201797004D02*
X257142793Y-201615408D01*
X257142793Y-201615408D02*
X256893098Y-201125354D01*
X257142793Y-201615408D02*
X257392487Y-202105461D01*
X257142793Y-201615408D02*
X257495800Y-200986611D01*
X257495800Y-200986611D02*
X257858993Y-201699416D01*
X257677397Y-201343013D02*
X258122900Y-201116018D01*
X257858993Y-201699416D02*
X257142793Y-201615408D01*
%TO.C,D15*%
X225850000Y-114810000D02*
X226650000Y-114810000D01*
X226250000Y-114810000D02*
X226250000Y-114310000D01*
X226250000Y-115410000D02*
X225700000Y-115410000D01*
X226250000Y-115410000D02*
X225850000Y-114810000D01*
X226250000Y-115410000D02*
X226800000Y-115410000D01*
X226250000Y-115810000D02*
X226250000Y-115410000D01*
X226650000Y-114810000D02*
X226250000Y-115410000D01*
%TO.C,D10*%
X207100000Y-144310000D02*
X207900000Y-144310000D01*
X207500000Y-144310000D02*
X207500000Y-143810000D01*
X207500000Y-144910000D02*
X206950000Y-144910000D01*
X207500000Y-144910000D02*
X207100000Y-144310000D01*
X207500000Y-144910000D02*
X208050000Y-144910000D01*
X207500000Y-145310000D02*
X207500000Y-144910000D01*
X207900000Y-144310000D02*
X207500000Y-144910000D01*
%TO.C,D13*%
X225850000Y-150310000D02*
X226650000Y-150310000D01*
X226250000Y-150310000D02*
X226250000Y-149810000D01*
X226250000Y-150910000D02*
X225700000Y-150910000D01*
X226250000Y-150910000D02*
X225850000Y-150310000D01*
X226250000Y-150910000D02*
X226800000Y-150910000D01*
X226250000Y-151310000D02*
X226250000Y-150910000D01*
X226650000Y-150310000D02*
X226250000Y-150910000D01*
%TO.C,D19*%
X244188911Y-182382447D02*
X244418341Y-182054786D01*
X244418341Y-182054786D02*
X243967808Y-181739319D01*
X244418341Y-182054786D02*
X244434826Y-181333864D01*
X244418341Y-182054786D02*
X244868875Y-182370253D01*
X244434826Y-181333864D02*
X245090148Y-181792726D01*
X244762487Y-181563295D02*
X245049275Y-181153719D01*
X245090148Y-181792726D02*
X244418341Y-182054786D01*
%TD*%
D14*
%TO.C,MCU1*%
X242170000Y-90690000D03*
X239630000Y-90690000D03*
X237090000Y-90690000D03*
X234550000Y-90690000D03*
X232010000Y-90690000D03*
X229470000Y-90690000D03*
X226930000Y-90690000D03*
X224390000Y-90690000D03*
X221850000Y-90690000D03*
X219310000Y-90690000D03*
X216770000Y-90690000D03*
X214230000Y-90690000D03*
X214230000Y-105930000D03*
X216770000Y-105930000D03*
X219310000Y-105930000D03*
X221850000Y-105930000D03*
X224390000Y-105930000D03*
X226930000Y-105930000D03*
X229470000Y-105930000D03*
X232010000Y-105930000D03*
X234550000Y-105930000D03*
X237090000Y-105930000D03*
X239630000Y-105930000D03*
X242170000Y-105930000D03*
%TD*%
M02*
