M48
; DRILL file {KiCad 8.0.6} date 2024-11-04T13:34:21+0100
; FORMAT={-:-/ absolute / inch / decimal}
; #@! TF.CreationDate,2024-11-04T13:34:21+01:00
; #@! TF.GenerationSoftware,Kicad,Pcbnew,8.0.6
; #@! TF.FileFunction,Plated,1,2,PTH
FMAT,2
INCH
; #@! TA.AperFunction,Plated,PTH,ViaDrill
T1C0.0157
; #@! TA.AperFunction,Plated,PTH,ComponentDrill
T2C0.0295
; #@! TA.AperFunction,Plated,PTH,ComponentDrill
T3C0.0390
; #@! TA.AperFunction,Plated,PTH,ComponentDrill
T4C0.0430
%
G90
G05
T1
X6.3976Y-5.1575
X6.5157Y-3.9173
X7.2638Y-3.6417
X7.7165Y-4.6654
X7.7559Y-5.374
X7.8346Y-3.9764
X7.8937Y-4.7047
X7.9134Y-4.6063
X8.0709Y-5.374
X8.0906Y-3.9764
X8.0906Y-4.7047
X8.4252Y-4.9409
X8.5039Y-5.6102
X8.6614Y-4.4685
X8.7008Y-4.3701
X8.7795Y-4.4685
X8.7992Y-4.7441
X8.7992Y-4.7835
X8.8189Y-4.9409
X8.8189Y-5.6102
X9.1732Y-4.8031
X9.1929Y-4.5079
X9.2717Y-4.9213
X9.2717Y-5.5315
X9.2913Y-4.6457
X9.2913Y-5.748
X9.4685Y-3.7992
X9.4882Y-4.3701
X9.5281Y-4.3696
X9.5472Y-4.3307
X9.5669Y-5.5315
X9.5669Y-5.748
X9.6457Y-4.6063
T2
X7.5866Y-4.5988
X7.5866Y-4.6776
T3
X5.9547Y-3.6417
X5.9547Y-3.9417
X5.9547Y-4.6161
X5.9547Y-4.9161
X5.9547Y-5.0394
X5.9547Y-5.3394
X5.9547Y-6.0138
X5.9547Y-6.3138
X6.6929Y-3.9173
X6.6929Y-4.2173
X6.6929Y-4.6161
X6.6929Y-4.9161
X6.6929Y-5.315
X6.6929Y-5.615
X6.6929Y-6.0138
X6.6929Y-6.3138
X7.4311Y-3.6417
X7.4311Y-3.9417
X7.4311Y-4.3406
X7.4311Y-4.6406
X7.4311Y-4.7638
X7.4311Y-5.0638
X7.4311Y-5.7382
X7.4311Y-6.0382
X8.1693Y-3.4449
X8.1693Y-3.7449
X8.1693Y-4.1831
X8.1693Y-4.4831
X8.1693Y-4.8425
X8.1693Y-5.1425
X8.1693Y-5.5413
X8.1693Y-5.8413
X8.9075Y-3.6811
X8.9075Y-3.9811
X8.9075Y-4.3799
X8.9075Y-4.6799
X8.9075Y-5.0787
X8.9075Y-5.3787
X8.9075Y-5.7776
X8.9075Y-6.0776
X9.5446Y-7.2791
X9.6457Y-3.7992
X9.6457Y-4.0992
X9.6457Y-4.9902
X9.6457Y-5.2902
X9.6457Y-5.4331
X9.6457Y-5.7331
X9.6457Y-5.8957
X9.6457Y-6.1957
X9.7167Y-7.0334
X10.0024Y-7.9995
X10.2697Y-7.8633
T4
X8.4343Y-3.5705
X8.4343Y-4.1705
X8.5343Y-3.5705
X8.5343Y-4.1705
X8.6343Y-3.5705
X8.6343Y-4.1705
X8.7343Y-3.5705
X8.7343Y-4.1705
X8.8343Y-3.5705
X8.8343Y-4.1705
X8.9343Y-3.5705
X8.9343Y-4.1705
X9.0343Y-3.5705
X9.0343Y-4.1705
X9.1343Y-3.5705
X9.1343Y-4.1705
X9.2343Y-3.5705
X9.2343Y-4.1705
X9.3343Y-3.5705
X9.3343Y-4.1705
X9.4343Y-3.5705
X9.4343Y-4.1705
X9.5343Y-3.5705
X9.5343Y-4.1705
M30
