%TF.GenerationSoftware,KiCad,Pcbnew,8.0.6*%
%TF.CreationDate,2024-11-04T13:34:25+01:00*%
%TF.ProjectId,left,6c656674-2e6b-4696-9361-645f70636258,v1.0.0*%
%TF.SameCoordinates,Original*%
%TF.FileFunction,Paste,Top*%
%TF.FilePolarity,Positive*%
%FSLAX46Y46*%
G04 Gerber Fmt 4.6, Leading zero omitted, Abs format (unit mm)*
G04 Created by KiCad (PCBNEW 8.0.6) date 2024-11-04 13:34:25*
%MOMM*%
%LPD*%
G01*
G04 APERTURE LIST*
G04 Aperture macros list*
%AMRotRect*
0 Rectangle, with rotation*
0 The origin of the aperture is its center*
0 $1 length*
0 $2 width*
0 $3 Rotation angle, in degrees counterclockwise*
0 Add horizontal line*
21,1,$1,$2,0,0,$3*%
G04 Aperture macros list end*
%ADD10R,1.200000X0.900000*%
%ADD11RotRect,0.900000X1.200000X27.000000*%
%ADD12RotRect,0.900000X1.200000X55.000000*%
G04 APERTURE END LIST*
D10*
%TO.C,D8*%
X188750000Y-115710000D03*
X188750000Y-112410000D03*
%TD*%
%TO.C,D17*%
X245000000Y-155210000D03*
X245000000Y-151910000D03*
%TD*%
%TO.C,D16*%
X226250000Y-98960000D03*
X226250000Y-95660000D03*
%TD*%
%TO.C,D1*%
X151250000Y-158210000D03*
X151250000Y-154910000D03*
%TD*%
%TO.C,D9*%
X188750000Y-97960000D03*
X188750000Y-94660000D03*
%TD*%
%TO.C,D11*%
X207500000Y-128460000D03*
X207500000Y-125160000D03*
%TD*%
%TO.C,D3*%
X170000000Y-158210000D03*
X170000000Y-154910000D03*
%TD*%
%TO.C,D7*%
X188750000Y-151210000D03*
X188750000Y-147910000D03*
%TD*%
%TO.C,D4*%
X170000000Y-140460000D03*
X170000000Y-137160000D03*
%TD*%
%TO.C,D5*%
X170000000Y-122710000D03*
X170000000Y-119410000D03*
%TD*%
%TO.C,D2*%
X151250000Y-122710000D03*
X151250000Y-119410000D03*
%TD*%
%TO.C,D21*%
X245000000Y-132210000D03*
X245000000Y-128910000D03*
%TD*%
%TO.C,D23*%
X151250000Y-133460000D03*
X151250000Y-130160000D03*
%TD*%
%TO.C,D6*%
X170000000Y-104960000D03*
X170000000Y-101660000D03*
%TD*%
%TO.C,D25*%
X188750000Y-126460000D03*
X188750000Y-123160000D03*
%TD*%
%TO.C,D24*%
X151250000Y-97960000D03*
X151250000Y-94660000D03*
%TD*%
%TO.C,D14*%
X226250000Y-134460000D03*
X226250000Y-131160000D03*
%TD*%
%TO.C,D22*%
X245000000Y-143460000D03*
X245000000Y-140160000D03*
%TD*%
%TO.C,D18*%
X245000000Y-101960000D03*
X245000000Y-98660000D03*
%TD*%
%TO.C,D26*%
X207500000Y-111710000D03*
X207500000Y-108410000D03*
%TD*%
%TO.C,D12*%
X207500000Y-92960000D03*
X207500000Y-89660000D03*
%TD*%
D11*
%TO.C,D20*%
X255984484Y-202205595D03*
X258924806Y-200707427D03*
%TD*%
D10*
%TO.C,D15*%
X226250000Y-116710000D03*
X226250000Y-113410000D03*
%TD*%
%TO.C,D10*%
X207500000Y-146210000D03*
X207500000Y-142910000D03*
%TD*%
%TO.C,D13*%
X226250000Y-152210000D03*
X226250000Y-148910000D03*
%TD*%
D12*
%TO.C,D19*%
X243672692Y-183119684D03*
X245565494Y-180416482D03*
%TD*%
M02*
