%TF.GenerationSoftware,KiCad,Pcbnew,8.0.6*%
%TF.CreationDate,2024-11-04T13:34:25+01:00*%
%TF.ProjectId,left,6c656674-2e6b-4696-9361-645f70636258,v1.0.0*%
%TF.SameCoordinates,Original*%
%TF.FileFunction,Profile,NP*%
%FSLAX46Y46*%
G04 Gerber Fmt 4.6, Leading zero omitted, Abs format (unit mm)*
G04 Created by KiCad (PCBNEW 8.0.6) date 2024-11-04 13:34:25*
%MOMM*%
%LPD*%
G01*
G04 APERTURE LIST*
%TA.AperFunction,Profile*%
%ADD10C,0.150000*%
%TD*%
G04 APERTURE END LIST*
D10*
X260485733Y-176567709D02*
X258495824Y-177581618D01*
X231450000Y-82310000D02*
X231450000Y-81310000D01*
X177200000Y-158560000D02*
X191950000Y-158560000D01*
X250200000Y-160560000D02*
G75*
G02*
X248200000Y-162560000I-2000000J0D01*
G01*
X233450000Y-84310000D02*
G75*
G02*
X231450000Y-82310000I0J2000000D01*
G01*
X186700000Y-77310000D02*
G75*
G02*
X188700000Y-75310000I2000000J0D01*
G01*
X212700000Y-79310000D02*
X212700000Y-77310000D01*
X175200000Y-160560000D02*
G75*
G02*
X177200000Y-158560000I2000000J0D01*
G01*
X130450000Y-163560000D02*
X130450000Y-89310000D01*
X203450000Y-153560000D02*
G75*
G02*
X205450000Y-155560000I0J-2000000D01*
G01*
X228834662Y-162560000D02*
G75*
G02*
X230472991Y-165707171I38J-2000000D01*
G01*
X255949539Y-174652452D02*
X256908754Y-173282552D01*
X184700000Y-80310000D02*
X169950000Y-80310000D01*
X224056846Y-178357214D02*
G75*
G02*
X223565684Y-175571749I1147154J1638314D01*
G01*
X210700000Y-75310000D02*
G75*
G02*
X212700000Y-77310000I0J-2000000D01*
G01*
X132450000Y-87310000D02*
X165950000Y-87310000D01*
X273163519Y-197043884D02*
X263175728Y-177441741D01*
X224200000Y-162560000D02*
X228834662Y-162560000D01*
X207450000Y-159560000D02*
X222200000Y-159560000D01*
X273163518Y-197043884D02*
G75*
G02*
X272289508Y-199733922I-1782018J-908016D01*
G01*
X250200000Y-160560000D02*
X250200000Y-86310000D01*
X195950000Y-153560000D02*
X203450000Y-153560000D01*
X241569249Y-190619531D02*
G75*
G02*
X242204099Y-191349859I-1147149J-1638269D01*
G01*
X186700000Y-78310000D02*
G75*
G02*
X184700000Y-80310000I-2000000J0D01*
G01*
X248200000Y-84310000D02*
X233450000Y-84310000D01*
X230472966Y-165707153D02*
X223565695Y-175571757D01*
X256417602Y-170497094D02*
G75*
G02*
X256908745Y-173282546I-1147202J-1638306D01*
G01*
X224200000Y-161560000D02*
X224200000Y-162560000D01*
X231450000Y-81310000D02*
X214700000Y-81310000D01*
X224056847Y-178357214D02*
X241569249Y-190619531D01*
X242204109Y-191349854D02*
X250888355Y-208393647D01*
X256417602Y-170497095D02*
X245082256Y-162560000D01*
X248200000Y-84310000D02*
G75*
G02*
X250200000Y-86310000I0J-2000000D01*
G01*
X214700000Y-81310000D02*
G75*
G02*
X212700000Y-79310000I0J2000000D01*
G01*
X175200000Y-163560000D02*
X175200000Y-160560000D01*
X253578350Y-209267679D02*
G75*
G02*
X250888406Y-208393621I-907950J1781979D01*
G01*
X167950000Y-85310000D02*
G75*
G02*
X165950000Y-87310000I-2000000J0D01*
G01*
X193950000Y-156560000D02*
X193950000Y-155560000D01*
X258495824Y-177581618D02*
G75*
G02*
X255949488Y-174652416I-908024J1782018D01*
G01*
X193950000Y-156560000D02*
G75*
G02*
X191950000Y-158560000I-2000000J0D01*
G01*
X132450000Y-165560000D02*
G75*
G02*
X130450000Y-163560000I0J2000000D01*
G01*
X167950000Y-82310000D02*
G75*
G02*
X169950000Y-80310000I2000000J0D01*
G01*
X245082256Y-162560000D02*
X248200000Y-162560000D01*
X186700000Y-77310000D02*
X186700000Y-78310000D01*
X222200000Y-159560000D02*
G75*
G02*
X224200000Y-161560000I0J-2000000D01*
G01*
X210700000Y-75310000D02*
X188700000Y-75310000D01*
X207450000Y-159560000D02*
G75*
G02*
X205450000Y-157560000I0J2000000D01*
G01*
X253578350Y-209267679D02*
X272289486Y-199733878D01*
X167950000Y-82310000D02*
X167950000Y-85310000D01*
X130450000Y-89310000D02*
G75*
G02*
X132450000Y-87310000I2000000J0D01*
G01*
X205450000Y-155560000D02*
X205450000Y-157560000D01*
X260485733Y-176567709D02*
G75*
G02*
X263175702Y-177441754I907967J-1781991D01*
G01*
X132450000Y-165560000D02*
X173200000Y-165560000D01*
X193950000Y-155560000D02*
G75*
G02*
X195950000Y-153560000I2000000J0D01*
G01*
X175200000Y-163560000D02*
G75*
G02*
X173200000Y-165560000I-2000000J0D01*
G01*
M02*
