0
SECTION
2
HEADER
9
$INSUNITS
70
4
0
ENDSEC
0
SECTION
2
TABLES
0
TABLE
2
LTYPE
0
LTYPE
72
65
70
64
2
CONTINUOUS
3
______
73
0
40
0
0
ENDTAB
0
TABLE
2
LAYER
0
ENDTAB
0
ENDSEC
0
SECTION
2
ENTITIES
0
LINE
8
0
10
-12
20
-13.5
11
30.75
21
-13.5
0
LINE
8
0
10
-14
20
-11.5
11
-14
21
64.75
0
LINE
8
0
10
-12
20
66.75
11
21.5
21
66.75
0
LINE
8
0
10
32.75
20
-11.5
11
32.75
21
-8.5
0
LINE
8
0
10
34.75
20
-6.5
11
49.5
21
-6.5
0
LINE
8
0
10
51.5
20
-4.5
11
51.5
21
-3.5
0
LINE
8
0
10
40.25
20
73.75
11
25.5
21
73.75
0
LINE
8
0
10
23.5
20
71.75
11
23.5
21
68.75
0
LINE
8
0
10
53.5
20
-1.5
11
59
21
-1.5
0
LINE
8
0
10
70.25
20
74.75
11
70.25
21
76.75
0
LINE
8
0
10
68.25
20
78.75
11
44.25
21
78.75
0
LINE
8
0
10
42.25
20
76.75
11
42.25
21
75.75
0
LINE
8
0
10
63
20
-7.5
11
77.75
21
-7.5
0
LINE
8
0
10
61
20
-3.5
11
61
21
-5.5
0
LINE
8
0
10
89
20
71.75
11
89
21
72.75
0
LINE
8
0
10
89
20
72.75
11
72.25
21
72.75
0
LINE
8
0
10
79.75
20
-10.5
11
83.4636795
21
-10.5
0
LINE
8
0
10
104.8038508
20
-10.5
11
105.75
21
-10.5
0
LINE
8
0
10
107.75
20
-8.5
11
107.75
21
67.75
0
LINE
8
0
10
79.75
20
-9.5
11
79.75
21
-10.5
0
LINE
8
0
10
105.75
20
69.75
11
91
21
69.75
0
LINE
8
0
10
79.214118
20
-25.5427901
11
97.3414351
21
-38.2356741
0
LINE
8
0
10
111.0182015
20
-25.4514682
11
114.851482
21
-19.9769763
0
LINE
8
0
10
114.3603308
20
-17.1915193
11
104.8038508
21
-10.5
0
LINE
8
0
10
85.1019837
20
-13.6471529
11
78.7229668
21
-22.7573331
0
LINE
8
0
10
97.9762952
20
-38.9659973
11
107.0013394
21
-56.6786439
0
LINE
8
0
10
109.6913334
20
-57.5526759
11
130.1844836
21
-47.1108944
0
LINE
8
0
10
131.0585156
20
-44.4209004
11
120.1627436
21
-23.0367437
0
LINE
8
0
10
117.4727496
20
-22.1627117
11
111.0182015
21
-25.4514682
0
LINE
8
0
10
236.75
20
-13.5
11
279.5
21
-13.5
0
LINE
8
0
10
281.5
20
-11.5
11
281.5
21
64.75
0
LINE
8
0
10
246
20
66.75
11
279.5
21
66.75
0
LINE
8
0
10
234.75
20
-8.5
11
234.75
21
-11.5
0
LINE
8
0
10
218
20
-6.5
11
232.75
21
-6.5
0
LINE
8
0
10
216
20
-3.5
11
216
21
-4.5
0
LINE
8
0
10
244
20
68.75
11
244
21
71.75
0
LINE
8
0
10
242
20
73.75
11
227.25
21
73.75
0
LINE
8
0
10
208.5
20
-1.5
11
214
21
-1.5
0
LINE
8
0
10
225.25
20
75.75
11
225.25
21
76.75
0
LINE
8
0
10
223.25
20
78.75
11
199.25
21
78.75
0
LINE
8
0
10
197.25
20
76.75
11
197.25
21
74.75
0
LINE
8
0
10
187.75
20
-7.5
11
204.5
21
-7.5
0
LINE
8
0
10
206.5
20
-5.5
11
206.5
21
-3.5
0
LINE
8
0
10
195.25
20
72.75
11
180.5
21
72.75
0
LINE
8
0
10
178.5
20
70.75
11
178.5
21
69.75
0
LINE
8
0
10
161.75
20
-10.5
11
162.6961492
21
-10.5
0
LINE
8
0
10
184.0363205
20
-10.5
11
185.75
21
-10.5
0
LINE
8
0
10
187.75
20
-8.5
11
187.75
21
-7.5
0
LINE
8
0
10
159.75
20
-8.5
11
159.75
21
67.75
0
LINE
8
0
10
178.5
20
69.75
11
161.75
21
69.75
0
LINE
8
0
10
170.1585649
20
-38.2356741
11
188.285882
21
-25.5427901
0
LINE
8
0
10
188.7770332
20
-22.7573331
11
182.3980163
21
-13.6471529
0
LINE
8
0
10
162.6961492
20
-10.5
11
153.1396692
21
-17.1915193
0
LINE
8
0
10
152.648518
20
-19.9769763
11
156.4817985
21
-25.4514682
0
LINE
8
0
10
160.4986606
20
-56.6786439
11
169.5237048
21
-38.9659973
0
LINE
8
0
10
156.4817985
20
-25.4514682
11
150.0272504
21
-22.1627117
0
LINE
8
0
10
147.3372564
20
-23.0367437
11
136.4414844
21
-44.4209004
0
LINE
8
0
10
137.3155164
20
-47.1108944
11
157.8086666
21
-57.5526759
0
ARC
8
0
10
30.75
20
-11.5
40
2
50
270
51
0
0
ARC
8
0
10
34.75
20
-8.5
40
2
50
90
51
180
0
ARC
8
0
10
49.5
20
-4.5
40
2
50
270
51
0
0
ARC
8
0
10
53.5
20
-3.5
40
2
50
90
51
180
0
ARC
8
0
10
59
20
-3.5
40
2
50
0
51
90
0
ARC
8
0
10
63
20
-5.5
40
2
50
180
51
270
0
ARC
8
0
10
77.75
20
-9.5
40
2
50
0
51
90
0
ARC
8
0
10
83.4636795
20
-12.5
40
2
50
325.0000003
51
90
0
ARC
8
0
10
80.3612709
20
-23.904486
40
2
50
145.0000003
51
235.0000003
0
ARC
8
0
10
96.1942822
20
-39.8739783
40
2
50
27.0000006
51
55.0000003
0
ARC
8
0
10
108.7833524
20
-55.7706629
40
2
50
207.0000006
51
297.0000006
0
ARC
8
0
10
129.2765026
20
-45.3288814
40
2
50
297.0000006
51
27.0000006
0
ARC
8
0
10
118.3807306
20
-23.9447247
40
2
50
27.0000006
51
117.0000006
0
ARC
8
0
10
113.2131779
20
-18.8298234
40
2
50
325.0000003
51
55.0000003
0
ARC
8
0
10
105.75
20
-8.5
40
2
50
270
51
0
0
ARC
8
0
10
105.75
20
67.75
40
2
50
0
51
90
0
ARC
8
0
10
91
20
71.75
40
2
50
180
51
270
0
ARC
8
0
10
72.25
20
74.75
40
2
50
180
51
270
0
ARC
8
0
10
68.25
20
76.75
40
2
50
0
51
90
0
ARC
8
0
10
44.25
20
76.75
40
2
50
90
51
180
0
ARC
8
0
10
40.25
20
75.75
40
2
50
270
51
0
0
ARC
8
0
10
25.5
20
71.75
40
2
50
90
51
180
0
ARC
8
0
10
21.5
20
68.75
40
2
50
270
51
0
0
ARC
8
0
10
-12
20
64.75
40
2
50
90
51
180
0
ARC
8
0
10
-12
20
-11.5
40
2
50
180
51
270
0
ARC
8
0
10
279.5
20
-11.5
40
2
50
270
51
0
0
ARC
8
0
10
279.5
20
64.75
40
2
50
0
51
90
0
ARC
8
0
10
246
20
68.75
40
2
50
180
51
270
0
ARC
8
0
10
242
20
71.75
40
2
50
0
51
90
0
ARC
8
0
10
227.25
20
75.75
40
2
50
180
51
270
0
ARC
8
0
10
223.25
20
76.75
40
2
50
0
51
90
0
ARC
8
0
10
199.25
20
76.75
40
2
50
90
51
180
0
ARC
8
0
10
195.25
20
74.75
40
2
50
270
51
0
0
ARC
8
0
10
180.5
20
70.75
40
2
50
90
51
180
0
ARC
8
0
10
161.75
20
67.75
40
2
50
90
51
180
0
ARC
8
0
10
161.75
20
-8.5
40
2
50
180
51
270
0
ARC
8
0
10
154.2868221
20
-18.8298234
40
2
50
124.9999997
51
214.9999997
0
ARC
8
0
10
149.1192694
20
-23.9447247
40
2
50
62.9999994
51
152.9999994
0
ARC
8
0
10
138.2234974
20
-45.3288814
40
2
50
152.9999994
51
242.9999994
0
ARC
8
0
10
158.7166476
20
-55.7706629
40
2
50
242.9999994
51
332.9999994
0
ARC
8
0
10
171.3057178
20
-39.8739783
40
2
50
124.9999997
51
152.9999994
0
ARC
8
0
10
187.1387291
20
-23.904486
40
2
50
304.9999997
51
34.9999997
0
ARC
8
0
10
184.0363205
20
-12.5
40
2
50
90
51
214.9999997
0
ARC
8
0
10
185.75
20
-8.5
40
2
50
270
51
0
0
ARC
8
0
10
204.5
20
-5.5
40
2
50
270
51
0
0
ARC
8
0
10
208.5
20
-3.5
40
2
50
90
51
180
0
ARC
8
0
10
214
20
-3.5
40
2
50
0
51
90
0
ARC
8
0
10
218
20
-4.5
40
2
50
180
51
270
0
ARC
8
0
10
232.75
20
-8.5
40
2
50
0
51
90
0
ARC
8
0
10
236.75
20
-11.5
40
2
50
180
51
270
0
LINE
8
0
10
-7
20
-7
11
7
21
-7
0
LINE
8
0
10
7
20
-7
11
7
21
7
0
LINE
8
0
10
7
20
7
11
-7
21
7
0
LINE
8
0
10
-7
20
7
11
-7
21
-7
0
LINE
8
0
10
-7
20
10.75
11
7
21
10.75
0
LINE
8
0
10
7
20
10.75
11
7
21
24.75
0
LINE
8
0
10
7
20
24.75
11
-7
21
24.75
0
LINE
8
0
10
-7
20
24.75
11
-7
21
10.75
0
LINE
8
0
10
-7
20
28.5
11
7
21
28.5
0
LINE
8
0
10
7
20
28.5
11
7
21
42.5
0
LINE
8
0
10
7
20
42.5
11
-7
21
42.5
0
LINE
8
0
10
-7
20
42.5
11
-7
21
28.5
0
LINE
8
0
10
-7
20
46.25
11
7
21
46.25
0
LINE
8
0
10
7
20
46.25
11
7
21
60.25
0
LINE
8
0
10
7
20
60.25
11
-7
21
60.25
0
LINE
8
0
10
-7
20
60.25
11
-7
21
46.25
0
LINE
8
0
10
11.75
20
-7
11
25.75
21
-7
0
LINE
8
0
10
25.75
20
-7
11
25.75
21
7
0
LINE
8
0
10
25.75
20
7
11
11.75
21
7
0
LINE
8
0
10
11.75
20
7
11
11.75
21
-7
0
LINE
8
0
10
11.75
20
10.75
11
25.75
21
10.75
0
LINE
8
0
10
25.75
20
10.75
11
25.75
21
24.75
0
LINE
8
0
10
25.75
20
24.75
11
11.75
21
24.75
0
LINE
8
0
10
11.75
20
24.75
11
11.75
21
10.75
0
LINE
8
0
10
11.75
20
28.5
11
25.75
21
28.5
0
LINE
8
0
10
25.75
20
28.5
11
25.75
21
42.5
0
LINE
8
0
10
25.75
20
42.5
11
11.75
21
42.5
0
LINE
8
0
10
11.75
20
42.5
11
11.75
21
28.5
0
LINE
8
0
10
11.75
20
46.25
11
25.75
21
46.25
0
LINE
8
0
10
25.75
20
46.25
11
25.75
21
60.25
0
LINE
8
0
10
25.75
20
60.25
11
11.75
21
60.25
0
LINE
8
0
10
11.75
20
60.25
11
11.75
21
46.25
0
LINE
8
0
10
30.5
20
0
11
44.5
21
0
0
LINE
8
0
10
44.5
20
0
11
44.5
21
14
0
LINE
8
0
10
44.5
20
14
11
30.5
21
14
0
LINE
8
0
10
30.5
20
14
11
30.5
21
0
0
LINE
8
0
10
30.5
20
17.75
11
44.5
21
17.75
0
LINE
8
0
10
44.5
20
17.75
11
44.5
21
31.75
0
LINE
8
0
10
44.5
20
31.75
11
30.5
21
31.75
0
LINE
8
0
10
30.5
20
31.75
11
30.5
21
17.75
0
LINE
8
0
10
30.5
20
35.5
11
44.5
21
35.5
0
LINE
8
0
10
44.5
20
35.5
11
44.5
21
49.5
0
LINE
8
0
10
44.5
20
49.5
11
30.5
21
49.5
0
LINE
8
0
10
30.5
20
49.5
11
30.5
21
35.5
0
LINE
8
0
10
30.5
20
53.25
11
44.5
21
53.25
0
LINE
8
0
10
44.5
20
53.25
11
44.5
21
67.25
0
LINE
8
0
10
44.5
20
67.25
11
30.5
21
67.25
0
LINE
8
0
10
30.5
20
67.25
11
30.5
21
53.25
0
LINE
8
0
10
49.25
20
5
11
63.25
21
5
0
LINE
8
0
10
63.25
20
5
11
63.25
21
19
0
LINE
8
0
10
63.25
20
19
11
49.25
21
19
0
LINE
8
0
10
49.25
20
19
11
49.25
21
5
0
LINE
8
0
10
49.25
20
22.75
11
63.25
21
22.75
0
LINE
8
0
10
63.25
20
22.75
11
63.25
21
36.75
0
LINE
8
0
10
63.25
20
36.75
11
49.25
21
36.75
0
LINE
8
0
10
49.25
20
36.75
11
49.25
21
22.75
0
LINE
8
0
10
49.25
20
40.5
11
63.25
21
40.5
0
LINE
8
0
10
63.25
20
40.5
11
63.25
21
54.5
0
LINE
8
0
10
63.25
20
54.5
11
49.25
21
54.5
0
LINE
8
0
10
49.25
20
54.5
11
49.25
21
40.5
0
LINE
8
0
10
49.25
20
58.25
11
63.25
21
58.25
0
LINE
8
0
10
63.25
20
58.25
11
63.25
21
72.25
0
LINE
8
0
10
63.25
20
72.25
11
49.25
21
72.25
0
LINE
8
0
10
49.25
20
72.25
11
49.25
21
58.25
0
LINE
8
0
10
68
20
-1
11
82
21
-1
0
LINE
8
0
10
82
20
-1
11
82
21
13
0
LINE
8
0
10
82
20
13
11
68
21
13
0
LINE
8
0
10
68
20
13
11
68
21
-1
0
LINE
8
0
10
68
20
16.75
11
82
21
16.75
0
LINE
8
0
10
82
20
16.75
11
82
21
30.75
0
LINE
8
0
10
82
20
30.75
11
68
21
30.75
0
LINE
8
0
10
68
20
30.75
11
68
21
16.75
0
LINE
8
0
10
68
20
34.5
11
82
21
34.5
0
LINE
8
0
10
82
20
34.5
11
82
21
48.5
0
LINE
8
0
10
82
20
48.5
11
68
21
48.5
0
LINE
8
0
10
68
20
48.5
11
68
21
34.5
0
LINE
8
0
10
68
20
52.25
11
82
21
52.25
0
LINE
8
0
10
82
20
52.25
11
82
21
66.25
0
LINE
8
0
10
82
20
66.25
11
68
21
66.25
0
LINE
8
0
10
68
20
66.25
11
68
21
52.25
0
LINE
8
0
10
86.75
20
-4
11
100.75
21
-4
0
LINE
8
0
10
100.75
20
-4
11
100.75
21
10
0
LINE
8
0
10
100.75
20
10
11
86.75
21
10
0
LINE
8
0
10
86.75
20
10
11
86.75
21
-4
0
LINE
8
0
10
86.75
20
13.75
11
100.75
21
13.75
0
LINE
8
0
10
100.75
20
13.75
11
100.75
21
27.75
0
LINE
8
0
10
100.75
20
27.75
11
86.75
21
27.75
0
LINE
8
0
10
86.75
20
27.75
11
86.75
21
13.75
0
LINE
8
0
10
86.75
20
31.5
11
100.75
21
31.5
0
LINE
8
0
10
100.75
20
31.5
11
100.75
21
45.5
0
LINE
8
0
10
100.75
20
45.5
11
86.75
21
45.5
0
LINE
8
0
10
86.75
20
45.5
11
86.75
21
31.5
0
LINE
8
0
10
86.75
20
49.25
11
100.75
21
49.25
0
LINE
8
0
10
100.75
20
49.25
11
100.75
21
63.25
0
LINE
8
0
10
100.75
20
63.25
11
86.75
21
63.25
0
LINE
8
0
10
86.75
20
63.25
11
86.75
21
49.25
0
LINE
8
0
10
87.038125
20
-23.086184
11
98.5062537
21
-31.1162541
0
LINE
8
0
10
98.5062537
20
-31.1162541
11
106.5363238
21
-19.6481254
0
LINE
8
0
10
106.5363238
20
-19.6481254
11
95.0681951
21
-11.6180553
0
LINE
8
0
10
95.0681951
20
-11.6180553
11
87.038125
21
-23.086184
0
LINE
8
0
10
104.1670623
20
-36.7985816
11
110.5229293
21
-49.272673
0
LINE
8
0
10
110.5229293
20
-49.272673
11
122.9970207
21
-42.916806
0
LINE
8
0
10
122.9970207
20
-42.916806
11
116.6411537
21
-30.4427146
0
LINE
8
0
10
116.6411537
20
-30.4427146
11
104.1670623
21
-36.7985816
0
LINE
8
0
10
260.5
20
-7
11
274.5
21
-7
0
LINE
8
0
10
274.5
20
-7
11
274.5
21
7
0
LINE
8
0
10
274.5
20
7
11
260.5
21
7
0
LINE
8
0
10
260.5
20
7
11
260.5
21
-7
0
LINE
8
0
10
260.5
20
10.75
11
274.5
21
10.75
0
LINE
8
0
10
274.5
20
10.75
11
274.5
21
24.75
0
LINE
8
0
10
274.5
20
24.75
11
260.5
21
24.75
0
LINE
8
0
10
260.5
20
24.75
11
260.5
21
10.75
0
LINE
8
0
10
260.5
20
28.5
11
274.5
21
28.5
0
LINE
8
0
10
274.5
20
28.5
11
274.5
21
42.5
0
LINE
8
0
10
274.5
20
42.5
11
260.5
21
42.5
0
LINE
8
0
10
260.5
20
42.5
11
260.5
21
28.5
0
LINE
8
0
10
260.5
20
46.25
11
274.5
21
46.25
0
LINE
8
0
10
274.5
20
46.25
11
274.5
21
60.25
0
LINE
8
0
10
274.5
20
60.25
11
260.5
21
60.25
0
LINE
8
0
10
260.5
20
60.25
11
260.5
21
46.25
0
LINE
8
0
10
241.75
20
-7
11
255.75
21
-7
0
LINE
8
0
10
255.75
20
-7
11
255.75
21
7
0
LINE
8
0
10
255.75
20
7
11
241.75
21
7
0
LINE
8
0
10
241.75
20
7
11
241.75
21
-7
0
LINE
8
0
10
241.75
20
10.75
11
255.75
21
10.75
0
LINE
8
0
10
255.75
20
10.75
11
255.75
21
24.75
0
LINE
8
0
10
255.75
20
24.75
11
241.75
21
24.75
0
LINE
8
0
10
241.75
20
24.75
11
241.75
21
10.75
0
LINE
8
0
10
241.75
20
28.5
11
255.75
21
28.5
0
LINE
8
0
10
255.75
20
28.5
11
255.75
21
42.5
0
LINE
8
0
10
255.75
20
42.5
11
241.75
21
42.5
0
LINE
8
0
10
241.75
20
42.5
11
241.75
21
28.5
0
LINE
8
0
10
241.75
20
46.25
11
255.75
21
46.25
0
LINE
8
0
10
255.75
20
46.25
11
255.75
21
60.25
0
LINE
8
0
10
255.75
20
60.25
11
241.75
21
60.25
0
LINE
8
0
10
241.75
20
60.25
11
241.75
21
46.25
0
LINE
8
0
10
223
20
0
11
237
21
0
0
LINE
8
0
10
237
20
0
11
237
21
14
0
LINE
8
0
10
237
20
14
11
223
21
14
0
LINE
8
0
10
223
20
14
11
223
21
0
0
LINE
8
0
10
223
20
17.75
11
237
21
17.75
0
LINE
8
0
10
237
20
17.75
11
237
21
31.75
0
LINE
8
0
10
237
20
31.75
11
223
21
31.75
0
LINE
8
0
10
223
20
31.75
11
223
21
17.75
0
LINE
8
0
10
223
20
35.5
11
237
21
35.5
0
LINE
8
0
10
237
20
35.5
11
237
21
49.5
0
LINE
8
0
10
237
20
49.5
11
223
21
49.5
0
LINE
8
0
10
223
20
49.5
11
223
21
35.5
0
LINE
8
0
10
223
20
53.25
11
237
21
53.25
0
LINE
8
0
10
237
20
53.25
11
237
21
67.25
0
LINE
8
0
10
237
20
67.25
11
223
21
67.25
0
LINE
8
0
10
223
20
67.25
11
223
21
53.25
0
LINE
8
0
10
204.25
20
5
11
218.25
21
5
0
LINE
8
0
10
218.25
20
5
11
218.25
21
19
0
LINE
8
0
10
218.25
20
19
11
204.25
21
19
0
LINE
8
0
10
204.25
20
19
11
204.25
21
5
0
LINE
8
0
10
204.25
20
22.75
11
218.25
21
22.75
0
LINE
8
0
10
218.25
20
22.75
11
218.25
21
36.75
0
LINE
8
0
10
218.25
20
36.75
11
204.25
21
36.75
0
LINE
8
0
10
204.25
20
36.75
11
204.25
21
22.75
0
LINE
8
0
10
204.25
20
40.5
11
218.25
21
40.5
0
LINE
8
0
10
218.25
20
40.5
11
218.25
21
54.5
0
LINE
8
0
10
218.25
20
54.5
11
204.25
21
54.5
0
LINE
8
0
10
204.25
20
54.5
11
204.25
21
40.5
0
LINE
8
0
10
204.25
20
58.25
11
218.25
21
58.25
0
LINE
8
0
10
218.25
20
58.25
11
218.25
21
72.25
0
LINE
8
0
10
218.25
20
72.25
11
204.25
21
72.25
0
LINE
8
0
10
204.25
20
72.25
11
204.25
21
58.25
0
LINE
8
0
10
185.5
20
-1
11
199.5
21
-1
0
LINE
8
0
10
199.5
20
-1
11
199.5
21
13
0
LINE
8
0
10
199.5
20
13
11
185.5
21
13
0
LINE
8
0
10
185.5
20
13
11
185.5
21
-1
0
LINE
8
0
10
185.5
20
16.75
11
199.5
21
16.75
0
LINE
8
0
10
199.5
20
16.75
11
199.5
21
30.75
0
LINE
8
0
10
199.5
20
30.75
11
185.5
21
30.75
0
LINE
8
0
10
185.5
20
30.75
11
185.5
21
16.75
0
LINE
8
0
10
185.5
20
34.5
11
199.5
21
34.5
0
LINE
8
0
10
199.5
20
34.5
11
199.5
21
48.5
0
LINE
8
0
10
199.5
20
48.5
11
185.5
21
48.5
0
LINE
8
0
10
185.5
20
48.5
11
185.5
21
34.5
0
LINE
8
0
10
185.5
20
52.25
11
199.5
21
52.25
0
LINE
8
0
10
199.5
20
52.25
11
199.5
21
66.25
0
LINE
8
0
10
199.5
20
66.25
11
185.5
21
66.25
0
LINE
8
0
10
185.5
20
66.25
11
185.5
21
52.25
0
LINE
8
0
10
166.75
20
-4
11
180.75
21
-4
0
LINE
8
0
10
180.75
20
-4
11
180.75
21
10
0
LINE
8
0
10
180.75
20
10
11
166.75
21
10
0
LINE
8
0
10
166.75
20
10
11
166.75
21
-4
0
LINE
8
0
10
166.75
20
13.75
11
180.75
21
13.75
0
LINE
8
0
10
180.75
20
13.75
11
180.75
21
27.75
0
LINE
8
0
10
180.75
20
27.75
11
166.75
21
27.75
0
LINE
8
0
10
166.75
20
27.75
11
166.75
21
13.75
0
LINE
8
0
10
166.75
20
31.5
11
180.75
21
31.5
0
LINE
8
0
10
180.75
20
31.5
11
180.75
21
45.5
0
LINE
8
0
10
180.75
20
45.5
11
166.75
21
45.5
0
LINE
8
0
10
166.75
20
45.5
11
166.75
21
31.5
0
LINE
8
0
10
166.75
20
49.25
11
180.75
21
49.25
0
LINE
8
0
10
180.75
20
49.25
11
180.75
21
63.25
0
LINE
8
0
10
180.75
20
63.25
11
166.75
21
63.25
0
LINE
8
0
10
166.75
20
63.25
11
166.75
21
49.25
0
LINE
8
0
10
168.9937463
20
-31.1162541
11
180.461875
21
-23.086184
0
LINE
8
0
10
180.461875
20
-23.086184
11
172.4318049
21
-11.6180553
0
LINE
8
0
10
172.4318049
20
-11.6180553
11
160.9636762
21
-19.6481254
0
LINE
8
0
10
160.9636762
20
-19.6481254
11
168.9937463
21
-31.1162541
0
LINE
8
0
10
156.9770707
20
-49.272673
11
163.3329377
21
-36.7985816
0
LINE
8
0
10
163.3329377
20
-36.7985816
11
150.8588463
21
-30.4427146
0
LINE
8
0
10
150.8588463
20
-30.4427146
11
144.5029793
21
-42.916806
0
LINE
8
0
10
144.5029793
20
-42.916806
11
156.9770707
21
-49.272673
0
ENDSEC
0
EOF